<?xml version="1.0" standalone="no"?>
<!DOCTYPE svg PUBLIC "-//W3C//DTD SVG 1.1//EN" "http://www.w3.org/Graphics/SVG/1.1/DTD/svg11.dtd" >
<svg xmlns="http://www.w3.org/2000/svg" xmlns:xlink="http://www.w3.org/1999/xlink" version="1.1">
<metadata>
Created by FontForge 20161003 at Tue Apr  2 18:37:15 2019
 By www-data
Copyright \(c\) 2008 by Stefan Gandl. All rights reserved.
</metadata>
<defs>
<font id="NBInternationalPro-Reg" horiz-adv-x="496" >
  <font-face 
    font-family="NB International Pro"
    font-weight="400"
    font-stretch="normal"
    units-per-em="1000"
    panose-1="2 11 5 3 4 1 0 2 0 4"
    ascent="800"
    descent="-200"
    x-height="506"
    cap-height="704"
    bbox="-68 -208 1114 944"
    underline-thickness="85"
    underline-position="-133"
    stemh="85"
    stemv="95"
    unicode-range="U+0009-FB05"
  />
<missing-glyph 
d="M456 699v-694c0 -3 -2 -5 -5 -5h-411c-3 0 -5 2 -5 5v694c0 3 2 5 5 5h411c3 0 5 -2 5 -5zM246 375l173 306h-346zM73 24h346l-173 305zM259 352l173 -304v608c-57 -99 -118 -205 -173 -304zM60 47l173 305l-173 305v-610z" />
    <glyph glyph-name="fi" unicode="fi" horiz-adv-x="566" 
d="M326 699v-75c0 -3 -2 -5 -5 -5h-66c-30 0 -47 -19 -47 -50v-58c0 -3 2 -5 5 -5h108c3 0 5 -2 5 -5v-65c0 -3 -2 -5 -5 -5h-108c-3 0 -5 -2 -5 -5v-421c0 -3 -2 -5 -5 -5h-85c-3 0 -5 2 -5 5v421c0 3 -2 5 -5 5h-89c-3 0 -5 2 -5 5v65c0 3 2 5 5 5h89c3 0 5 2 5 5v75
c0 82 48 120 141 118h67c3 0 5 -2 5 -5zM488 501v-496c0 -3 -2 -5 -5 -5h-85c-3 0 -5 2 -5 5v496c0 3 2 5 5 5h85c3 0 5 -2 5 -5zM498 699v-105c0 -3 -2 -5 -5 -5h-105c-3 0 -5 2 -5 5v105c0 3 2 5 5 5h105c3 0 5 -2 5 -5z" />
    <glyph glyph-name="fl" unicode="fl" horiz-adv-x="570" 
d="M326 699v-75c0 -3 -2 -5 -5 -5h-66c-30 0 -47 -19 -47 -50v-58c0 -3 2 -5 5 -5h108c3 0 5 -2 5 -5v-65c0 -3 -2 -5 -5 -5h-108c-3 0 -5 -2 -5 -5v-421c0 -3 -2 -5 -5 -5h-85c-3 0 -5 2 -5 5v421c0 3 -2 5 -5 5h-89c-3 0 -5 2 -5 5v65c0 3 2 5 5 5h89c3 0 5 2 5 5v75
c0 82 48 120 141 118h67c3 0 5 -2 5 -5zM493 699v-694c0 -3 -2 -5 -5 -5h-85c-3 0 -5 2 -5 5v694c0 3 2 5 5 5h85c3 0 5 -2 5 -5z" />
    <glyph glyph-name=".notdef" 
d="M456 699v-694c0 -3 -2 -5 -5 -5h-411c-3 0 -5 2 -5 5v694c0 3 2 5 5 5h411c3 0 5 -2 5 -5zM246 375l173 306h-346zM73 24h346l-173 305zM259 352l173 -304v608c-57 -99 -118 -205 -173 -304zM60 47l173 305l-173 305v-610z" />
    <glyph glyph-name="NULL" horiz-adv-x="5" 
 />
    <glyph glyph-name="NULL" horiz-adv-x="5" 
 />
    <glyph glyph-name="CR" unicode="&#xd;" horiz-adv-x="15" 
 />
    <glyph glyph-name="space" unicode=" " horiz-adv-x="200" 
 />
    <glyph glyph-name="LF" unicode="&#xa;" horiz-adv-x="265" 
 />
    <glyph glyph-name="DLE" horiz-adv-x="265" 
 />
    <glyph glyph-name="DC1" horiz-adv-x="265" 
 />
    <glyph glyph-name="DC2" horiz-adv-x="265" 
 />
    <glyph glyph-name="DC3" horiz-adv-x="265" 
 />
    <glyph glyph-name="DC4" horiz-adv-x="265" 
 />
    <glyph glyph-name="brokenbar" unicode="&#xa6;" horiz-adv-x="211" 
d="M137 293h-69c-2 0 -4 2 -4 5v401c0 3 2 5 4 5h69c3 0 5 -2 5 -5v-401c0 -3 -2 -5 -5 -5zM137 -197h-69c-2 0 -4 2 -4 5v401c0 3 2 5 4 5h69c3 0 5 -2 5 -5v-401c0 -3 -2 -5 -5 -5z" />
    <glyph glyph-name="minus" unicode="&#x2212;" horiz-adv-x="607" 
d="M544 208h-496c-3 0 -5 2 -5 5v80c0 3 2 5 5 5h496c3 0 5 -2 5 -5v-80c0 -3 -2 -5 -5 -5z" />
    <glyph glyph-name="multiply" unicode="&#xd7;" horiz-adv-x="564" 
d="M279 311l194 194c2 1 6 1 7 0l50 -49c2 -3 2 -5 0 -8l-194 -194c-3 -2 -3 -5 0 -7l195 -194c1 -3 2 -5 0 -7l-47 -47c-2 -2 -5 -2 -7 0l-195 195c-1 1 -5 1 -7 0l-191 -193c-2 -2 -5 -2 -7 0l-50 49c-1 3 -2 5 0 7l191 193c2 2 2 5 1 8l-192 190c-1 3 -2 5 0 7l47 46
c2 3 6 2 7 0l192 -191c1 -2 4 -2 6 1z" />
    <glyph glyph-name="RS" horiz-adv-x="15" 
 />
    <glyph glyph-name="US" horiz-adv-x="15" 
 />
    <glyph glyph-name="exclam" unicode="!" horiz-adv-x="219" 
d="M134 208h-64c-3 0 -5 2 -5 5l-10 293v193c0 3 2 5 5 5h84c3 0 5 -2 5 -5v-193l-10 -293c0 -3 -2 -5 -5 -5zM162 0h-120c-3 0 -5 2 -5 5v122c0 3 2 5 5 5h120c3 0 5 -2 5 -5v-122c0 -3 -2 -5 -5 -5z" />
    <glyph glyph-name="quotedbl" unicode="&#x22;" horiz-adv-x="361" 
d="M288 431h-60c-3 0 -5 2 -5 5l-10 105v158c0 3 2 5 5 5h80c3 0 5 -2 5 -5v-158l-10 -105c0 -3 -2 -5 -5 -5zM118 431h-60c-3 0 -5 2 -5 5l-10 105v158c0 3 2 5 5 5h80c3 0 5 -2 5 -5v-158l-10 -105c0 -3 -2 -5 -5 -5z" />
    <glyph glyph-name="numbersign" unicode="#" horiz-adv-x="581" 
d="M144 292l25 110c1 4 -2 6 -5 6h-136c-3 0 -5 2 -5 5v59c0 3 2 5 5 5h154c3 0 5 1 6 4l48 220c1 2 3 3 5 3h55c4 0 6 -4 5 -7l-47 -214c-1 -3 2 -6 5 -6h102c3 0 5 1 6 5l48 219c1 2 3 3 5 3h55c4 0 6 -4 5 -7l-47 -214c-1 -4 2 -6 5 -6h99c3 0 5 -2 5 -5v-59
c0 -3 -2 -5 -5 -5h-117c-3 0 -5 -2 -6 -5l-26 -110c-1 -4 2 -6 5 -6h144c3 0 5 -2 5 -5v-59c0 -3 -2 -5 -5 -5h-162c-3 0 -4 -1 -5 -4l-47 -211c-1 -2 -3 -3 -5 -3h-54c-4 0 -6 4 -5 7l46 206c1 3 -1 5 -4 5h-105c-3 0 -4 -2 -5 -5l-47 -210c-1 -2 -3 -3 -5 -3h-54
c-4 0 -6 4 -5 7l45 205c1 3 -2 6 -5 6h-92c-3 0 -5 2 -5 5v59c0 3 2 5 5 5h110c3 0 5 1 6 5zM344 408h-103c-3 0 -5 -2 -6 -5l-26 -109c-1 -4 2 -7 5 -7h104c3 0 4 2 5 5l25 110c1 3 -1 6 -4 6z" />
    <glyph glyph-name="dollar" unicode="$" horiz-adv-x="610" 
d="M264 83v234c0 2 -1 3 -3 3c-103 16 -215 55 -215 193c0 117 102 188 213 199c3 0 5 2 5 5v80c0 3 2 5 4 5h69c3 0 5 -2 5 -5v-84c0 -2 1 -3 3 -4c103 -17 191 -81 196 -198c0 -3 -2 -5 -5 -5h-90c-3 0 -5 2 -5 5c0 51 -37 94 -94 110c-3 1 -5 -1 -5 -4v-208
c0 -3 1 -5 5 -5c116 -18 221 -58 221 -206c0 -92 -62 -190 -221 -206c-3 0 -5 -1 -5 -4v-83c0 -3 -2 -5 -5 -5h-69c-2 0 -4 2 -4 5v82c0 3 -2 5 -5 5c-147 13 -225 102 -225 201c0 3 2 5 5 5h89c3 0 6 -3 6 -6c0 -43 40 -100 125 -114c5 -1 5 2 5 5zM347 79
c77 13 121 63 121 119c0 73 -55 98 -121 110c-3 1 -5 -1 -5 -3v-221c0 -3 1 -6 5 -5zM259 626c-65 -10 -113 -56 -113 -113c0 -66 55 -88 113 -97c4 -1 5 1 5 4v202c0 3 -3 5 -5 4z" />
    <glyph glyph-name="percent" unicode="%" horiz-adv-x="832" 
d="M157 8l424 694c1 1 3 2 4 2h70c4 0 6 -4 4 -8l-426 -694c-1 -1 -3 -2 -4 -2h-68c-4 0 -6 4 -4 8zM764 190c0 -114 -36 -200 -147 -200s-148 86 -148 200c0 113 37 199 148 199s147 -86 147 -199zM700 190c0 87 -23 137 -83 137c-61 0 -83 -50 -83 -137s22 -138 83 -138
c60 0 83 51 83 138zM348 515c0 -114 -36 -200 -147 -200s-148 86 -148 200c0 113 37 199 148 199s147 -86 147 -199zM284 515c0 87 -23 137 -83 137c-61 0 -83 -50 -83 -137s22 -138 83 -138c60 0 83 51 83 138z" />
    <glyph glyph-name="ampersand" unicode="&#x26;" horiz-adv-x="656" 
d="M587 0c-44 0 -78 18 -115 55c-2 2 -3 3 -7 0c-45 -34 -115 -65 -195 -65c-169 0 -250 110 -250 222c0 100 67 157 124 190c6 3 6 8 2 12l-25 28c-28 30 -50 62 -50 112c0 87 73 160 189 160c111 0 187 -78 187 -160c0 -104 -77 -141 -154 -167c-3 -1 -5 -5 -2 -9
l158 -171c3 -4 6 -1 6 0c7 13 8 31 8 47v87c0 3 2 5 5 5h85c3 0 5 -2 5 -5v-87c0 -30 -10 -84 -31 -120c-2 -3 -3 -6 0 -8l16 -13c18 -12 22 -19 44 -18c3 0 5 -2 5 -5v-85c0 -3 -2 -5 -5 -5zM270 80c49 0 91 9 131 41c3 3 3 6 0 9l-194 211c-2 3 -5 2 -8 1
c-40 -20 -84 -58 -84 -120c0 -83 63 -142 155 -142zM260 634c-56 0 -99 -29 -99 -80c-1 -34 21 -65 67 -108c3 -3 5 -2 8 -1c0 0 24 9 29 11c48 21 92 36 92 98c0 51 -43 80 -97 80z" />
    <glyph glyph-name="quotesingle" unicode="'" horiz-adv-x="202" 
d="M118 431h-60c-3 0 -5 2 -5 5l-10 105v158c0 3 2 5 5 5h80c3 0 5 -2 5 -5v-158l-10 -105c0 -3 -2 -5 -5 -5z" />
    <glyph glyph-name="parenleft.001" 
d="M456 699v-694c0 -3 -2 -5 -5 -5h-411c-3 0 -5 2 -5 5v694c0 3 2 5 5 5h411c3 0 5 -2 5 -5zM246 375l173 306h-346zM73 24h346l-173 305zM259 352l173 -304v608c-57 -99 -118 -205 -173 -304zM60 47l173 305l-173 305v-610z" />
    <glyph glyph-name="parenright.001" 
d="M456 699v-694c0 -3 -2 -5 -5 -5h-411c-3 0 -5 2 -5 5v694c0 3 2 5 5 5h411c3 0 5 -2 5 -5zM246 375l173 306h-346zM73 24h346l-173 305zM259 352l173 -304v608c-57 -99 -118 -205 -173 -304zM60 47l173 305l-173 305v-610z" />
    <glyph glyph-name="asterisk" unicode="*" horiz-adv-x="473" 
d="M181 528l-62 14l-49 16c-3 1 -4 3 -3 6l18 57c1 3 4 4 7 3l48 -15l53 -24c4 -2 8 -1 7 4l-6 59v51c0 3 2 5 5 5h60c3 0 5 -2 5 -5v-51l-7 -59c-1 -9 5 -5 8 -4l53 24l48 15c3 1 6 0 7 -3l18 -57c1 -3 0 -5 -3 -6l-49 -16l-64 -14c-2 -1 -4 -3 -1 -6l41 -44l30 -43
c2 -2 2 -5 -1 -7l-48 -35c-3 -2 -6 0 -8 2l-29 40l-26 46c-2 4 -6 4 -8 0l-27 -47l-29 -40c-2 -2 -5 -4 -8 -2l-48 35c-3 2 -3 5 -1 7l30 43l41 45c2 3 1 5 -2 6zM201 581v1h-2zM256 582v-1l2 1h-2z" />
    <glyph glyph-name="plus" unicode="+" horiz-adv-x="613" 
d="M348 203v-198c0 -3 -2 -5 -5 -5h-84c-3 0 -5 2 -5 5v198c0 3 -2 5 -5 5h-191c-3 0 -5 2 -5 5v80c0 3 2 5 5 5h191c3 0 5 2 5 5v198c0 3 2 5 5 5h84c3 0 5 -2 5 -5v-198c0 -3 2 -5 5 -5h202c3 0 5 -2 5 -5v-80c0 -3 -2 -5 -5 -5h-202c-3 0 -5 -2 -5 -5z" />
    <glyph glyph-name="comma" unicode="," horiz-adv-x="251" 
d="M102 0h-44c-3 0 -5 2 -5 5v122c0 3 2 5 5 5h120c3 0 5 -2 5 -5v-121c0 -76 -51 -129 -125 -129c-3 0 -5 2 -5 5v55c0 3 2 5 5 5c20 0 49 18 49 53c0 3 -2 5 -5 5z" />
    <glyph glyph-name="hyphen" unicode="-" horiz-adv-x="568" 
d="M438 208h-313c-3 0 -5 2 -5 5v80c0 3 2 5 5 5h313c3 0 5 -2 5 -5v-80c0 -3 -2 -5 -5 -5z" />
    <glyph glyph-name="period" unicode="." horiz-adv-x="251" 
d="M178 0h-120c-3 0 -5 2 -5 5v122c0 3 2 5 5 5h120c3 0 5 -2 5 -5v-122c0 -3 -2 -5 -5 -5z" />
    <glyph glyph-name="slash" unicode="/" horiz-adv-x="505" 
d="M409 697l-234 -694c-1 -2 -3 -3 -5 -3h-74c-4 0 -6 4 -5 7l233 694c1 2 3 3 5 3h75c4 0 6 -4 5 -7z" />
    <glyph glyph-name="zero" unicode="0" horiz-adv-x="625" 
d="M582 352c0 -206 -65 -363 -267 -363s-268 157 -268 363s66 362 268 362s267 -156 267 -362zM482 352c0 177 -45 277 -167 277c-123 0 -167 -100 -167 -277c0 -176 44 -278 167 -278c122 0 167 102 167 278z" />
    <glyph glyph-name="two" unicode="2" horiz-adv-x="548" 
d="M35 5v70c0 3 1 10 4 13l278 271c22 21 86 81 85 143c-1 52 -39 127 -133 127c-76 0 -127 -57 -127 -118c0 -3 -2 -5 -5 -5h-85c-3 0 -5 2 -5 5c0 120 94 203 222 203c144 0 228 -96 228 -212c0 -102 -76 -171 -111 -206l-220 -203c-2 -2 -2 -8 4 -8h322c3 0 5 -2 5 -5
v-75c0 -3 -2 -5 -5 -5h-452c-3 0 -5 2 -5 5z" />
    <glyph glyph-name="three" unicode="3" horiz-adv-x="560" 
d="M223 400c0 3 2 5 5 5h35c76 0 128 47 128 111c0 59 -50 113 -128 113c-73 -1 -126 -60 -125 -118c0 -3 -2 -5 -5 -5h-85c-3 0 -5 2 -5 5c-1 117 92 202 220 203c133 0 223 -85 223 -198c0 -94 -76 -139 -99 -146c-6 -1 -6 -9 0 -10c34 -11 115 -66 115 -170
c0 -117 -90 -200 -239 -200c-148 0 -225 93 -225 200c0 3 2 5 5 5h85c3 0 5 -2 5 -5c0 -54 42 -115 130 -115c82 0 144 50 144 115c0 79 -63 130 -144 130h-35c-3 0 -5 2 -5 5v75z" />
    <glyph glyph-name="four" unicode="4" horiz-adv-x="612" 
d="M385 704h84c3 0 5 -2 5 -5v-448c0 -3 2 -5 5 -5h111c3 0 5 -2 5 -5v-75c0 -3 -2 -5 -5 -5h-111c-3 0 -5 -2 -5 -5v-151c0 -3 -2 -5 -5 -5h-85c-3 0 -5 2 -5 5v151c0 3 -2 5 -5 5h-329c-3 0 -5 2 -5 5v70c0 10 2 13 3 15l332 448c3 5 7 5 10 5zM369 546l-215 -293
c-2 -3 1 -7 5 -7h215c3 0 5 2 5 5v294c0 5 -7 5 -10 1z" />
    <glyph glyph-name="five" unicode="5" horiz-adv-x="579" 
d="M65 335l44 362c1 6 4 7 7 7h375c3 0 5 -2 5 -5v-75c0 -3 -2 -5 -5 -5h-294c-3 0 -5 -3 -5 -5c-5 -41 -22 -165 -22 -165c-1 -6 3 -7 8 -3c14 11 58 43 122 43c146 0 244 -100 244 -247c0 -156 -89 -252 -244 -252c-185 0 -242 136 -242 200c0 3 2 5 5 5h92c3 0 5 -2 5 -5
c0 -34 33 -115 140 -115c87 0 149 63 149 167c0 94 -62 162 -149 162c-70 0 -110 -21 -141 -69c-2 -3 -8 -5 -11 -5h-78c-3 0 -5 2 -5 5z" />
    <glyph glyph-name="six" unicode="6" horiz-adv-x="588" 
d="M352 699l-111 -218c-2 -4 3 -9 7 -7c3 2 28 11 59 11c136 0 237 -98 237 -246c0 -145 -93 -250 -249 -250s-248 105 -248 250c0 54 17 105 38 145l167 315c2 4 4 5 7 5h88c3 0 7 -1 5 -5zM444 239c0 99 -48 165 -149 165c-100 0 -148 -66 -148 -165s48 -165 148 -165
c101 0 149 66 149 165z" />
    <glyph glyph-name="seven" unicode="7" horiz-adv-x="506" 
d="M478 699v-67c0 -10 -1 -13 -3 -18l-228 -609c-1 -3 -3 -5 -6 -5h-92c-3 0 -5 2 -4 5l236 609c1 3 -1 5 -4 5h-349c-3 0 -5 2 -5 5v75c0 3 2 5 5 5h445c3 0 5 -2 5 -5z" />
    <glyph glyph-name="eight" unicode="8" horiz-adv-x="591" 
d="M297 -10c-149 0 -239 83 -239 200c0 109 81 159 115 170c6 1 6 9 0 10c-23 7 -99 52 -99 146c0 113 90 198 223 198s223 -85 223 -198c0 -94 -76 -139 -99 -146c-6 -1 -6 -9 0 -10c34 -11 115 -61 115 -170c0 -117 -90 -200 -239 -200zM297 75c82 0 144 50 144 115
c0 79 -63 130 -144 130s-144 -51 -144 -130c0 -65 62 -115 144 -115zM425 516c0 59 -50 113 -128 113s-128 -54 -128 -113c0 -64 52 -111 128 -111s128 47 128 111z" />
    <glyph glyph-name="nine" unicode="9" horiz-adv-x="588" 
d="M239 4l111 218c2 4 -3 9 -7 7c-3 -2 -28 -11 -59 -11c-136 0 -237 98 -237 246c0 145 93 250 249 250s248 -105 248 -250c0 -54 -17 -105 -38 -145l-167 -315c-2 -4 -4 -5 -7 -5h-88c-3 0 -7 1 -5 5zM147 464c0 -99 48 -165 149 -165c100 0 148 66 148 165
s-48 165 -148 165c-101 0 -149 -66 -149 -165z" />
    <glyph glyph-name="colon" unicode=":" horiz-adv-x="251" 
d="M178 0h-120c-3 0 -5 2 -5 5v122c0 3 2 5 5 5h120c3 0 5 -2 5 -5v-122c0 -3 -2 -5 -5 -5zM178 374h-120c-3 0 -5 2 -5 5v122c0 3 2 5 5 5h120c3 0 5 -2 5 -5v-122c0 -3 -2 -5 -5 -5z" />
    <glyph glyph-name="semicolon" unicode=";" horiz-adv-x="251" 
d="M102 0h-44c-3 0 -5 2 -5 5v122c0 3 2 5 5 5h120c3 0 5 -2 5 -5v-121c0 -76 -51 -129 -125 -129c-3 0 -5 2 -5 5v55c0 3 2 5 5 5c20 0 49 18 49 53c0 3 -2 5 -5 5zM178 374h-120c-3 0 -5 2 -5 5v122c0 3 2 5 5 5h120c3 0 5 -2 5 -5v-122c0 -3 -2 -5 -5 -5z" />
    <glyph glyph-name="less" unicode="&#x3c;" horiz-adv-x="511" 
d="M16 251v56c0 2 1 4 3 5l448 193c4 2 7 -1 7 -5v-78c0 -2 -1 -3 -3 -4l-372 -164c-3 -1 -3 -5 0 -6l372 -160c2 -1 3 -2 3 -4v-78c0 -4 -3 -7 -7 -5l-448 189c-2 1 -3 3 -3 5v56z" />
    <glyph glyph-name="equal" unicode="=" horiz-adv-x="564" 
d="M506 101h-448c-3 0 -5 2 -5 5v80c0 3 2 5 5 5h448c3 0 5 -2 5 -5v-80c0 -3 -2 -5 -5 -5zM506 318h-448c-3 0 -5 2 -5 5v79c0 3 2 5 5 5h448c3 0 5 -2 5 -5v-79c0 -3 -2 -5 -5 -5z" />
    <glyph glyph-name="greater" unicode="&#x3e;" horiz-adv-x="511" 
d="M474 307v-56v-56c0 -2 -1 -4 -3 -5l-448 -189c-4 -2 -7 1 -7 5v78c0 2 1 3 3 4l372 160c3 1 3 5 0 6l-372 164c-2 1 -3 2 -3 4v78c0 4 3 7 7 5l448 -193c2 -1 3 -3 3 -5z" />
    <glyph glyph-name="question" unicode="?" horiz-adv-x="511" 
d="M25 521c0 113 91 193 221 193c144 0 234 -92 234 -205c0 -115 -73 -153 -162 -198c-13 -7 -16 -12 -18 -26v-71c0 -3 -2 -5 -5 -5h-85c-3 0 -5 2 -5 5v79c0 43 24 76 72 96c96 40 109 75 109 120c0 57 -47 120 -140 120c-80 0 -126 -51 -126 -108v-10c0 -3 -2 -5 -5 -5
h-85c-3 0 -5 2 -5 5v10zM312 0h-120c-3 0 -5 2 -5 5v122c0 3 2 5 5 5h120c3 0 5 -2 5 -5v-122c0 -3 -2 -5 -5 -5z" />
    <glyph glyph-name="at" unicode="@" horiz-adv-x="986" 
d="M430 -208c-263 0 -435 201 -378 492c49 284 264 430 509 430c222 0 421 -162 366 -455c-37 -200 -159 -269 -236 -269c-57 0 -80 56 -84 77c-1 3 -5 5 -8 1c-41 -53 -111 -78 -170 -78c-156 0 -223 108 -197 263c30 176 149 263 295 263c68 0 109 -40 119 -56
c3 -5 9 -3 11 2l14 39c1 3 5 5 8 5h74c3 0 5 -2 4 -5l-78 -380c-4 -19 2 -49 36 -49c64 0 127 80 150 202c47 250 -114 381 -329 381c-259 0 -389 -200 -423 -390c-37 -208 71 -411 327 -411c94 0 216 40 299 86c3 2 5 0 5 -3v1l-13 -63c-1 -3 -2 -6 -5 -8
c-55 -37 -179 -75 -296 -75zM326 253c-21 -108 14 -181 111 -181s157 73 178 181c23 120 -10 181 -107 181s-161 -74 -182 -181z" />
    <glyph glyph-name="A" unicode="A" horiz-adv-x="682" 
d="M281 704h123c3 0 5 -2 6 -5l233 -694c1 -3 -2 -5 -5 -5h-94c-3 0 -4 2 -5 5l-46 143c-1 4 -4 5 -7 5h-290c-3 0 -5 -2 -6 -5l-47 -143c-1 -3 -2 -5 -5 -5h-93c-3 0 -7 1 -6 5l236 694c1 3 3 5 6 5zM223 233h237c3 0 5 2 4 5l-117 366c-2 6 -8 6 -10 0l-118 -366
c-1 -3 1 -5 4 -5z" />
    <glyph glyph-name="B" unicode="B" horiz-adv-x="645" 
d="M68 699c0 3 2 5 5 5h333c109 0 184 -91 184 -200c0 -66 -40 -115 -79 -131c-5 -2 -5 -8 0 -10c47 -19 95 -93 95 -163c0 -119 -86 -200 -205 -200h-328c-3 0 -5 2 -5 5v694zM394 320h-226c-3 0 -5 -2 -5 -5v-225c0 -3 2 -5 5 -5h219c73 0 124 55 124 115
c0 59 -53 120 -117 120zM495 504c0 60 -37 116 -108 116h-219c-3 0 -5 -2 -5 -5v-205c0 -3 2 -5 5 -5h219c52 2 108 41 108 99z" />
    <glyph glyph-name="C" unicode="C" horiz-adv-x="683" 
d="M551 215c1 4 4 5 7 5h88c3 0 5 -1 5 -5c0 -66 -79 -225 -288 -225c-220 0 -316 150 -316 362s116 362 316 362c218 0 288 -170 288 -225c0 -4 -2 -5 -5 -5h-88c-3 0 -6 2 -7 5c-15 43 -56 140 -188 140c-140 0 -216 -104 -216 -277s76 -277 216 -277
c120 0 172 87 188 140z" />
    <glyph glyph-name="D" unicode="D" horiz-adv-x="688" 
d="M64 699c0 3 2 5 5 5h258c210 -1 313 -149 313 -359c0 -212 -103 -345 -313 -345h-258c-3 0 -5 2 -5 5v694zM327 619h-163c-3 0 -5 -2 -5 -5v-524c0 -3 2 -5 5 -5h163c134 0 213 90 213 260c0 167 -79 274 -213 274z" />
    <glyph glyph-name="E" unicode="E" horiz-adv-x="612" 
d="M63 699c0 3 2 5 5 5h481c3 0 5 -2 5 -5v-75c0 -3 -2 -5 -5 -5h-386c-3 0 -5 -2 -5 -5v-204c0 -3 2 -5 5 -5h345c3 0 5 -2 5 -5v-75c0 -3 -2 -5 -5 -5h-345c-3 0 -5 -2 -5 -5v-225c0 -3 2 -5 5 -5h386c3 0 5 -2 5 -5v-75c0 -3 -2 -5 -5 -5h-481c-3 0 -5 2 -5 5v694z" />
    <glyph glyph-name="F" unicode="F" horiz-adv-x="542" 
d="M69 699c0 3 2 5 5 5h445c3 0 5 -2 5 -5v-75c0 -3 -2 -5 -5 -5h-350c-3 0 -5 -2 -5 -5v-204c0 -3 2 -5 5 -5h309c3 0 5 -2 5 -5v-75c0 -3 -2 -5 -5 -5h-309c-3 0 -5 -2 -5 -5v-310c0 -3 -2 -5 -5 -5h-85c-3 0 -5 2 -5 5v694z" />
    <glyph glyph-name="G" unicode="G" horiz-adv-x="723" 
d="M660 5c0 -3 -2 -5 -5 -5h-73c-3 0 -6 1 -7 6l-10 70c0 4 -6 6 -9 2c-31 -42 -115 -88 -207 -88c-220 0 -316 150 -316 362s116 362 316 362c179 0 257 -101 286 -203c1 -4 -2 -5 -5 -5h-93c-3 0 -5 1 -6 5c-30 78 -98 118 -182 118c-140 0 -216 -104 -216 -277
s76 -277 216 -277s216 69 216 230c0 3 -2 5 -5 5h-206c-3 0 -5 2 -5 5v75c0 3 2 5 5 5h301c3 0 5 -2 5 -5v-385z" />
    <glyph glyph-name="H" unicode="H" horiz-adv-x="658" 
d="M490 704h85c3 0 5 -2 5 -5v-694c0 -3 -2 -5 -5 -5h-85c-3 0 -5 2 -5 5v310c0 3 -2 5 -5 5h-317c-3 0 -5 -2 -5 -4v-311c0 -3 -2 -5 -5 -5h-85c-3 0 -5 2 -5 5v694c0 3 2 5 5 5h85c3 0 5 -2 5 -5v-289c0 -3 2 -5 5 -5h317c3 0 5 2 5 5v289c0 3 2 5 5 5z" />
    <glyph glyph-name="J" unicode="J" horiz-adv-x="462" 
d="M7 220h85c3 0 5 -2 5 -5v-17c0 -56 9 -123 104 -123c94 0 104 67 104 123v501c0 3 2 5 5 5h85c3 0 5 -2 5 -5v-501c0 -115 -41 -208 -200 -208c-147 0 -198 93 -198 208v17c0 3 2 5 5 5z" />
    <glyph glyph-name="K" unicode="K" horiz-adv-x="623" 
d="M495 5l-232 353c-2 3 -4 2 -6 0l-90 -89c-3 -3 -4 -5 -4 -8v-256c0 -3 -2 -5 -5 -5h-85c-3 0 -5 2 -5 5v694c0 3 2 5 5 5h85c3 0 5 -2 5 -5v-299c0 -3 2 -4 4 -2l307 301c2 2 5 5 8 5h114c3 0 5 -3 3 -5l-269 -267c-2 -2 -2 -5 0 -8l275 -419c2 -2 0 -5 -3 -5h-99
c-3 0 -6 3 -8 5z" />
    <glyph glyph-name="L" unicode="L" horiz-adv-x="541" 
d="M69 5v694c0 3 2 5 5 5h85c3 0 5 -2 5 -5v-609c0 -3 2 -5 5 -5h350c3 0 5 -2 5 -5v-75c0 -3 -2 -5 -5 -5h-445c-3 0 -5 2 -5 5z" />
    <glyph glyph-name="M" unicode="M" horiz-adv-x="855" 
d="M425 99l178 600c2 4 4 5 7 5h162c3 0 5 -2 5 -5v-694c0 -3 -2 -5 -5 -5h-85c-3 0 -5 2 -5 5v599c0 7 -9 6 -10 1l-176 -600c-1 -3 -5 -5 -8 -5h-136c-3 0 -7 2 -8 5l-176 600c-2 6 -10 5 -10 -1v-599c0 -3 -2 -5 -5 -5h-85c-3 0 -5 2 -5 5v694c0 3 2 5 5 5h162
c3 0 5 -1 7 -5l178 -600c2 -5 8 -5 10 0z" />
    <glyph glyph-name="N" unicode="N" horiz-adv-x="709" 
d="M541 704h85c3 0 5 -2 5 -5v-694c0 -3 -2 -5 -5 -5h-147c-3 0 -6 2 -8 5l-303 601c-2 4 -10 4 -10 -2v-599c0 -3 -2 -5 -5 -5h-85c-3 0 -5 2 -5 5v694c0 3 2 5 5 5h148c3 0 5 -1 7 -5l303 -600c3 -6 10 -5 10 1v599c0 3 2 5 5 5z" />
    <glyph glyph-name="O" unicode="O" horiz-adv-x="712" 
d="M664 352c0 -212 -105 -362 -315 -362s-316 150 -316 362s106 362 316 362s315 -150 315 -362zM349 75c140 0 216 104 216 277s-76 277 -216 277s-216 -104 -216 -277s76 -277 216 -277z" />
    <glyph glyph-name="P" unicode="P" horiz-adv-x="602" 
d="M73 699c0 3 2 5 5 5h292c110 0 204 -95 204 -214s-94 -210 -204 -210h-197c-3 0 -5 -2 -5 -5v-270c0 -3 -2 -5 -5 -5h-85c-3 0 -5 2 -5 5v694zM358 619h-185c-3 0 -5 -2 -5 -5v-244c0 -3 2 -5 5 -5h185c63 0 121 56 121 125s-58 129 -121 129z" />
    <glyph glyph-name="Q" unicode="Q" horiz-adv-x="731" 
d="M594 -35l-64 63c-2 2 -4 1 -6 0c-45 -25 -98 -38 -161 -38c-210 0 -316 150 -316 362s106 362 316 362s315 -150 315 -362c0 -113 -30 -207 -89 -272c-2 -2 -2 -5 0 -7l109 -108c2 -2 1 -5 -2 -5h-94c-3 0 -6 3 -8 5zM457 204l59 -58c2 -2 3 -3 5 0c40 51 58 118 58 206
c0 173 -76 277 -216 277s-216 -104 -216 -277s76 -277 216 -277c35 0 66 6 93 19c4 2 2 5 0 7l-105 103c-2 2 -1 5 2 5h96c3 0 6 -3 8 -5z" />
    <glyph glyph-name="R" unicode="R" horiz-adv-x="609" 
d="M73 699c0 3 2 5 5 5h292c110 0 204 -95 204 -214c0 -87 -50 -159 -119 -191c-2 -1 -4 -3 -2 -7l128 -287c2 -5 -2 -5 -5 -5h-83c-3 0 -7 0 -10 5l-120 270c-1 3 -4 5 -7 5h-183c-3 0 -5 -2 -5 -5v-270c0 -3 -2 -5 -5 -5h-85c-3 0 -5 2 -5 5v694zM358 619h-185
c-3 0 -5 -2 -5 -5v-244c0 -3 2 -5 5 -5h189c61 2 117 57 117 125c0 69 -58 129 -121 129z" />
    <glyph glyph-name="S" unicode="S" horiz-adv-x="610" 
d="M441 511c0 67 -62 118 -151 118c-79 0 -144 -49 -144 -116c0 -82 86 -95 155 -103c131 -15 267 -46 267 -212c0 -100 -73 -208 -267 -208c-173 0 -267 95 -267 203c0 3 2 5 5 5h89c3 0 6 -3 6 -6c0 -50 54 -117 167 -117c106 0 167 57 167 123c0 90 -80 108 -167 117
c-112 12 -255 43 -255 198c0 128 122 201 244 201c127 0 245 -66 251 -203c0 -3 -2 -5 -5 -5h-90c-3 0 -5 2 -5 5z" />
    <glyph glyph-name="T" unicode="T" horiz-adv-x="542" 
d="M216 5v610c-1 2 -3 4 -5 4h-193c-3 0 -5 2 -5 5v75c0 3 2 5 5 5h491c3 0 5 -2 5 -5v-75c0 -3 -2 -5 -5 -5h-193c-3 0 -5 -2 -5 -5v-609c0 -3 -2 -5 -5 -5h-85c-3 0 -5 2 -5 5z" />
    <glyph glyph-name="U" unicode="U" horiz-adv-x="621" 
d="M148 699v-460c0 -85 70 -164 156 -164c85 0 154 79 154 164v460c0 3 2 5 5 5h85c3 0 5 -2 5 -5v-460c0 -139 -110 -249 -249 -249s-251 110 -251 249v460c0 3 2 5 5 5h85c3 0 5 -2 5 -5z" />
    <glyph glyph-name="V" unicode="V" horiz-adv-x="685" 
d="M408 0h-127c-3 0 -5 2 -6 5l-236 694c-1 4 3 5 6 5h93c3 0 4 -2 5 -5l196 -600c2 -5 8 -5 10 0l193 600c1 3 2 5 5 5h94c3 0 6 -2 5 -5l-233 -694c-1 -3 -2 -5 -5 -5z" />
    <glyph glyph-name="W" unicode="W" horiz-adv-x="948" 
d="M563 699l124 -599c1 -6 9 -6 10 0l110 599c1 3 2 5 5 5h91c3 0 7 -1 6 -5l-138 -694c-1 -3 -3 -5 -6 -5h-152c-3 0 -4 2 -5 5l-129 598c-1 5 -9 5 -10 0l-129 -598c-1 -3 -2 -5 -5 -5h-152c-3 0 -5 2 -6 5l-138 694c-1 4 3 5 6 5h91c3 0 4 -2 5 -5l110 -599
c1 -6 9 -6 10 0l124 599c1 3 2 5 5 5h168c3 0 4 -2 5 -5z" />
    <glyph glyph-name="X" unicode="X" horiz-adv-x="646" 
d="M608 0h-102c-3 0 -5 2 -7 5l-172 264c-3 4 -7 4 -10 0c-51 -81 -171 -264 -171 -264c-2 -3 -5 -5 -8 -5h-101c-3 0 -5 2 -3 5l230 343c2 3 2 5 0 8l-230 343c-2 3 0 5 3 5h101c3 0 6 -2 8 -5l171 -264c3 -4 7 -4 10 0l172 264c3 4 7 5 10 5h99c3 0 5 -2 3 -5l-230 -343
c-2 -3 -2 -5 0 -8l230 -343c2 -3 0 -5 -3 -5z" />
    <glyph glyph-name="Y" unicode="Y" horiz-adv-x="659" 
d="M619 699l-238 -386c-3 -5 -3 -7 -3 -10v-298c0 -3 -2 -5 -5 -5h-85c-3 0 -5 2 -5 5v298c0 3 -2 5 -5 10l-236 386c-2 3 0 5 3 5h101c3 0 6 -2 8 -5l171 -285c3 -4 7 -4 10 0l172 285c3 4 7 5 10 5h99c3 0 5 -2 3 -5z" />
    <glyph glyph-name="Z" unicode="Z" horiz-adv-x="565" 
d="M25 5v70c0 10 1 10 3 13l381 525c2 3 1 6 -2 6h-377c-3 0 -5 2 -5 5v75c0 3 2 5 5 5h490c3 0 5 -2 5 -5v-70c0 -10 0 -10 -2 -13l-383 -526c-2 -3 -1 -5 2 -5h378c3 0 5 -2 5 -5v-75c0 -3 -2 -5 -5 -5h-490c-3 0 -5 2 -5 5z" />
    <glyph glyph-name="bracketleft" unicode="[" horiz-adv-x="319" 
d="M128 -138h158c3 0 5 -1 5 -4v-51c0 -3 -2 -5 -5 -5h-228c-3 0 -5 2 -5 5v892c0 3 2 5 5 5h228c3 0 5 -2 5 -5v-51c0 -3 -2 -4 -5 -4h-158c-3 0 -5 -2 -5 -5v-772c0 -3 2 -5 5 -5z" />
    <glyph glyph-name="backslash" unicode="\" horiz-adv-x="505" 
d="M325 3l-234 694c-1 3 1 7 5 7h75c2 0 4 -1 5 -3l233 -694c1 -3 -1 -7 -5 -7h-74c-2 0 -4 1 -5 3z" />
    <glyph glyph-name="bracketright" unicode="]" horiz-adv-x="319" 
d="M58 -138h158c3 0 5 2 5 5v772c0 3 -2 5 -5 5h-158c-3 0 -5 1 -5 4v51c0 3 2 5 5 5h228c3 0 5 -2 5 -5v-892c0 -3 -2 -5 -5 -5h-228c-3 0 -5 2 -5 5v51c0 3 2 4 5 4z" />
    <glyph glyph-name="asciicircum" unicode="^" horiz-adv-x="511" 
d="M459 360h-90c-2 0 -4 1 -5 3l-106 230c-3 5 -7 5 -10 0l-106 -230c-1 -2 -3 -3 -5 -3h-90c-4 0 -7 3 -5 7l149 332c1 3 4 5 7 5h110c3 0 6 -2 7 -5l149 -332c2 -4 -1 -7 -5 -7z" />
    <glyph glyph-name="underscore" unicode="_" horiz-adv-x="632" 
d="M562 0h-497c-3 0 -5 2 -5 5v75c0 3 2 5 5 5h497c3 0 5 -2 5 -5v-75c0 -3 -2 -5 -5 -5z" />
    <glyph glyph-name="grave" unicode="`" horiz-adv-x="242" 
d="M186 589h-57c-5 0 -9 4 -11 7l-72 101c-2 4 1 7 5 7h87c6 0 9 -4 10 -7l43 -101c2 -4 -1 -7 -5 -7z" />
    <glyph glyph-name="a" unicode="a" horiz-adv-x="570" 
d="M560 80v-75c0 -3 -2 -5 -5 -5h-29c-57 0 -91 14 -106 46c-2 5 -7 4 -9 2c-24 -25 -86 -58 -178 -58c-134 0 -200 65 -200 160c0 87 73 152 220 152h112c22 0 33 19 33 33c0 41 -10 96 -129 96c-86 0 -125 -40 -125 -91c0 -3 -2 -5 -5 -5h-85c-3 0 -5 2 -5 5
c0 118 107 176 220 176c138 0 224 -59 224 -181v-217c0 -15 12 -33 33 -33h29c3 0 5 -2 5 -5zM398 208v14c0 3 -2 5 -5 5h-140c-106 0 -125 -42 -125 -77c0 -36 25 -75 105 -75c121 0 163 72 165 133z" />
    <glyph glyph-name="b" unicode="b" horiz-adv-x="608" 
d="M153 0h-75c-3 0 -5 2 -5 5v694c0 3 2 5 5 5h85c3 0 5 -2 5 -5v-238c0 -4 5 -8 10 -2c12 14 73 57 143 57c146 0 238 -107 238 -263s-92 -263 -238 -263c-50 0 -116 30 -143 57c-3 3 -8 4 -10 -2l-10 -40c-1 -3 -2 -5 -5 -5zM464 253c0 104 -57 178 -153 178
c-91 0 -143 -74 -143 -178s52 -178 143 -178c96 0 153 74 153 178z" />
    <glyph glyph-name="c" unicode="c" horiz-adv-x="568" 
d="M524 335h-89c-3 0 -5 2 -6 5c-22 59 -70 91 -138 91c-95 0 -152 -74 -152 -178s57 -178 152 -178c68 0 116 32 138 91c1 3 3 5 6 5h89c3 0 6 -1 5 -5c-28 -111 -111 -176 -238 -176c-157 0 -247 107 -247 263c0 157 90 263 247 263c127 0 211 -66 238 -176
c1 -4 -2 -5 -5 -5z" />
    <glyph glyph-name="d" unicode="d" horiz-adv-x="597" 
d="M514 0h-75c-3 0 -4 2 -5 5l-10 40c-2 6 -7 5 -10 2c-27 -27 -93 -57 -143 -57c-146 0 -238 107 -238 263s92 263 238 263c70 0 131 -43 143 -57c5 -6 10 -2 10 2v238c0 3 2 5 5 5h85c3 0 5 -2 5 -5v-694c0 -3 -2 -5 -5 -5zM128 253c0 -104 57 -178 153 -178
c91 0 143 74 143 178s-52 178 -143 178c-96 0 -153 -74 -153 -178z" />
    <glyph glyph-name="e" unicode="e" horiz-adv-x="553" 
d="M139 219c-3 0 -5 -2 -5 -5c0 -73 53 -139 142 -139c71 0 106 30 127 70c2 4 4 5 7 5h89c3 0 6 -1 5 -5c-26 -98 -115 -155 -228 -155c-150 0 -243 107 -243 263c0 157 88 263 243 263c156 0 244 -107 244 -263c0 -10 -1 -21 -3 -29c-1 -3 -2 -5 -5 -5h-373zM416 299
c0 57 -41 132 -140 132c-97 0 -142 -85 -142 -132c0 -3 3 -5 5 -5h272c3 0 5 2 5 5z" />
    <glyph glyph-name="f" unicode="f" horiz-adv-x="345" 
d="M326 699v-75c0 -3 -2 -5 -5 -5h-66c-30 0 -47 -19 -47 -50v-58c0 -3 2 -5 5 -5h108c3 0 5 -2 5 -5v-65c0 -3 -2 -5 -5 -5h-108c-3 0 -5 -2 -5 -5v-421c0 -3 -2 -5 -5 -5h-85c-3 0 -5 2 -5 5v421c0 3 -2 5 -5 5h-89c-3 0 -5 2 -5 5v65c0 3 2 5 5 5h89c3 0 5 2 5 5v75
c0 82 48 120 141 118h67c3 0 5 -2 5 -5z" />
    <glyph glyph-name="g" unicode="g" horiz-adv-x="568" 
d="M154 -59c8 -23 44 -64 127 -64c105 0 142 72 142 142v27c0 4 -6 8 -10 2c-11 -14 -73 -58 -143 -58c-136 0 -238 107 -238 263s92 263 238 263c50 0 115 -28 143 -56c3 -3 8 -5 10 1l10 40c1 3 2 5 5 5h75c3 0 5 -2 5 -5v-482c0 -135 -96 -227 -237 -227
c-123 0 -216 69 -224 149c0 3 2 5 5 5h87c3 0 4 -2 5 -5zM127 253c0 -104 57 -178 153 -178c91 0 143 74 143 178s-52 178 -143 178c-96 0 -153 -74 -153 -178z" />
    <glyph glyph-name="h" unicode="h" horiz-adv-x="568" 
d="M65 704h85c3 0 5 -2 5 -5v-242c0 -5 7 -7 11 -2c30 38 79 61 131 61c155 0 218 -106 218 -236v-275c0 -3 -2 -5 -5 -5h-85c-3 0 -5 2 -5 5v275c0 76 -34 151 -133 151c-84 0 -132 -73 -132 -151v-275c0 -3 -2 -5 -5 -5h-85c-3 0 -5 2 -5 5v694c0 3 2 5 5 5z" />
    <glyph glyph-name="i" unicode="i" horiz-adv-x="246" 
d="M168 501v-496c0 -3 -2 -5 -5 -5h-85c-3 0 -5 2 -5 5v496c0 3 2 5 5 5h85c3 0 5 -2 5 -5zM178 699v-105c0 -3 -2 -5 -5 -5h-105c-3 0 -5 2 -5 5v105c0 3 2 5 5 5h105c3 0 5 -2 5 -5z" />
    <glyph glyph-name="j" unicode="j" horiz-adv-x="300" 
d="M236 699v-105c0 -3 -2 -5 -5 -5h-105c-3 0 -5 2 -5 5v105c0 3 2 5 5 5h105c3 0 5 -2 5 -5zM13 -193v75c0 3 2 5 5 5h59c40 0 54 19 54 50v564c0 3 2 5 5 5h85c3 0 5 -2 5 -5v-581c0 -82 -48 -120 -131 -118h-77c-3 0 -5 2 -5 5z" />
    <glyph glyph-name="k" unicode="k" horiz-adv-x="568" 
d="M541 0h-90c-3 0 -7 2 -9 5l-159 273c-2 3 -4 3 -7 0l-114 -98c-2 -2 -2 -3 -2 -6v-169c0 -3 -2 -5 -5 -5h-85c-3 0 -5 2 -5 5v694c0 3 2 5 5 5h85c3 0 5 -2 5 -5v-392c0 -3 4 -5 7 -2l230 196c6 5 12 5 15 5h123c3 0 5 -3 3 -5l-186 -158c-2 -2 -2 -5 0 -8l193 -330
c1 -2 -1 -5 -4 -5z" />
    <glyph glyph-name="l" unicode="l" horiz-adv-x="240" 
d="M163 699v-694c0 -3 -2 -5 -5 -5h-85c-3 0 -5 2 -5 5v694c0 3 2 5 5 5h85c3 0 5 -2 5 -5z" />
    <glyph glyph-name="m" unicode="m" horiz-adv-x="872" 
d="M68 506h75c3 0 4 -2 5 -5l10 -45c2 -6 10 -4 12 0c18 36 70 60 119 60c70 0 98 -15 145 -60c5 -4 7 -5 12 0c38 44 103 60 151 60c130 0 197 -86 197 -236v-275c0 -3 -2 -5 -5 -5h-85c-3 0 -5 2 -5 5v275c0 76 -13 151 -112 151c-94 0 -111 -73 -111 -151v-275
c0 -2 -1 -3 -2 -4s-2 -1 -3 -1h-85h-1c-2 0 -3 1 -3 2c-1 1 -1 2 -1 3v275c0 78 -17 151 -112 151c-84 0 -111 -73 -111 -151v-275c0 -3 -2 -5 -5 -5h-85c-3 0 -5 2 -5 5v496c0 3 2 5 5 5z" />
    <glyph glyph-name="n" unicode="n" horiz-adv-x="573" 
d="M65 506h75c3 0 4 -2 5 -5l10 -45c2 -6 9 -4 11 -1c21 29 64 61 131 61c145 0 218 -106 218 -236v-275c0 -3 -2 -5 -5 -5h-85c-3 0 -5 2 -5 5v275c0 76 -34 151 -133 151c-84 0 -132 -73 -132 -151v-275c0 -3 -2 -5 -5 -5h-85c-3 0 -5 2 -5 5v496c0 3 2 5 5 5z" />
    <glyph glyph-name="o" unicode="o" horiz-adv-x="589" 
d="M540 253c0 -156 -92 -263 -248 -263c-157 0 -248 107 -248 263c0 157 91 263 248 263c156 0 248 -107 248 -263zM445 253c0 104 -57 178 -153 178c-95 0 -153 -74 -153 -178s58 -178 153 -178c96 0 153 74 153 178z" />
    <glyph glyph-name="p" unicode="p" horiz-adv-x="597" 
d="M68 506h75c3 0 4 -2 5 -5l10 -41c2 -6 8 -4 10 -1c26 29 93 57 143 57c146 0 238 -107 238 -263s-92 -263 -238 -263c-70 0 -131 43 -143 57c-5 6 -10 2 -10 -2v-238c0 -3 -2 -5 -5 -5h-85c-3 0 -5 2 -5 5v694c0 3 2 5 5 5zM454 253c0 104 -57 178 -153 178
c-91 0 -143 -74 -143 -178s52 -178 143 -178c96 0 153 74 153 178z" />
    <glyph glyph-name="q" unicode="q" horiz-adv-x="597" 
d="M439 506h75c3 0 5 -2 5 -5v-694c0 -3 -2 -5 -5 -5h-85c-3 0 -5 2 -5 5v238c0 4 -5 8 -10 2c-12 -14 -73 -57 -143 -57c-146 0 -238 107 -238 263s92 263 238 263c50 0 117 -28 143 -57c2 -3 8 -5 10 1l10 41c1 3 2 5 5 5zM128 253c0 -104 57 -178 153 -178
c91 0 143 74 143 178s-52 178 -143 178c-96 0 -153 -74 -153 -178z" />
    <glyph glyph-name="r" unicode="r" horiz-adv-x="374" 
d="M341 431h-51c-84 0 -132 -73 -132 -151v-275c0 -3 -2 -5 -5 -5h-85c-3 0 -5 2 -5 5v496c0 3 2 5 5 5h75c3 0 4 -2 5 -5l10 -45c2 -6 8 -4 11 -1c34 34 71 61 121 61h51c3 0 5 -2 5 -5v-75c0 -3 -2 -5 -5 -5z" />
    <glyph glyph-name="s" unicode="s" horiz-adv-x="536" 
d="M468 335h-86c-3 0 -5 2 -5 5c0 55 -44 91 -125 91c-75 0 -108 -33 -108 -64c0 -57 72 -58 122 -65c100 -13 220 -23 220 -151c0 -114 -95 -161 -220 -161c-152 0 -226 80 -226 176c0 3 2 5 5 5h84c3 0 6 -2 6 -5c0 -50 51 -91 131 -91c51 0 125 11 125 76
c0 57 -83 61 -125 66c-96 11 -217 26 -217 150c0 82 79 149 203 149c123 0 220 -58 220 -176c0 -3 -1 -5 -4 -5z" />
    <glyph glyph-name="t" unicode="t" horiz-adv-x="355" 
d="M326 80v-75c0 -3 -2 -5 -5 -5h-77c-83 -2 -131 36 -131 118v308c0 3 -2 5 -5 5h-89c-3 0 -5 2 -5 5v65c0 3 2 5 5 5h89c3 0 5 2 5 5v135c0 3 2 5 5 5h85c3 0 5 -2 5 -5v-135c0 -3 2 -5 5 -5h108c3 0 5 -2 5 -5v-65c0 -3 -2 -5 -5 -5h-108c-3 0 -5 -2 -5 -5v-291
c0 -31 14 -50 54 -50h59c3 0 5 -2 5 -5z" />
    <glyph glyph-name="u" unicode="u" horiz-adv-x="559" 
d="M498 0h-75c-3 0 -4 2 -5 5l-10 45c-2 6 -9 4 -11 1c-18 -26 -67 -61 -131 -61c-165 0 -218 106 -218 236v275c0 3 2 5 5 5h85c3 0 5 -2 5 -5v-275c0 -76 34 -151 133 -151c84 0 132 73 132 151v275c0 3 2 5 5 5h85c3 0 5 -2 5 -5v-496c0 -3 -2 -5 -5 -5z" />
    <glyph glyph-name="v" unicode="v" horiz-adv-x="568" 
d="M340 0h-127c-3 0 -5 2 -6 5l-169 496c-1 4 3 5 6 5h91c3 0 4 -2 5 -5l131 -402c2 -5 8 -5 10 0l132 402c1 3 2 5 5 5h91c3 0 6 -2 5 -5l-169 -496c-1 -3 -2 -5 -5 -5z" />
    <glyph glyph-name="w" unicode="w" horiz-adv-x="810" 
d="M645 0h-127c-3 0 -4 2 -5 5l-97 399c-1 5 -9 5 -10 0l-96 -399c-1 -3 -2 -5 -5 -5h-127c-3 0 -5 2 -6 5l-119 496c-1 4 3 5 6 5h85c3 0 4 -2 5 -5l87 -402c1 -5 9 -5 10 0l99 402c1 3 2 5 5 5h123c3 0 4 -2 5 -5l99 -402c1 -5 9 -5 10 0l87 402c1 3 2 5 5 5h85
c3 0 7 -1 6 -5l-119 -496c-1 -3 -3 -5 -6 -5z" />
    <glyph glyph-name="x" unicode="x" horiz-adv-x="533" 
d="M506 0h-101c-3 0 -6 2 -8 5l-126 168c-3 3 -5 3 -8 0l-127 -168c-3 -4 -5 -5 -8 -5h-99c-3 0 -4 3 -2 5l181 240c2 3 2 7 0 10l-181 246c-2 3 -1 5 2 5h96c3 0 5 -1 8 -5l129 -173c3 -4 7 -4 10 0l129 173c2 3 5 5 8 5h96c3 0 5 -2 3 -5l-183 -246c-2 -3 -2 -7 0 -10
l183 -240c2 -2 1 -5 -2 -5z" />
    <glyph glyph-name="y" unicode="y" horiz-adv-x="541" 
d="M37 -118c0 3 2 5 5 5h113c59 0 77 38 59 91l-9 27l-169 496c-1 4 3 5 6 5h91c3 0 4 -2 5 -5l131 -402c2 -5 8 -5 10 0l132 402c1 3 2 5 5 5h91c3 0 6 -2 5 -5l-171 -501l-29 -87c-29 -81 -59 -111 -140 -111h-130c-3 0 -5 2 -5 5v75z" />
    <glyph glyph-name="z" unicode="z" horiz-adv-x="478" 
d="M35 5v75c0 3 2 7 4 10l268 323c2 2 1 8 -4 8h-252c-3 0 -5 2 -5 5v75c0 3 2 5 5 5h369c3 0 5 -2 5 -5v-75c0 -3 -1 -6 -4 -10l-266 -323c-3 -3 0 -8 4 -8h274c3 0 5 -2 5 -5v-75c0 -3 -2 -5 -5 -5h-393c-3 0 -5 2 -5 5z" />
    <glyph glyph-name="braceleft" unicode="{" horiz-adv-x="468" 
d="M375 -142v-51c0 -3 -2 -5 -5 -5h-55c-95 0 -124 46 -124 141v227c0 29 -24 53 -53 53h-55c-3 0 -5 2 -5 5v50c0 3 2 5 5 5h55c28 0 53 24 53 54v225c0 95 29 142 124 142h55c3 0 5 -2 5 -5v-51c0 -3 -2 -4 -5 -4h-55c-29 0 -54 -25 -54 -54v-223c0 -84 -34 -101 -59 -112
c-2 -1 -2 -3 0 -4c23 -10 59 -30 59 -111v-224c0 -29 25 -54 54 -54h55c3 0 5 -1 5 -4z" />
    <glyph glyph-name="bar" unicode="|" horiz-adv-x="201" 
d="M127 -198h-69c-2 0 -4 2 -4 5v892c0 3 2 5 4 5h69c3 0 5 -2 5 -5v-892c0 -3 -2 -5 -5 -5z" />
    <glyph glyph-name="braceright" unicode="}" horiz-adv-x="468" 
d="M78 -193v51c0 3 2 4 5 4h55c29 0 54 25 54 54v224c0 81 36 101 59 111c2 1 2 3 0 4c-25 11 -59 28 -59 112v223c0 29 -25 54 -54 54h-55c-3 0 -5 1 -5 4v51c0 3 2 5 5 5h55c95 0 124 -47 124 -142v-225c0 -30 25 -54 53 -54h55c3 0 5 -2 5 -5v-50c0 -3 -2 -5 -5 -5h-55
c-29 0 -53 -24 -53 -53v-227c0 -95 -29 -141 -124 -141h-55c-3 0 -5 2 -5 5z" />
    <glyph glyph-name="asciitilde" unicode="~" horiz-adv-x="511" 
d="M477 323v-27c0 -59 -48 -106 -122 -106c-77 0 -162 70 -210 70c-18 0 -37 -16 -37 -35v-30c0 -3 -2 -5 -5 -5l-75 20c-3 1 -5 2 -5 5v25c0 61 47 108 122 108c78 0 160 -71 210 -71c19 0 37 16 37 34v32c0 3 2 5 5 5l75 -20c3 -1 5 -2 5 -5z" />
    <glyph glyph-name="DEL" horiz-adv-x="265" 
 />
    <glyph glyph-name="dagger" unicode="&#x2020;" horiz-adv-x="558" 
d="M28 506h196c3 0 5 2 5 5v189c0 3 2 5 5 5h85c3 0 5 -2 5 -5v-189c0 -3 2 -5 5 -5h196c3 0 5 -2 5 -5v-85c0 -3 -2 -5 -5 -5h-196c-3 0 -5 -2 -5 -5v-599c0 -3 -2 -5 -5 -5h-85c-3 0 -5 2 -5 5v599c0 3 -2 5 -5 5h-196c-3 0 -5 2 -5 5v85c0 3 2 5 5 5z" />
    <glyph glyph-name="degree" unicode="&#xb0;" horiz-adv-x="380" 
d="M33 560c0 86 68 155 154 155s155 -69 155 -155s-69 -154 -155 -154s-154 68 -154 154zM95 560c0 -51 41 -92 92 -92c52 0 93 41 93 92c0 52 -41 93 -93 93c-51 0 -92 -41 -92 -93z" />
    <glyph glyph-name="cent" unicode="&#xa2;" horiz-adv-x="537" 
d="M512 335h-90c-3 0 -4 2 -5 5c-17 43 -45 72 -87 84c-3 1 -8 0 -8 -5v-332c0 -3 3 -6 7 -5c42 12 72 40 88 84c1 3 2 5 5 5h90c3 0 6 -1 5 -5c-25 -98 -91 -159 -191 -173c-3 0 -5 -1 -5 -4v-84c0 -3 -2 -5 -5 -5h-69c-2 0 -4 2 -4 5v83c0 2 0 4 -3 5
c-133 15 -208 117 -208 260s75 244 208 260c2 1 3 2 3 5v84c0 3 2 5 4 5h69c3 0 5 -2 5 -5v-86c0 -2 1 -3 2 -4c102 -13 170 -76 194 -172c1 -4 -2 -5 -5 -5zM127 253c0 -88 38 -153 109 -172c4 -1 7 2 7 5v334c0 4 -3 6 -7 5c-71 -19 -109 -85 -109 -172z" />
    <glyph glyph-name="sterling" unicode="&#xa3;" horiz-adv-x="616" 
d="M573 0h-535c-3 0 -5 2 -5 5v75c0 3 2 5 5 5h34c40 0 54 19 54 50v181c0 3 -2 5 -5 5h-83c-3 0 -5 2 -5 5v75c0 3 2 5 5 5h83c3 0 5 2 5 5v102c0 128 99 201 221 201c127 0 225 -66 231 -203c0 -3 -2 -5 -5 -5h-90c-3 0 -5 2 -5 5c0 67 -42 118 -131 118
c-79 0 -126 -49 -126 -116v-102c0 -3 2 -5 5 -5h126c3 0 5 -2 5 -5v-75c0 -3 -2 -5 -5 -5h-126c-3 0 -5 -2 -5 -5v-181c0 -22 -6 -35 -13 -45c-2 -3 -1 -5 2 -5h268c3 0 5 2 5 5v106c0 3 2 5 5 5h85c3 0 5 -2 5 -5v-191c0 -3 -2 -5 -5 -5z" />
    <glyph glyph-name="section" unicode="&#xa7;" horiz-adv-x="615" 
d="M171 -5c0 -67 52 -118 141 -118c79 0 124 39 124 86c0 82 -106 98 -173 116c-127 33 -249 71 -226 235c6 45 27 89 64 120c3 3 3 5 0 8c-19 26 -30 58 -30 101c0 108 102 171 224 171c127 0 235 -66 241 -203c0 -3 -2 -5 -5 -5h-90c-3 0 -5 2 -5 5c0 67 -52 118 -141 118
c-79 0 -124 -39 -124 -86c0 -82 106 -98 173 -116c127 -33 249 -71 226 -235c-8 -47 -27 -90 -64 -121c-2 -2 -3 -4 0 -8c18 -26 30 -59 30 -100c0 -108 -102 -171 -224 -171c-127 0 -235 66 -241 203c0 3 2 5 5 5h90c3 0 5 -2 5 -5zM331 338c-42 11 -91 21 -134 38
c-35 -13 -55 -39 -61 -75c-13 -90 55 -112 140 -133c42 -11 90 -21 134 -38c35 12 55 38 61 75c13 90 -55 112 -140 133z" />
    <glyph glyph-name="bullet" unicode="&#x2022;" horiz-adv-x="771" 
d="M120 253c0 146 117 263 263 263s263 -117 263 -263s-117 -263 -263 -263s-263 117 -263 263z" />
    <glyph glyph-name="paragraph" unicode="&#xb6;" horiz-adv-x="571" 
d="M220 -193v504c0 3 -2 5 -5 5c-101 0 -182 88 -182 194c0 102 77 189 179 194h288c3 0 5 -2 5 -5v-892c0 -3 -2 -5 -5 -5h-85c-3 0 -5 2 -5 5v817c0 3 -2 5 -5 5h-85c-3 0 -5 -2 -5 -5v-817c0 -3 -2 -5 -5 -5h-85c-3 0 -5 2 -5 5z" />
    <glyph glyph-name="germandbls" unicode="&#xdf;" horiz-adv-x="558" 
d="M275 402h18c57 0 118 32 118 114c0 81 -64 113 -143 113c-82 0 -113 -69 -113 -119v-505c0 -3 -2 -5 -5 -5h-85c-3 0 -5 2 -5 5v505c0 103 76 204 208 204c152 0 232 -86 232 -198c0 -63 -40 -124 -97 -152c-4 -2 -4 -6 0 -7c44 -12 118 -77 118 -159
c0 -131 -76 -208 -240 -208h-29c-3 0 -5 2 -5 5v74c0 3 2 5 5 5h29c95 0 146 42 146 124c0 81 -77 120 -134 120h-18c-3 0 -5 2 -5 5v74c0 3 2 5 5 5z" />
    <glyph glyph-name="registered.001" 
d="M456 699v-694c0 -3 -2 -5 -5 -5h-411c-3 0 -5 2 -5 5v694c0 3 2 5 5 5h411c3 0 5 -2 5 -5zM246 375l173 306h-346zM73 24h346l-173 305zM259 352l173 -304v608c-57 -99 -118 -205 -173 -304zM60 47l173 305l-173 305v-610z" />
    <glyph glyph-name="copyright.001" 
d="M456 699v-694c0 -3 -2 -5 -5 -5h-411c-3 0 -5 2 -5 5v694c0 3 2 5 5 5h411c3 0 5 -2 5 -5zM246 375l173 306h-346zM73 24h346l-173 305zM259 352l173 -304v608c-57 -99 -118 -205 -173 -304zM60 47l173 305l-173 305v-610z" />
    <glyph glyph-name="trademark" unicode="&#x2122;" horiz-adv-x="446" 
d="M301 542l39 157c1 3 3 5 6 5h56c3 0 5 -2 5 -5v-188c0 -3 -2 -5 -5 -5h-26c-3 0 -5 2 -5 5v154c0 3 -4 4 -5 0l-40 -154c-1 -3 -3 -5 -6 -5h-43c-3 0 -5 2 -6 5l-40 154c-1 4 -5 3 -5 0v-154c0 -3 -2 -5 -5 -5h-26c-3 0 -5 2 -5 5v188c0 3 2 5 5 5h56c3 0 5 -2 6 -5
l39 -157c1 -3 4 -3 5 0zM171 668h-48c-3 0 -5 -2 -5 -5v-152c0 -3 -2 -5 -5 -5h-26c-3 0 -5 2 -5 5v152c0 3 -2 5 -5 5h-47c-3 0 -5 2 -5 5v26c0 3 2 5 4 5h142c3 0 5 -2 5 -5v-26c0 -3 -2 -5 -5 -5z" />
    <glyph glyph-name="acute" unicode="&#xb4;" horiz-adv-x="242" 
d="M108 589h-57c-4 0 -7 3 -5 7l43 101c1 3 4 7 10 7h87c4 0 7 -3 5 -7l-72 -101c-2 -3 -6 -7 -11 -7z" />
    <glyph glyph-name="dieresis" unicode="&#xa8;" horiz-adv-x="424" 
d="M140 699v-104c0 -3 -2 -5 -5 -5h-105c-3 0 -5 2 -5 5v104c0 3 2 5 5 5h105c3 0 5 -2 5 -5zM384 699v-104c0 -3 -2 -5 -5 -5h-105c-3 0 -5 2 -5 5v104c0 3 2 5 5 5h105c3 0 5 -2 5 -5z" />
    <glyph glyph-name="notequal" unicode="&#x2260;" horiz-adv-x="511" 
d="M10 7l63 80c3 4 0 9 -4 9h-45c-3 0 -5 2 -5 5v90c0 3 2 5 5 5h131c2 0 4 1 6 4l81 103c3 4 0 9 -4 9h-214c-3 0 -5 2 -5 5v91c0 3 2 5 5 5h301c3 0 5 2 6 4l68 86c1 2 3 3 5 3h75c4 0 6 -4 5 -7l-62 -78c-2 -3 0 -8 4 -8h45c3 0 5 -2 5 -5v-91c0 -3 -2 -5 -5 -5h-130
c-3 0 -6 -2 -8 -5l-82 -103c-2 -3 0 -8 4 -8h216c3 0 5 -2 5 -5v-90c0 -3 -2 -5 -5 -5h-301c-3 0 -5 -3 -6 -4l-70 -89c-1 -2 -3 -3 -5 -3h-74c-4 0 -6 4 -5 7z" />
    <glyph glyph-name="infinity" unicode="&#x221e;" horiz-adv-x="896" 
d="M570 191l-118 94c-3 3 -7 3 -10 0l-122 -94c-28 -21 -65 -40 -108 -40c-101 0 -180 82 -180 184c0 99 79 181 180 181c41 0 87 -15 116 -40l114 -98c3 -3 7 -3 10 0l109 98c29 26 79 40 117 40c101 0 181 -82 181 -181c0 -102 -80 -184 -181 -184c-40 0 -79 17 -108 40z
M678 446c-26 0 -53 -7 -69 -21l-112 -86c-3 -3 -3 -5 0 -8l112 -85c22 -16 45 -25 69 -25c63 0 113 50 113 114c0 61 -50 111 -113 111zM212 446c-63 0 -112 -50 -112 -111c0 -64 49 -114 112 -114c26 0 48 10 65 24l115 86c3 2 3 5 0 8l-110 85c-16 13 -42 22 -70 22z" />
    <glyph glyph-name="plusminus" unicode="&#xb1;" horiz-adv-x="632" 
d="M562 0h-497c-3 0 -5 2 -5 5v75c0 3 2 5 5 5h497c3 0 5 -2 5 -5v-75c0 -3 -2 -5 -5 -5zM355 400v-198c0 -3 -2 -5 -5 -5h-84c-3 0 -5 2 -5 5v198c0 3 -2 5 -5 5h-191c-3 0 -5 2 -5 5v80c0 3 2 5 5 5h191c3 0 5 2 5 5v198c0 3 2 5 5 5h84c3 0 5 -2 5 -5v-198
c0 -3 2 -5 5 -5h202c3 0 5 -2 5 -5v-80c0 -3 -2 -5 -5 -5h-202c-3 0 -5 -2 -5 -5z" />
    <glyph glyph-name="lessequal" unicode="&#x2264;" horiz-adv-x="503" 
d="M16 448v56c0 2 1 4 3 5l448 193c4 2 7 -1 7 -5v-78c0 -2 -1 -3 -3 -4l-372 -164c-3 -1 -3 -5 0 -6l372 -160c2 -1 3 -2 3 -4v-78c0 -4 -3 -7 -7 -5l-448 189c-2 1 -3 3 -3 5v56zM469 0h-448c-3 0 -5 2 -5 5v75c0 3 2 5 5 5h448c3 0 5 -2 5 -5v-75c0 -3 -2 -5 -5 -5z" />
    <glyph glyph-name="greaterequal" unicode="&#x2265;" horiz-adv-x="503" 
d="M472 504v-56v-56c0 -2 -1 -4 -3 -5l-448 -189c-4 -2 -7 1 -7 5v78c0 2 1 3 3 4l372 160c3 1 3 5 0 6l-372 164c-2 1 -3 2 -3 4v78c0 4 3 7 7 5l448 -193c2 -1 3 -3 3 -5zM467 0h-448c-3 0 -5 2 -5 5v75c0 3 2 5 5 5h448c3 0 5 -2 5 -5v-75c0 -3 -2 -5 -5 -5z" />
    <glyph glyph-name="mu" unicode="&#xb5;" 
d="M456 699v-694c0 -3 -2 -5 -5 -5h-411c-3 0 -5 2 -5 5v694c0 3 2 5 5 5h411c3 0 5 -2 5 -5zM246 375l173 306h-346zM73 24h346l-173 305zM259 352l173 -304v608c-57 -99 -118 -205 -173 -304zM60 47l173 305l-173 305v-610z" />
    <glyph glyph-name="partialdiff" unicode="&#x2202;" 
d="M456 699v-694c0 -3 -2 -5 -5 -5h-411c-3 0 -5 2 -5 5v694c0 3 2 5 5 5h411c3 0 5 -2 5 -5zM246 375l173 306h-346zM73 24h346l-173 305zM259 352l173 -304v608c-57 -99 -118 -205 -173 -304zM60 47l173 305l-173 305v-610z" />
    <glyph glyph-name="summation" unicode="&#x2211;" 
d="M456 699v-694c0 -3 -2 -5 -5 -5h-411c-3 0 -5 2 -5 5v694c0 3 2 5 5 5h411c3 0 5 -2 5 -5zM246 375l173 306h-346zM73 24h346l-173 305zM259 352l173 -304v608c-57 -99 -118 -205 -173 -304zM60 47l173 305l-173 305v-610z" />
    <glyph glyph-name="product" unicode="&#x220f;" 
d="M456 699v-694c0 -3 -2 -5 -5 -5h-411c-3 0 -5 2 -5 5v694c0 3 2 5 5 5h411c3 0 5 -2 5 -5zM246 375l173 306h-346zM73 24h346l-173 305zM259 352l173 -304v608c-57 -99 -118 -205 -173 -304zM60 47l173 305l-173 305v-610z" />
    <glyph glyph-name="pi" unicode="&#x3c0;" 
d="M456 699v-694c0 -3 -2 -5 -5 -5h-411c-3 0 -5 2 -5 5v694c0 3 2 5 5 5h411c3 0 5 -2 5 -5zM246 375l173 306h-346zM73 24h346l-173 305zM259 352l173 -304v608c-57 -99 -118 -205 -173 -304zM60 47l173 305l-173 305v-610z" />
    <glyph glyph-name="integral" unicode="&#x222b;" 
d="M456 699v-694c0 -3 -2 -5 -5 -5h-411c-3 0 -5 2 -5 5v694c0 3 2 5 5 5h411c3 0 5 -2 5 -5zM246 375l173 306h-346zM73 24h346l-173 305zM259 352l173 -304v608c-57 -99 -118 -205 -173 -304zM60 47l173 305l-173 305v-610z" />
    <glyph glyph-name="ordfeminine" unicode="&#xaa;" horiz-adv-x="264" 
d="M294 473v-40c0 -2 -1 -3 -2 -3h-16c-31 0 -49 8 -57 25c-1 3 -4 2 -5 1c-13 -14 -47 -31 -96 -31c-73 0 -108 35 -108 86c0 47 39 82 119 82h60c12 0 18 10 18 18c0 22 -5 52 -70 52c-46 0 -67 -22 -67 -49c0 -2 -1 -3 -3 -3h-46c-1 0 -3 1 -3 3c0 63 58 95 119 95
c75 0 121 -32 121 -98v-117c0 -8 7 -18 18 -18h16c1 0 2 -1 2 -3zM207 542v8c0 2 -1 3 -3 3h-75c-58 0 -68 -23 -68 -42s14 -41 57 -41c65 0 88 39 89 72z" />
    <glyph glyph-name="ordmasculine" unicode="&#xba;" horiz-adv-x="285" 
d="M274 564c0 -85 -50 -142 -134 -142c-85 0 -134 57 -134 142c0 84 49 142 134 142c84 0 134 -58 134 -142zM222 564c0 56 -30 96 -82 96s-83 -40 -83 -96c0 -57 31 -97 83 -97s82 40 82 97z" />
    <glyph glyph-name="Omega" unicode="&#x2126;" 
d="M456 699v-694c0 -3 -2 -5 -5 -5h-411c-3 0 -5 2 -5 5v694c0 3 2 5 5 5h411c3 0 5 -2 5 -5zM246 375l173 306h-346zM73 24h346l-173 305zM259 352l173 -304v608c-57 -99 -118 -205 -173 -304zM60 47l173 305l-173 305v-610z" />
    <glyph glyph-name="oslash" unicode="&#xf8;" horiz-adv-x="582" 
d="M532 458l-41 -42c-4 -4 -2 -7 0 -11c24 -42 38 -93 38 -152c0 -156 -92 -263 -248 -263c-65 0 -118 17 -158 49c-2 2 -6 3 -9 0l-37 -37c-2 -2 -5 -2 -7 0l-39 39c-2 2 -2 5 0 7l40 40c2 2 4 4 1 9c-26 42 -39 94 -39 156c0 157 91 263 248 263c64 0 117 -19 158 -51
c4 -3 6 -3 9 0l38 39c2 2 5 2 7 0l39 -39c2 -2 2 -5 0 -7zM128 253c0 -31 5 -59 14 -83c2 -5 7 -4 9 -2l222 222c4 4 4 8 0 11c-25 19 -56 30 -92 30c-95 0 -153 -74 -153 -178zM434 253c0 30 -5 58 -14 82c-1 3 -6 5 -10 1l-221 -222c-4 -4 -3 -8 1 -11
c24 -19 54 -28 91 -28c96 0 153 74 153 178z" />
    <glyph glyph-name="logicalnot" unicode="&#xac;" horiz-adv-x="636" 
d="M63 297h496c3 0 5 -2 5 -5v-286c0 -3 -2 -5 -5 -5h-85c-3 0 -5 2 -5 5v191c0 3 -2 5 -5 5h-401c-3 0 -5 2 -5 5v85c0 3 2 5 5 5z" />
    <glyph glyph-name="radical" unicode="&#x221a;" horiz-adv-x="682" 
d="M276 5l-114 411c-1 4 -2 5 -6 5h-92c-3 0 -5 2 -5 5v75c0 3 2 5 5 5h154c3 0 4 -2 5 -5l112 -402c2 -5 8 -5 10 0l221 788c1 3 2 5 5 5h74c3 0 6 -2 5 -5l-246 -882c-1 -3 -2 -5 -5 -5h-117c-3 0 -5 2 -6 5z" />
    <glyph glyph-name="florin" unicode="&#x192;" horiz-adv-x="500" 
d="M-9 -193l14 75c1 3 3 5 6 5h59c39 0 57 19 63 50l95 490c0 2 -2 4 -4 4h-89c-3 0 -5 2 -4 5l13 65c0 3 3 5 6 5h89c3 0 5 2 6 5l14 75c16 82 72 120 164 118h67c3 0 5 -2 4 -5l-14 -75c-1 -3 -3 -5 -6 -5h-66c-30 0 -51 -19 -57 -50l-11 -58c-1 -3 1 -5 4 -5h108
c3 0 4 -2 4 -5l-13 -65c-1 -3 -3 -5 -6 -5h-108c-3 0 -5 -2 -6 -5l-98 -506c-16 -82 -72 -120 -153 -118h-77c-3 0 -5 2 -4 5z" />
    <glyph glyph-name="approxequal" unicode="&#x2248;" horiz-adv-x="511" 
d="M477 229v-27c0 -59 -48 -106 -122 -106c-77 0 -162 70 -210 70c-18 0 -37 -16 -37 -35v-30c0 -3 -2 -5 -5 -5l-75 20c-3 1 -5 2 -5 5v25c0 61 47 108 122 108c78 0 160 -71 210 -71c19 0 37 16 37 34v32c0 3 2 5 5 5l75 -20c3 -1 5 -2 5 -5zM477 445v-27
c0 -59 -48 -106 -122 -106c-77 0 -162 70 -210 70c-18 0 -37 -16 -37 -35v-30c0 -3 -2 -5 -5 -5l-75 20c-3 1 -5 2 -5 5v25c0 61 47 108 122 108c78 0 160 -71 210 -71c19 0 37 16 37 34v32c0 3 2 5 5 5l75 -20c3 -1 5 -2 5 -5z" />
    <glyph glyph-name="Delta" unicode="&#x2206;" horiz-adv-x="690" 
d="M616 0h-547c-3 0 -5 2 -5 5v73c0 3 2 7 3 9l208 612c1 3 3 5 6 5h127c3 0 4 -2 5 -5l205 -611c1 -3 3 -6 3 -10v-73c0 -3 -2 -5 -5 -5zM339 605l-168 -514c-1 -3 2 -6 5 -6h333c4 0 6 4 5 7l-165 513c-2 5 -8 5 -10 0z" />
    <glyph glyph-name="guillemotleft" unicode="&#xab;" horiz-adv-x="576" 
d="M357 500l-212 -242c-3 -4 -2 -6 0 -9l212 -242c1 -3 -1 -7 -5 -7h-74c-2 0 -4 1 -5 3l-212 246c-3 4 -3 5 0 9l212 246c1 2 3 3 5 3h74c4 0 6 -4 5 -7zM542 500l-212 -242c-3 -4 -2 -6 0 -9l212 -242c1 -3 -1 -7 -5 -7h-74c-2 0 -4 1 -5 3l-212 246c-3 4 -3 5 0 9
l212 246c1 2 3 3 5 3h74c4 0 6 -4 5 -7z" />
    <glyph glyph-name="guillemotright" unicode="&#xbb;" horiz-adv-x="576" 
d="M271 258l-212 242c-1 3 1 7 5 7h74c2 0 4 -1 5 -3l212 -246c3 -4 3 -5 0 -9l-212 -246c-1 -2 -3 -3 -5 -3h-74c-4 0 -6 4 -5 7l212 242c2 3 3 5 0 9zM456 258l-212 242c-1 3 1 7 5 7h74c2 0 4 -1 5 -3l212 -246c3 -4 3 -5 0 -9l-212 -246c-1 -2 -3 -3 -5 -3h-74
c-4 0 -6 4 -5 7l212 242c2 3 3 5 0 9z" />
    <glyph glyph-name="ellipsis" unicode="&#x2026;" horiz-adv-x="660" 
d="M178 0h-120c-3 0 -5 2 -5 5v122c0 3 2 5 5 5h120c3 0 5 -2 5 -5v-122c0 -3 -2 -5 -5 -5zM383 0h-120c-3 0 -5 2 -5 5v122c0 3 2 5 5 5h120c3 0 5 -2 5 -5v-122c0 -3 -2 -5 -5 -5zM587 0h-120c-3 0 -5 2 -5 5v122c0 3 2 5 5 5h120c3 0 5 -2 5 -5v-122c0 -3 -2 -5 -5 -5z
" />
    <glyph glyph-name="nbspace" unicode="&#xa0;" horiz-adv-x="265" 
 />
    <glyph glyph-name="endash" unicode="&#x2013;" horiz-adv-x="700" 
d="M570 211h-445c-3 0 -5 2 -5 5v75c0 3 2 5 5 5h445c3 0 5 -2 5 -5v-75c0 -3 -2 -5 -5 -5z" />
    <glyph glyph-name="emdash" unicode="&#x2014;" horiz-adv-x="976" 
d="M846 211h-721c-3 0 -5 2 -5 5v75c0 3 2 5 5 5h721c3 0 5 -2 5 -5v-75c0 -3 -2 -5 -5 -5z" />
    <glyph glyph-name="quotedblleft" unicode="&#x201c;" horiz-adv-x="371" 
d="M284 581h44c3 0 5 -2 5 -5v-140c0 -3 -2 -5 -5 -5h-120c-3 0 -5 2 -5 5v139c0 76 51 129 125 129c3 0 5 -2 5 -5v-55c0 -3 -2 -5 -5 -5c-20 0 -49 -18 -49 -53c0 -3 2 -5 5 -5zM104 581h44c3 0 5 -2 5 -5v-140c0 -3 -2 -5 -5 -5h-120c-3 0 -5 2 -5 5v139
c0 76 51 129 125 129c3 0 5 -2 5 -5v-55c0 -3 -2 -5 -5 -5c-20 0 -49 -18 -49 -53c0 -3 2 -5 5 -5z" />
    <glyph glyph-name="quotedblright" unicode="&#x201d;" horiz-adv-x="371" 
d="M72 554h-44c-3 0 -5 2 -5 5v140c0 3 2 5 5 5h120c3 0 5 -2 5 -5v-139c0 -76 -51 -129 -125 -129c-3 0 -5 2 -5 5v55c0 3 2 5 5 5c20 0 49 18 49 53c0 3 -2 5 -5 5zM252 554h-44c-3 0 -5 2 -5 5v140c0 3 2 5 5 5h120c3 0 5 -2 5 -5v-139c0 -76 -51 -129 -125 -129
c-3 0 -5 2 -5 5v55c0 3 2 5 5 5c20 0 49 18 49 53c0 3 -2 5 -5 5z" />
    <glyph glyph-name="quoteleft" unicode="&#x2018;" horiz-adv-x="191" 
d="M104 581h44c3 0 5 -2 5 -5v-140c0 -3 -2 -5 -5 -5h-120c-3 0 -5 2 -5 5v139c0 76 51 129 125 129c3 0 5 -2 5 -5v-55c0 -3 -2 -5 -5 -5c-20 0 -49 -18 -49 -53c0 -3 2 -5 5 -5z" />
    <glyph glyph-name="quoteright" unicode="&#x2019;" horiz-adv-x="191" 
d="M72 554h-44c-3 0 -5 2 -5 5v140c0 3 2 5 5 5h120c3 0 5 -2 5 -5v-139c0 -76 -51 -129 -125 -129c-3 0 -5 2 -5 5v55c0 3 2 5 5 5c20 0 49 18 49 53c0 3 -2 5 -5 5z" />
    <glyph glyph-name="divide" unicode="&#xf7;" horiz-adv-x="560" 
d="M335 0h-120c-3 0 -5 2 -5 5v122c0 3 2 5 5 5h120c3 0 5 -2 5 -5v-122c0 -3 -2 -5 -5 -5zM335 374h-120c-3 0 -5 2 -5 5v122c0 3 2 5 5 5h120c3 0 5 -2 5 -5v-122c0 -3 -2 -5 -5 -5zM520 208h-496c-3 0 -5 2 -5 5v80c0 3 2 5 5 5h496c3 0 5 -2 5 -5v-80c0 -3 -2 -5 -5 -5z
" />
    <glyph glyph-name="lozenge" unicode="&#x25ca;" 
d="M456 699v-694c0 -3 -2 -5 -5 -5h-411c-3 0 -5 2 -5 5v694c0 3 2 5 5 5h411c3 0 5 -2 5 -5zM246 375l173 306h-346zM73 24h346l-173 305zM259 352l173 -304v608c-57 -99 -118 -205 -173 -304zM60 47l173 305l-173 305v-610z" />
    <glyph glyph-name="fraction" unicode="&#x2044;" horiz-adv-x="622" 
d="M33 8l424 694c1 1 3 2 4 2h54c4 0 6 -4 4 -8l-426 -694c-1 -1 -3 -2 -4 -2h-52c-4 0 -6 4 -4 8z" />
    <glyph glyph-name="guilsinglleft" unicode="&#x2039;" horiz-adv-x="391" 
d="M357 500l-212 -242c-3 -4 -2 -6 0 -9l212 -242c1 -3 -1 -7 -5 -7h-74c-2 0 -4 1 -5 3l-212 246c-3 4 -3 5 0 9l212 246c1 2 3 3 5 3h74c4 0 6 -4 5 -7z" />
    <glyph glyph-name="guilsinglright" unicode="&#x203a;" horiz-adv-x="391" 
d="M271 258l-212 242c-1 3 1 7 5 7h74c2 0 4 -1 5 -3l212 -246c3 -4 3 -5 0 -9l-212 -246c-1 -2 -3 -3 -5 -3h-74c-4 0 -6 4 -5 7l212 242c2 3 3 5 0 9z" />
    <glyph glyph-name="daggerdbl" unicode="&#x2021;" horiz-adv-x="558" 
d="M224 1h-196c-3 0 -5 2 -5 5v85c0 3 2 5 5 5h196c3 0 5 2 5 5v305c0 3 -2 5 -5 5h-196c-3 0 -5 2 -5 5v85c0 3 2 5 5 5h196c3 0 5 2 5 5v189c0 3 2 5 5 5h85c3 0 5 -2 5 -5v-189c0 -3 2 -5 5 -5h196c3 0 5 -2 5 -5v-85c0 -3 -2 -5 -5 -5h-196c-3 0 -5 -2 -5 -5v-305
c0 -3 2 -5 5 -5h196c3 0 5 -2 5 -5v-85c0 -3 -2 -5 -5 -5h-196c-3 0 -5 -2 -5 -5v-189c0 -3 -2 -5 -5 -5h-85c-3 0 -5 2 -5 5v189c0 3 -2 5 -5 5z" />
    <glyph glyph-name="periodcentered" unicode="&#xb7;" horiz-adv-x="220" 
d="M177 276h-149c-3 0 -5 2 -5 5v151c0 3 2 5 5 5h149c3 0 5 -2 5 -5v-151c0 -3 -2 -5 -5 -5z" />
    <glyph glyph-name="quotesinglbase" unicode="&#x201a;" horiz-adv-x="251" 
d="M102 0h-44c-3 0 -5 2 -5 5v122c0 3 2 5 5 5h120c3 0 5 -2 5 -5v-121c0 -76 -51 -129 -125 -129c-3 0 -5 2 -5 5v55c0 3 2 5 5 5c20 0 49 18 49 53c0 3 -2 5 -5 5z" />
    <glyph glyph-name="quotedblbase" unicode="&#x201e;" horiz-adv-x="371" 
d="M72 0h-44c-3 0 -5 2 -5 5v140c0 3 2 5 5 5h120c3 0 5 -2 5 -5v-139c0 -76 -51 -129 -125 -129c-3 0 -5 2 -5 5v55c0 3 2 5 5 5c20 0 49 18 49 53c0 3 -2 5 -5 5zM252 0h-44c-3 0 -5 2 -5 5v140c0 3 2 5 5 5h120c3 0 5 -2 5 -5v-139c0 -76 -51 -129 -125 -129
c-3 0 -5 2 -5 5v55c0 3 2 5 5 5c20 0 49 18 49 53c0 3 -2 5 -5 5z" />
    <glyph glyph-name="perthousand" unicode="&#x2030;" horiz-adv-x="1172" 
d="M764 190c0 -114 -36 -200 -147 -200s-148 86 -148 200c0 113 37 199 148 199s147 -86 147 -199zM700 190c0 87 -23 137 -83 137c-61 0 -83 -50 -83 -137s22 -138 83 -138c60 0 83 51 83 138zM348 515c0 -114 -36 -200 -147 -200s-148 86 -148 200c0 113 37 199 148 199
s147 -86 147 -199zM284 515c0 87 -23 137 -83 137c-61 0 -83 -50 -83 -137s22 -138 83 -138c60 0 83 51 83 138zM1114 190c0 -114 -36 -200 -147 -200s-148 86 -148 200c0 113 37 199 148 199s147 -86 147 -199zM1050 190c0 87 -23 137 -83 137c-61 0 -83 -50 -83 -137
s22 -138 83 -138c60 0 83 51 83 138zM157 8l424 694c1 1 3 2 4 2h70c4 0 6 -4 4 -8l-426 -694c-1 -1 -3 -2 -4 -2h-68c-4 0 -6 4 -4 8z" />
    <glyph glyph-name="dotlessi" unicode="&#x131;" horiz-adv-x="242" 
d="M158 501v-496c0 -3 -2 -5 -5 -5h-85c-3 0 -5 2 -5 5v496c0 3 2 5 5 5h85c3 0 5 -2 5 -5z" />
    <glyph glyph-name="circumflex" unicode="&#x2c6;" horiz-adv-x="308" 
d="M252 589h-60c-2 0 -4 1 -6 4l-29 41c-3 5 -8 5 -11 0l-29 -41c-2 -3 -4 -4 -6 -4h-60c-4 0 -7 3 -5 7l44 104c1 3 3 4 5 4h114c2 0 4 -1 5 -4l43 -104c2 -4 -1 -7 -5 -7z" />
    <glyph glyph-name="tilde" unicode="&#x2dc;" horiz-adv-x="437" 
d="M43 595v23c0 35 23 86 102 86c58 0 87 -46 107 -46c9 0 32 -2 32 41c0 3 2 5 5 5h60c3 0 5 -2 5 -5v-24c0 -34 -24 -85 -102 -85c-53 0 -84 46 -107 46c-9 0 -32 2 -32 -41c0 -3 -2 -5 -5 -5h-60c-3 0 -5 2 -5 5z" />
    <glyph glyph-name="macron" unicode="&#xaf;" horiz-adv-x="330" 
d="M285 589h-246c-2 0 -4 2 -4 5v58c0 3 2 5 4 5h246c3 0 5 -2 5 -5v-58c0 -3 -2 -5 -5 -5z" />
    <glyph glyph-name="breve" unicode="&#x2d8;" horiz-adv-x="335" 
d="M204 704h63c3 0 5 -2 5 -5c0 -83 -61 -110 -114 -110c-52 0 -114 27 -114 110c0 3 2 5 5 5h62c3 0 5 -2 5 -5c0 -28 24 -38 42 -38c19 0 41 10 41 38c0 3 2 5 5 5z" />
    <glyph glyph-name="dotaccent" unicode="&#x2d9;" horiz-adv-x="242" 
d="M177 562h-129c-3 0 -5 2 -5 5v132c0 3 2 5 5 5h129c3 0 5 -2 5 -5v-132c0 -3 -2 -5 -5 -5z" />
    <glyph glyph-name="ring" unicode="&#x2da;" horiz-adv-x="246" 
d="M203 625c0 -48 -40 -87 -88 -87s-87 39 -87 87s39 88 87 88s88 -40 88 -88zM160 625c0 25 -20 45 -45 45s-45 -20 -45 -45s20 -45 45 -45s45 20 45 45z" />
    <glyph glyph-name="cedilla" unicode="&#xb8;" horiz-adv-x="255" 
d="M148 -35h57c4 0 7 -3 5 -7l-64 -149c-1 -3 -4 -7 -10 -7h-87c-4 0 -7 3 -5 7l93 149c2 3 6 7 11 7z" />
    <glyph glyph-name="hungarumlaut" unicode="&#x2dd;" horiz-adv-x="429" 
d="M136 562h-109c-3 0 -4 2 -4 5l29 132c0 3 3 5 6 5h109c3 0 4 -2 4 -5l-29 -132c0 -3 -3 -5 -6 -5zM356 562h-109c-3 0 -4 2 -4 5l29 132c0 3 3 5 6 5h109c3 0 4 -2 4 -5l-29 -132c0 -3 -3 -5 -6 -5z" />
    <glyph glyph-name="ogonek" unicode="&#x2db;" horiz-adv-x="255" 
d="M49 -35h57c5 0 9 -4 11 -7l93 -149c2 -4 -1 -7 -5 -7h-87c-6 0 -9 4 -10 7l-64 149c-2 4 1 7 5 7z" />
    <glyph glyph-name="caron" unicode="&#x2c7;" horiz-adv-x="308" 
d="M192 704h60c4 0 7 -3 5 -7l-43 -104c-1 -3 -3 -4 -5 -4h-114c-2 0 -4 1 -5 4l-44 104c-2 4 1 7 5 7h60c2 0 4 -1 6 -4l30 -41c3 -4 8 -4 11 0l28 41c2 3 4 4 6 4z" />
    <glyph glyph-name="currency" unicode="&#xa4;" horiz-adv-x="640" 
d="M34 119c-3 2 -3 5 0 7l69 69c2 2 3 5 1 8c-22 41 -34 91 -34 147c0 54 12 106 34 146c2 4 2 6 -1 9l-69 70c-3 2 -3 5 0 7l53 53c2 3 5 3 7 0l63 -64c4 -4 7 -5 11 -2c39 26 91 44 150 44c58 0 109 -15 148 -43c4 -3 9 -3 13 1l64 64c2 3 5 3 7 0l53 -53c3 -2 3 -5 0 -7
l-70 -70c-3 -3 -3 -6 -1 -10c21 -41 34 -90 34 -145c0 -57 -12 -107 -35 -148c-1 -2 0 -5 2 -7l70 -69c3 -2 3 -5 0 -7l-53 -53c-2 -3 -5 -3 -7 0l-65 64c-4 4 -8 3 -12 0c-39 -28 -90 -43 -148 -43c-60 0 -111 15 -151 43c-2 2 -6 3 -9 0l-64 -64c-2 -3 -5 -3 -7 0z
M471 350c0 104 -57 178 -153 178c-95 0 -153 -74 -153 -178s58 -178 153 -178c96 0 153 74 153 178z" />
    <glyph glyph-name="zero.tnum" horiz-adv-x="625" 
d="M580 352c0 -206 -65 -363 -267 -363s-268 157 -268 363s66 362 268 362s267 -156 267 -362zM480 352c0 177 -45 277 -167 277c-123 0 -167 -100 -167 -277c0 -176 44 -278 167 -278c122 0 167 102 167 278z" />
    <glyph glyph-name="two.tnum" horiz-adv-x="625" 
d="M81 5v70c0 3 1 10 4 13l278 271c22 21 86 81 85 143c-1 52 -39 127 -133 127c-76 0 -127 -57 -127 -118c0 -3 -2 -5 -5 -5h-85c-3 0 -5 2 -5 5c0 120 94 203 222 203c144 0 228 -96 228 -212c0 -102 -76 -171 -111 -206l-220 -203c-2 -2 -2 -8 4 -8h322c3 0 5 -2 5 -5
v-75c0 -3 -2 -5 -5 -5h-452c-3 0 -5 2 -5 5z" />
    <glyph glyph-name="three.tnum" horiz-adv-x="625" 
d="M256 400c0 3 2 5 5 5h35c76 0 128 47 128 111c0 59 -50 113 -128 113c-73 -1 -126 -60 -125 -118c0 -3 -2 -5 -5 -5h-85c-3 0 -5 2 -5 5c-1 117 92 202 220 203c133 0 223 -85 223 -198c0 -94 -76 -139 -99 -146c-6 -1 -6 -9 0 -10c34 -11 115 -66 115 -170
c0 -117 -90 -200 -239 -200c-148 0 -225 93 -225 200c0 3 2 5 5 5h85c3 0 5 -2 5 -5c0 -54 42 -115 130 -115c82 0 144 50 144 115c0 79 -63 130 -144 130h-35c-3 0 -5 2 -5 5v75z" />
    <glyph glyph-name="four.tnum" horiz-adv-x="625" 
d="M385 704h84c3 0 5 -2 5 -5v-448c0 -3 2 -5 5 -5h111c3 0 5 -2 5 -5v-75c0 -3 -2 -5 -5 -5h-111c-3 0 -5 -2 -5 -5v-151c0 -3 -2 -5 -5 -5h-85c-3 0 -5 2 -5 5v151c0 3 -2 5 -5 5h-329c-3 0 -5 2 -5 5v70c0 10 2 13 3 15l332 448c3 5 7 5 10 5zM369 546l-215 -293
c-2 -3 1 -7 5 -7h215c3 0 5 2 5 5v294c0 5 -7 5 -10 1z" />
    <glyph glyph-name="five.tnum" horiz-adv-x="625" 
d="M76 335l44 362c1 6 4 7 7 7h375c3 0 5 -2 5 -5v-75c0 -3 -2 -5 -5 -5h-294c-3 0 -5 -3 -5 -5c-5 -41 -22 -165 -22 -165c-1 -6 3 -7 8 -3c14 11 58 43 122 43c146 0 244 -100 244 -247c0 -156 -89 -252 -244 -252c-185 0 -242 136 -242 200c0 3 2 5 5 5h92c3 0 5 -2 5 -5
c0 -34 33 -115 140 -115c87 0 149 63 149 167c0 94 -62 162 -149 162c-70 0 -110 -21 -141 -69c-2 -3 -8 -5 -11 -5h-78c-3 0 -5 2 -5 5z" />
    <glyph glyph-name="six.tnum" horiz-adv-x="625" 
d="M366 699l-113 -222c-2 -4 0 -7 4 -5c3 2 33 13 64 13c136 0 237 -98 237 -246c0 -145 -93 -249 -249 -249s-243 104 -243 249c0 54 12 105 33 145l167 315c2 4 4 5 7 5h88c3 0 7 -1 5 -5zM458 239c0 99 -48 165 -149 165c-100 0 -148 -66 -148 -165s48 -164 148 -164
c101 0 149 65 149 164z" />
    <glyph glyph-name="seven.tnum" horiz-adv-x="625" 
d="M540 699v-67c0 -10 -1 -13 -3 -18l-228 -609c-1 -3 -3 -5 -6 -5h-92c-3 0 -5 2 -4 5l236 609c1 3 -1 5 -4 5h-349c-3 0 -5 2 -5 5v75c0 3 2 5 5 5h445c3 0 5 -2 5 -5z" />
    <glyph glyph-name="eight.tnum" horiz-adv-x="625" 
d="M312 -10c-149 0 -239 83 -239 200c0 109 81 159 115 170c6 1 6 9 0 10c-23 7 -99 52 -99 146c0 113 90 198 223 198s223 -85 223 -198c0 -94 -76 -139 -99 -146c-6 -1 -6 -9 0 -10c34 -11 115 -61 115 -170c0 -117 -90 -200 -239 -200zM312 75c82 0 144 50 144 115
c0 79 -63 130 -144 130s-144 -51 -144 -130c0 -65 62 -115 144 -115zM440 516c0 59 -50 113 -128 113s-128 -54 -128 -113c0 -64 52 -111 128 -111s128 47 128 111z" />
    <glyph glyph-name="nine.tnum" horiz-adv-x="625" 
d="M256 4l113 222c2 4 0 7 -4 5c-3 -2 -33 -13 -64 -13c-136 0 -237 98 -237 246c0 145 93 250 249 250s248 -105 248 -250c0 -54 -17 -105 -38 -145l-167 -315c-2 -4 -4 -5 -7 -5h-88c-3 0 -7 1 -5 5zM164 464c0 -99 48 -165 149 -165c100 0 148 66 148 165
s-48 165 -148 165c-101 0 -149 -66 -149 -165z" />
    <glyph glyph-name="parenleft" unicode="(" horiz-adv-x="235" 
d="M89 253c0 -160 43 -315 127 -446c2 -3 0 -5 -3 -5h-67c-3 0 -5 1 -7 5c-70 109 -126 285 -126 446s56 337 126 446c2 4 4 5 7 5h67c3 0 5 -2 3 -5c-84 -131 -127 -286 -127 -446z" />
    <glyph glyph-name="parenright" unicode=")" horiz-adv-x="235" 
d="M141 253c0 160 -43 315 -127 446c-2 3 0 5 3 5h67c3 0 5 -1 7 -5c70 -109 126 -285 126 -446s-56 -337 -126 -446c-2 -4 -4 -5 -7 -5h-67c-3 0 -5 2 -3 5c84 131 127 286 127 446z" />
    <glyph glyph-name="registered.002" horiz-adv-x="786" 
d="M550 458c0 73 -57 132 -130 132h-203c-3 0 -5 -2 -5 -5c0 0 0 -8 1 -449c0 -3 2 -5 5 -5h40c3 0 5 2 5 5v190h148l85 -192c1 -2 3 -3 5 -3h46c4 0 7 3 5 7l-88 195c48 21 86 70 86 125zM500 458c0 -45 -37 -81 -80 -81h-157v163h157c43 0 80 -36 80 -82zM734 353
c0 -194 -157 -353 -351 -353c-193 0 -350 159 -350 353c0 193 157 352 350 352c194 0 351 -159 351 -352zM704 353c0 176 -144 322 -321 322c-176 0 -320 -146 -320 -322c0 -177 144 -322 320 -322c177 0 321 145 321 322z" />
    <glyph glyph-name="copyright.002" horiz-adv-x="786" 
d="M381 554c-113 0 -157 -96 -157 -200s44 -200 157 -200c50 0 82 9 115 51c2 3 3 7 7 7h44c4 0 6 -3 5 -7c-24 -58 -91 -97 -171 -97c-142 0 -208 124 -208 246s66 246 208 246c80 0 147 -39 171 -97c1 -4 -1 -7 -5 -7h-44c-4 0 -5 4 -7 7c-33 42 -65 51 -115 51zM734 353
c0 -194 -157 -353 -351 -353c-193 0 -350 159 -350 353c0 193 157 352 350 352c194 0 351 -159 351 -352zM704 353c0 176 -144 322 -321 322c-176 0 -320 -146 -320 -322c0 -177 144 -322 320 -322c177 0 321 145 321 322z" />
    <glyph glyph-name="one.tnum" horiz-adv-x="625" 
d="M561 0h-497c-3 0 -5 2 -5 5v75c0 3 2 5 5 5h192c3 0 5 2 5 5v386c0 20 -16 30 -31 30h-153c-3 0 -5 2 -5 5v70c0 3 2 5 5 5h124c33 0 60 25 60 58v55c0 3 2 5 5 5h85c3 0 5 -2 5 -5v-609c0 -3 2 -5 5 -5h200c3 0 5 -2 5 -5v-75c0 -3 -2 -5 -5 -5z" />
    <glyph glyph-name="dollar.plf" 
d="M456 699v-694c0 -3 -2 -5 -5 -5h-411c-3 0 -5 2 -5 5v694c0 3 2 5 5 5h411c3 0 5 -2 5 -5zM246 375l173 306h-346zM73 24h346l-173 305zM259 352l173 -304v608c-57 -99 -118 -205 -173 -304zM60 47l173 305l-173 305v-610z" />
    <glyph glyph-name="cent.plf" 
d="M456 699v-694c0 -3 -2 -5 -5 -5h-411c-3 0 -5 2 -5 5v694c0 3 2 5 5 5h411c3 0 5 -2 5 -5zM246 375l173 306h-346zM73 24h346l-173 305zM259 352l173 -304v608c-57 -99 -118 -205 -173 -304zM60 47l173 305l-173 305v-610z" />
    <glyph glyph-name="sterling.plf" 
d="M456 699v-694c0 -3 -2 -5 -5 -5h-411c-3 0 -5 2 -5 5v694c0 3 2 5 5 5h411c3 0 5 -2 5 -5zM246 375l173 306h-346zM73 24h346l-173 305zM259 352l173 -304v608c-57 -99 -118 -205 -173 -304zM60 47l173 305l-173 305v-610z" />
    <glyph glyph-name="yen.plf" 
d="M456 699v-694c0 -3 -2 -5 -5 -5h-411c-3 0 -5 2 -5 5v694c0 3 2 5 5 5h411c3 0 5 -2 5 -5zM246 375l173 306h-346zM73 24h346l-173 305zM259 352l173 -304v608c-57 -99 -118 -205 -173 -304zM60 47l173 305l-173 305v-610z" />
    <glyph glyph-name="florin.plf" 
d="M456 699v-694c0 -3 -2 -5 -5 -5h-411c-3 0 -5 2 -5 5v694c0 3 2 5 5 5h411c3 0 5 -2 5 -5zM246 375l173 306h-346zM73 24h346l-173 305zM259 352l173 -304v608c-57 -99 -118 -205 -173 -304zM60 47l173 305l-173 305v-610z" />
    <glyph glyph-name="Euro.plf" 
d="M456 699v-694c0 -3 -2 -5 -5 -5h-411c-3 0 -5 2 -5 5v694c0 3 2 5 5 5h411c3 0 5 -2 5 -5zM246 375l173 306h-346zM73 24h346l-173 305zM259 352l173 -304v608c-57 -99 -118 -205 -173 -304zM60 47l173 305l-173 305v-610z" />
    <glyph glyph-name="currency.plf" 
d="M456 699v-694c0 -3 -2 -5 -5 -5h-411c-3 0 -5 2 -5 5v694c0 3 2 5 5 5h411c3 0 5 -2 5 -5zM246 375l173 306h-346zM73 24h346l-173 305zM259 352l173 -304v608c-57 -99 -118 -205 -173 -304zM60 47l173 305l-173 305v-610z" />
    <glyph glyph-name="numbersign.plf" 
d="M456 699v-694c0 -3 -2 -5 -5 -5h-411c-3 0 -5 2 -5 5v694c0 3 2 5 5 5h411c3 0 5 -2 5 -5zM246 375l173 306h-346zM73 24h346l-173 305zM259 352l173 -304v608c-57 -99 -118 -205 -173 -304zM60 47l173 305l-173 305v-610z" />
    <glyph glyph-name="registered" unicode="&#xae;" horiz-adv-x="786" 
d="M734 353c0 -194 -157 -353 -351 -353c-193 0 -350 159 -350 353c0 193 157 352 350 352c194 0 351 -159 351 -352zM704 353c0 176 -144 322 -321 322c-176 0 -320 -146 -320 -322c0 -177 144 -322 320 -322c177 0 321 145 321 322zM218 558c0 3 2 5 5 5h207
c66 0 123 -57 123 -128c0 -52 -28 -94 -70 -113c-3 -1 -3 -5 -2 -7l76 -168c2 -4 -1 -6 -4 -6h-47c-3 0 -8 1 -10 5l-69 159c-1 3 -4 4 -7 4h-142c-2 0 -3 -1 -3 -3v-160c0 -3 -2 -5 -5 -5h-47c-3 0 -5 2 -5 5v412zM423 512h-143c-3 0 -5 -2 -5 -5v-142c0 -3 2 -5 5 -5h145
c37 1 71 34 71 75s-35 77 -73 77z" />
    <glyph glyph-name="copyright" unicode="&#xa9;" horiz-adv-x="786" 
d="M734 353c0 -194 -157 -353 -351 -353c-193 0 -350 159 -350 353c0 193 157 351 350 351c194 0 351 -158 351 -351zM704 353c0 176 -144 321 -321 321c-176 0 -320 -145 -320 -321c0 -177 144 -322 320 -322c177 0 321 145 321 322zM500 270c1 2 3 3 4 3h51c3 0 5 -2 5 -5
c0 -40 -61 -133 -181 -133s-191 90 -191 217s71 217 191 217c125 0 181 -102 181 -135c0 -2 -1 -3 -3 -3h-53c-1 0 -3 1 -4 3c-9 26 -37 84 -121 84c-82 0 -131 -62 -131 -166s49 -166 131 -166s112 52 121 84z" />
    <glyph glyph-name="one" unicode="1" horiz-adv-x="378" 
d="M202 644v55c0 3 2 5 5 5h85c3 0 5 -2 5 -5v-694c0 -3 -2 -5 -5 -5h-85c-3 0 -5 2 -5 5v471c0 20 -16 30 -31 30h-153c-3 0 -5 2 -5 5v70c0 3 2 5 5 5h124c33 0 60 25 60 58z" />
    <glyph glyph-name="Ntilde" unicode="&#xd1;" horiz-adv-x="693" 
d="M541 704h85c3 0 5 -2 5 -5v-694c0 -3 -2 -5 -5 -5h-147c-3 0 -6 2 -8 5l-303 601c-2 4 -10 4 -10 -2v-599c0 -3 -2 -5 -5 -5h-85c-3 0 -5 2 -5 5v694c0 3 2 5 5 5h148c3 0 5 -1 7 -5l303 -600c3 -6 10 -5 10 1v599c0 3 2 5 5 5zM194 793v23c0 35 23 86 102 86
c58 0 87 -46 107 -46c9 0 32 -2 32 41c0 3 2 5 5 5h60c3 0 5 -2 5 -5v-24c0 -34 -24 -85 -102 -85c-53 0 -84 46 -107 46c-9 0 -32 2 -32 -41c0 -3 -2 -5 -5 -5h-60c-3 0 -5 2 -5 5z" />
    <glyph glyph-name="aring" unicode="&#xe5;" horiz-adv-x="572" 
d="M562 80v-75c0 -3 -2 -5 -5 -5h-29c-57 0 -91 14 -106 46c-2 5 -7 4 -9 2c-24 -25 -86 -58 -178 -58c-134 0 -200 65 -200 160c0 87 73 152 220 152h112c22 0 33 19 33 33c0 41 -10 96 -129 96c-86 0 -125 -40 -125 -91c0 -3 -2 -5 -5 -5h-85c-3 0 -5 2 -5 5
c0 118 107 176 220 176c138 0 224 -59 224 -181v-217c0 -15 12 -33 33 -33h29c3 0 5 -2 5 -5zM400 208v14c0 3 -2 5 -5 5h-140c-106 0 -125 -42 -125 -77c0 -36 25 -75 105 -75c121 0 163 72 165 133zM359 635c0 -48 -40 -87 -88 -87s-87 39 -87 87s39 88 87 88
s88 -40 88 -88zM316 635c0 25 -20 45 -45 45s-45 -20 -45 -45s20 -45 45 -45s45 20 45 45z" />
    <glyph glyph-name="iacute" unicode="&#xed;" horiz-adv-x="242" 
d="M158 501v-496c0 -3 -2 -5 -5 -5h-85c-3 0 -5 2 -5 5v496c0 3 2 5 5 5h85c3 0 5 -2 5 -5zM125 589h-57c-4 0 -7 3 -5 7l43 101c1 3 4 7 10 7h87c4 0 7 -3 5 -7l-72 -101c-2 -3 -6 -7 -11 -7z" />
    <glyph glyph-name="igrave" unicode="&#xec;" horiz-adv-x="242" 
d="M158 501v-496c0 -3 -2 -5 -5 -5h-85c-3 0 -5 2 -5 5v496c0 3 2 5 5 5h85c3 0 5 -2 5 -5zM151 589h-57c-5 0 -9 4 -11 7l-72 101c-2 4 1 7 5 7h87c6 0 9 -4 10 -7l43 -101c2 -4 -1 -7 -5 -7z" />
    <glyph glyph-name="icircumflex" unicode="&#xee;" horiz-adv-x="242" 
d="M164 501v-496c0 -3 -2 -5 -5 -5h-85c-3 0 -5 2 -5 5v496c0 3 2 5 5 5h85c3 0 5 -2 5 -5zM219 589h-60c-2 0 -4 1 -6 4l-29 41c-3 5 -8 5 -11 0l-29 -41c-2 -3 -4 -4 -6 -4h-60c-4 0 -7 3 -5 7l44 104c1 3 3 4 5 4h114c2 0 4 -1 5 -4l43 -104c2 -4 -1 -7 -5 -7z" />
    <glyph glyph-name="idieresis" unicode="&#xef;" horiz-adv-x="242" 
d="M158 501v-496c0 -3 -2 -5 -5 -5h-85c-3 0 -5 2 -5 5v496c0 3 2 5 5 5h85c3 0 5 -2 5 -5zM49 699v-104c0 -3 -2 -5 -5 -5h-105c-3 0 -5 2 -5 5v104c0 3 2 5 5 5h105c3 0 5 -2 5 -5zM293 699v-104c0 -3 -2 -5 -5 -5h-105c-3 0 -5 2 -5 5v104c0 3 2 5 5 5h105c3 0 5 -2 5 -5
z" />
    <glyph glyph-name="ntilde" unicode="&#xf1;" horiz-adv-x="563" 
d="M65 506h75c3 0 4 -2 5 -5l10 -45c2 -6 9 -4 11 -1c21 29 64 61 131 61c145 0 218 -106 218 -236v-275c0 -3 -2 -5 -5 -5h-85c-3 0 -5 2 -5 5v275c0 76 -34 151 -133 151c-84 0 -132 -73 -132 -151v-275c0 -3 -2 -5 -5 -5h-85c-3 0 -5 2 -5 5v496c0 3 2 5 5 5zM137 595v23
c0 35 23 86 102 86c58 0 87 -46 107 -46c9 0 32 -2 32 41c0 3 2 5 5 5h60c3 0 5 -2 5 -5v-24c0 -34 -24 -85 -102 -85c-53 0 -84 46 -107 46c-9 0 -32 2 -32 -41c0 -3 -2 -5 -5 -5h-60c-3 0 -5 2 -5 5z" />
    <glyph glyph-name="Zcaron" unicode="&#x17d;" horiz-adv-x="565" 
d="M25 5v70c0 10 1 10 3 13l381 525c2 3 1 6 -2 6h-377c-3 0 -5 2 -5 5v75c0 3 2 5 5 5h490c3 0 5 -2 5 -5v-70c0 -10 0 -10 -2 -13l-383 -526c-2 -3 -1 -5 2 -5h378c3 0 5 -2 5 -5v-75c0 -3 -2 -5 -5 -5h-490c-3 0 -5 2 -5 5zM319 901h60c4 0 7 -3 5 -7l-43 -104
c-1 -3 -3 -4 -5 -4h-114c-2 0 -4 1 -5 4l-44 104c-2 4 1 7 5 7h60c2 0 4 -1 6 -4l30 -41c3 -4 8 -4 11 0l28 41c2 3 4 4 6 4z" />
    <glyph glyph-name="zcaron" unicode="&#x17e;" horiz-adv-x="468" 
d="M25 5v75c0 3 2 7 4 10l268 323c2 2 1 8 -4 8h-252c-3 0 -5 2 -5 5v75c0 3 2 5 5 5h369c3 0 5 -2 5 -5v-75c0 -3 -1 -6 -4 -10l-266 -323c-3 -3 0 -8 4 -8h274c3 0 5 -2 5 -5v-75c0 -3 -2 -5 -5 -5h-393c-3 0 -5 2 -5 5zM274 704h60c4 0 7 -3 5 -7l-43 -104
c-1 -3 -3 -4 -5 -4h-114c-2 0 -4 1 -5 4l-44 104c-2 4 1 7 5 7h60c2 0 4 -1 6 -4l30 -41c3 -4 8 -4 11 0l28 41c2 3 4 4 6 4z" />
    <glyph glyph-name="apple" unicode="&#xf8ff;" horiz-adv-x="668" 
d="M480 702c0 -47 -5 -88 -43 -126c-24 -25 -53 -44 -95 -44c-1 0 -1 1 -3 1c0 43 11 79 42 113c27 27 60 49 99 56zM625 187c-32 -70 -62 -118 -87 -145c-27 -29 -54 -42 -88 -42c-13 0 -31 5 -56 16c-25 10 -40 13 -53 13c-11 0 -30 -3 -54 -13c-23 -11 -43 -16 -54 -16
c-18 0 -38 6 -55 19c-88 64 -145 195 -145 310c0 105 72 212 189 212c21 0 43 -7 68 -16c23 -9 42 -14 51 -14c11 0 27 5 52 14c26 9 48 16 65 16c32 0 61 -7 85 -18s47 -29 68 -52c-47 -33 -86 -76 -86 -140c0 -63 38 -117 100 -144z" />
    <glyph glyph-name="questiondown" unicode="&#xbf;" horiz-adv-x="511" 
d="M480 183c0 -113 -91 -193 -221 -193c-144 0 -234 92 -234 205c0 115 73 153 162 198c13 7 16 12 18 26v71c0 3 2 5 5 5h85c3 0 5 -2 5 -5v-79c0 -43 -24 -76 -72 -96c-96 -40 -109 -75 -109 -120c0 -57 47 -120 140 -120c80 0 126 51 126 108v10c0 3 2 5 5 5h85
c3 0 5 -2 5 -5v-10zM193 704h120c3 0 5 -2 5 -5v-122c0 -3 -2 -5 -5 -5h-120c-3 0 -5 2 -5 5v122c0 3 2 5 5 5z" />
    <glyph glyph-name="exclamdown" unicode="&#xa1;" horiz-adv-x="242" 
d="M85 496h64c3 0 5 -2 5 -5l10 -293v-193c0 -3 -2 -5 -5 -5h-84c-3 0 -5 2 -5 5v193l10 293c0 3 2 5 5 5zM57 704h120c3 0 5 -2 5 -5v-122c0 -3 -2 -5 -5 -5h-120c-3 0 -5 2 -5 5v122c0 3 2 5 5 5z" />
    <glyph glyph-name="onehalf" unicode="&#xbd;" horiz-adv-x="722" 
d="M82 8l424 694c1 1 3 2 4 2h54c4 0 6 -4 4 -8l-426 -694c-1 -1 -3 -2 -4 -2h-52c-4 0 -6 4 -4 8zM155 672v29c0 2 1 3 3 3h46c1 0 2 -1 2 -3v-374c0 -2 -1 -3 -2 -3h-46c-2 0 -3 1 -3 3v254c0 11 -9 16 -17 16h-82c-2 0 -3 1 -3 3v38c0 1 1 2 3 2h67c17 0 32 14 32 32z
M405 3v37c0 2 0 6 2 8l150 146c12 11 47 44 46 77c0 28 -21 69 -72 69c-41 0 -68 -31 -68 -64c0 -2 -1 -3 -3 -3h-46c-2 0 -3 1 -3 3c0 65 51 110 120 110c78 0 123 -52 123 -115c0 -55 -41 -92 -60 -111l-118 -110c-1 -1 -1 -4 2 -4h174c1 0 2 -1 2 -3v-40
c0 -2 -1 -3 -2 -3h-244c-2 0 -3 1 -3 3z" />
    <glyph glyph-name="onequarter" unicode="&#xbc;" horiz-adv-x="696" 
d="M92 8l424 694c1 1 3 2 4 2h54c4 0 6 -4 4 -8l-426 -694c-1 -1 -3 -2 -4 -2h-52c-4 0 -6 4 -4 8zM155 673v29c0 2 1 3 3 3h46c1 0 2 -1 2 -3v-374c0 -2 -1 -3 -2 -3h-46c-2 0 -3 1 -3 3v254c0 11 -9 16 -17 16h-82c-2 0 -3 1 -3 3v38c0 1 1 2 3 2h67c17 0 32 14 32 32z
M506 380h45c2 0 3 -1 3 -3v-241c0 -2 1 -3 3 -3h60c1 0 2 -1 2 -3v-40c0 -2 -1 -3 -2 -3h-60c-2 0 -3 -1 -3 -3v-81c0 -2 -1 -3 -3 -3h-46c-1 0 -2 1 -2 3v81c0 2 -1 3 -3 3h-178c-1 0 -2 1 -2 3v37c0 6 1 7 1 9l179 241c2 3 4 3 6 3zM497 295l-116 -158c-1 -2 1 -4 3 -4
h116c2 0 3 1 3 3v158c0 3 -4 3 -6 1z" />
    <glyph glyph-name="onesuperior" unicode="&#xb9;" horiz-adv-x="274" 
d="M155 672v29c0 2 1 3 3 3h46c1 0 2 -1 2 -3v-374c0 -2 -1 -3 -2 -3h-46c-2 0 -3 1 -3 3v254c0 11 -9 16 -17 16h-82c-2 0 -3 1 -3 3v38c0 1 1 2 3 2h67c17 0 32 14 32 32z" />
    <glyph glyph-name="threequarters" unicode="&#xbe;" horiz-adv-x="759" 
d="M157 8l424 694c1 1 3 2 4 2h54c4 0 6 -4 4 -8l-426 -694c-1 -1 -3 -2 -4 -2h-52c-4 0 -6 4 -4 8zM152 534c0 2 2 3 3 3h19c41 0 69 25 69 60c0 31 -27 61 -69 61c-39 -1 -68 -33 -67 -64c0 -2 -2 -3 -3 -3h-46c-2 0 -3 1 -3 3c0 63 50 109 119 110c72 0 120 -46 120 -107
c0 -51 -41 -75 -53 -79c-3 -1 -3 -5 0 -6c18 -6 62 -35 62 -91c0 -64 -49 -108 -129 -108s-121 50 -121 108c0 1 1 2 2 2h46c2 0 3 -1 3 -2c0 -30 22 -63 70 -63c44 0 78 27 78 63c0 42 -34 70 -78 70h-19c-1 0 -3 1 -3 2v41zM569 380h45c2 0 3 -1 3 -3v-241c0 -2 1 -3 3 -3
h60c1 0 2 -1 2 -3v-40c0 -2 -1 -3 -2 -3h-60c-2 0 -3 -1 -3 -3v-81c0 -2 -1 -3 -3 -3h-46c-1 0 -2 1 -2 3v81c0 2 -1 3 -3 3h-178c-1 0 -2 1 -2 3v37c0 6 1 7 1 9l179 241c2 3 4 3 6 3zM560 295l-116 -158c-1 -2 1 -4 3 -4h116c2 0 3 1 3 3v158c0 3 -4 3 -6 1z" />
    <glyph glyph-name="threesuperior" unicode="&#xb3;" horiz-adv-x="371" 
d="M152 534c0 2 2 3 3 3h19c41 0 69 25 69 60c0 31 -27 61 -69 61c-39 -1 -68 -33 -67 -64c0 -2 -2 -3 -3 -3h-46c-2 0 -3 1 -3 3c0 63 50 109 119 110c72 0 120 -46 120 -107c0 -51 -41 -75 -53 -79c-3 -1 -3 -5 0 -6c18 -6 62 -35 62 -91c0 -64 -49 -108 -129 -108
s-121 50 -121 108c0 1 1 2 2 2h46c2 0 3 -1 3 -2c0 -30 22 -63 70 -63c44 0 78 27 78 63c0 42 -34 70 -78 70h-19c-1 0 -3 1 -3 2v41z" />
    <glyph glyph-name="twosuperior" unicode="&#xb2;" horiz-adv-x="370" 
d="M53 321v37c0 2 0 6 2 8l150 146c12 11 47 44 46 77c0 28 -21 69 -72 69c-41 0 -68 -31 -68 -64c0 -2 -1 -3 -3 -3h-46c-2 0 -3 1 -3 3c0 65 51 110 120 110c78 0 123 -52 123 -115c0 -55 -41 -92 -60 -111l-118 -110c-1 -1 -1 -4 2 -4h174c1 0 2 -1 2 -3v-40
c0 -2 -1 -3 -2 -3h-244c-2 0 -3 1 -3 3z" />
    <glyph glyph-name="arrowright" unicode="&#x2192;" horiz-adv-x="740" 
d="M667 320l-125 -108c-8 -7 -12 -6 -22 -6h-75c-5 0 -7 6 -3 9l123 104c4 3 2 5 0 5h-506c-3 0 -5 2 -5 5v54c0 3 2 5 5 5h506c2 0 4 2 0 5l-123 104c-4 3 -2 9 3 9h75c10 0 14 1 22 -6l125 -108c3 -3 4 -5 4 -10v-52c0 -5 -1 -7 -4 -10z" />
    <glyph glyph-name="arrowleft" unicode="&#x2190;" horiz-adv-x="740" 
d="M183 212l-125 108c-3 3 -4 5 -4 10v52c0 5 1 7 4 10l125 108c8 7 12 6 22 6h75c5 0 7 -6 3 -9l-123 -104c-4 -3 -2 -5 0 -5h506c3 0 5 -2 5 -5v-54c0 -3 -2 -5 -5 -5h-506c-2 0 -4 -2 0 -5l123 -104c4 -3 2 -9 -3 -9h-75c-10 0 -14 -1 -22 6z" />
    <glyph glyph-name="arrowup" unicode="&#x2191;" horiz-adv-x="425" 
d="M241 700l108 -125c7 -8 6 -12 6 -22v-75c0 -5 -6 -7 -9 -3l-104 123c-3 4 -5 2 -5 0v-593c0 -3 -2 -5 -5 -5h-54c-3 0 -5 2 -5 5v593c0 2 -2 4 -5 0l-104 -123c-3 -4 -9 -2 -9 3v75c0 10 -1 14 6 22l108 125c3 3 5 4 10 4h52c5 0 7 -1 10 -4z" />
    <glyph glyph-name="arrowdown" unicode="&#x2193;" horiz-adv-x="425" 
d="M349 129l-108 -125c-3 -3 -5 -4 -10 -4h-52c-5 0 -7 1 -10 4l-108 125c-7 8 -6 12 -6 22v75c0 5 6 7 9 3l104 -123c3 -4 5 -2 5 0v593c0 3 2 5 5 5h54c3 0 5 -2 5 -5v-593c0 -2 2 -4 5 0l104 123c3 4 9 2 9 -3v-75c0 -10 1 -14 -6 -22z" />
    <glyph glyph-name="carriagereturn" unicode="&#x21b5;" horiz-adv-x="740" 
d="M672 699v-370c0 -3 -2 -5 -5 -5h-507c-2 0 -4 -2 0 -5l123 -104c4 -3 2 -9 -3 -9h-75c-10 0 -14 -1 -22 6l-125 108c-3 3 -4 5 -4 10v52c0 5 1 7 4 10l125 108c8 7 12 6 22 6h75c5 0 7 -6 3 -9l-123 -104c-4 -3 -2 -5 0 -5h443c3 0 5 2 5 5v306c0 3 2 5 5 5h54
c3 0 5 -2 5 -5z" />
    <glyph glyph-name="I" unicode="I" horiz-adv-x="236" 
d="M68 704h85c3 0 5 -2 5 -5v-694c0 -3 -2 -5 -5 -5h-85c-3 0 -5 2 -5 5v694c0 3 2 5 5 5z" />
    <glyph glyph-name="Euro" unicode="&#x20ac;" horiz-adv-x="680" 
d="M116 223c-1 5 -3 7 -6 7h-76c-3 0 -4 2 -3 5l20 75c1 3 3 5 6 5h41c3 0 5 2 5 5c-2 12 -2 62 0 75c0 3 -2 5 -5 5h-64c-3 0 -5 2 -4 5l20 75c1 3 4 5 7 5h55c3 0 5 3 5 4c32 136 118 225 272 225c84 0 136 -22 185 -69c4 -4 4 -8 2 -14l-26 -80c-1 -4 -6 -4 -8 0
c-26 45 -79 78 -153 78c-91 0 -146 -41 -171 -139c-1 -4 1 -5 5 -5h300c3 0 5 -2 4 -5l-21 -75c-1 -3 -3 -5 -6 -5h-292c-3 0 -5 -2 -5 -5c-4 -25 -4 -50 0 -75c0 -3 2 -5 5 -5h264c3 0 5 -2 4 -5l-21 -75c-1 -4 -3 -5 -6 -5h-228c-3 0 -6 -2 -5 -7c22 -96 78 -148 173 -148
c83 0 147 73 179 136c3 5 11 3 11 -3v-114c0 -4 -1 -8 -5 -14c-33 -51 -111 -90 -185 -90c-157 0 -243 91 -273 233z" />
    <glyph glyph-name="ydieresis" unicode="&#xff;" horiz-adv-x="537" 
d="M37 -118c0 3 2 5 5 5h113c59 0 77 38 59 91l-9 27l-169 496c-1 4 3 5 6 5h91c3 0 4 -2 5 -5l131 -402c2 -5 8 -5 10 0l132 402c1 3 2 5 5 5h91c3 0 6 -2 5 -5l-171 -501l-29 -87c-29 -81 -59 -111 -140 -111h-130c-3 0 -5 2 -5 5v75zM206 699v-104c0 -3 -2 -5 -5 -5h-105
c-3 0 -5 2 -5 5v104c0 3 2 5 5 5h105c3 0 5 -2 5 -5zM450 699v-104c0 -3 -2 -5 -5 -5h-105c-3 0 -5 2 -5 5v104c0 3 2 5 5 5h105c3 0 5 -2 5 -5z" />
    <glyph glyph-name="Ydieresis" unicode="&#x178;" horiz-adv-x="659" 
d="M619 699l-238 -386c-3 -5 -3 -7 -3 -10v-298c0 -3 -2 -5 -5 -5h-85c-3 0 -5 2 -5 5v298c0 3 -2 5 -5 10l-236 386c-2 3 0 5 3 5h101c3 0 6 -2 8 -5l171 -285c3 -4 7 -4 10 0l172 285c3 4 7 5 10 5h99c3 0 5 -2 3 -5zM267 895v-104c0 -3 -2 -5 -5 -5h-105c-3 0 -5 2 -5 5
v104c0 3 2 5 5 5h105c3 0 5 -2 5 -5zM511 895v-104c0 -3 -2 -5 -5 -5h-105c-3 0 -5 2 -5 5v104c0 3 2 5 5 5h105c3 0 5 -2 5 -5z" />
    <glyph glyph-name="yacute" unicode="&#xfd;" horiz-adv-x="537" 
d="M37 -118c0 3 2 5 5 5h113c59 0 77 38 59 91l-9 27l-169 496c-1 4 3 5 6 5h91c3 0 4 -2 5 -5l131 -402c2 -5 8 -5 10 0l132 402c1 3 2 5 5 5h91c3 0 6 -2 5 -5l-171 -501l-29 -87c-29 -81 -59 -111 -140 -111h-130c-3 0 -5 2 -5 5v75zM290 589h-57c-4 0 -7 3 -5 7l43 101
c1 3 4 7 10 7h87c4 0 7 -3 5 -7l-72 -101c-2 -3 -6 -7 -11 -7z" />
    <glyph glyph-name="OE" unicode="&#x152;" horiz-adv-x="1104" 
d="M565 699c0 3 2 5 5 5h471c3 0 5 -2 5 -5v-75c0 -3 -2 -5 -5 -5h-376c-3 0 -5 -2 -5 -5v-209c0 -3 2 -5 5 -5h335c3 0 5 -2 5 -5v-75c0 -3 -2 -5 -5 -5h-335c-3 0 -5 -2 -5 -5v-220c0 -3 2 -5 5 -5h376c3 0 5 -2 5 -5v-75c0 -3 -2 -5 -5 -5h-471c-3 0 -5 2 -5 5v66
c-51 -52 -123 -81 -216 -81c-210 0 -316 150 -316 362s106 362 316 362c93 0 165 -30 216 -81v66zM349 75c140 0 216 104 216 277s-76 277 -216 277s-216 -104 -216 -277s76 -277 216 -277z" />
    <glyph glyph-name="oe" unicode="&#x153;" horiz-adv-x="962" 
d="M533 219c-3 0 -5 -2 -5 -5c0 -73 53 -139 142 -139c71 0 101 30 122 70c2 4 4 5 7 5h94c3 0 6 -1 5 -5c-26 -98 -115 -155 -228 -155c-81 0 -146 30 -188 83c-3 4 -7 4 -10 0c-42 -53 -108 -83 -191 -83c-157 0 -248 107 -248 263c0 157 91 263 248 263
c82 0 147 -31 190 -82c3 -4 7 -4 11 0c42 51 106 82 188 82c156 0 244 -107 244 -263c0 -10 -1 -21 -3 -29c-1 -3 -2 -5 -5 -5h-373zM434 253c0 104 -57 178 -153 178c-95 0 -153 -74 -153 -178s58 -178 153 -178c96 0 153 74 153 178zM810 299c0 57 -41 132 -140 132
c-97 0 -142 -85 -142 -132c0 -3 3 -5 5 -5h272c3 0 5 2 5 5z" />
    <glyph glyph-name="AE" unicode="&#xc6;" horiz-adv-x="1014" 
d="M420 704h59h1h471c3 0 5 -2 5 -5v-75c0 -3 -2 -5 -5 -5h-376c-3 0 -5 -2 -5 -5v-209c0 -3 2 -5 5 -5h335c3 0 5 -2 5 -5v-75c0 -3 -2 -5 -5 -5h-335c-3 0 -5 -2 -5 -5v-220c0 -3 2 -5 5 -5h376c3 0 5 -2 5 -5v-75c0 -3 -2 -5 -5 -5h-471h-1c-3 0 -4 2 -4 5v149h-263
l-84 -149c-1 -3 -2 -5 -5 -5h-93c-3 0 -7 1 -6 5l390 694c1 3 3 5 6 5zM468 604l-210 -370h217v370c-2 6 -5 6 -7 0z" />
    <glyph glyph-name="ae" unicode="&#xe6;" horiz-adv-x="933" 
d="M501 219c-3 0 -5 -2 -5 -5c0 -73 53 -139 142 -139c71 0 101 30 122 70c2 4 4 5 7 5h94c3 0 6 -1 5 -5c-26 -98 -115 -155 -228 -155c-85 0 -149 32 -191 89c-3 4 -8 5 -12 0c-45 -51 -100 -89 -193 -89c-134 0 -206 66 -206 160c0 87 72 152 216 152h53c53 0 80 2 89 10
c8 7 7 14 7 21c0 41 -10 98 -129 98c-86 0 -122 -40 -122 -91c0 -3 -2 -5 -5 -5h-86c-3 0 -5 2 -5 5c0 118 105 176 218 176c81 0 144 -22 183 -65c3 -4 6 -4 9 -1c41 41 100 66 174 66c156 0 244 -107 244 -263c0 -10 -1 -21 -3 -29c-1 -3 -2 -5 -5 -5h-373zM401 208v14
c0 3 -3 5 -5 5h-140c-107 -5 -125 -42 -125 -77c0 -36 25 -75 105 -75c121 0 163 72 165 133zM778 299c0 57 -41 132 -140 132c-97 0 -142 -85 -142 -132c0 -3 3 -5 5 -5h272c3 0 5 2 5 5z" />
    <glyph glyph-name="Eth" unicode="&#xd0;" horiz-adv-x="701" 
d="M77 5v291c0 3 -2 5 -5 5h-54c-3 0 -5 2 -5 5v75c0 3 2 5 5 5h54c3 0 5 2 5 5v308c0 3 2 5 5 5h258c210 -1 313 -149 313 -359c0 -212 -103 -345 -313 -345h-258c-3 0 -5 2 -5 5zM331 301h-154c-3 0 -5 -2 -5 -5v-206c0 -3 2 -5 5 -5h163c134 0 213 90 213 260
c0 167 -79 274 -213 274h-163c-3 0 -5 -2 -5 -5v-223c0 -3 2 -5 5 -5h154c3 0 5 -2 5 -5v-75c0 -3 -2 -5 -5 -5z" />
    <glyph glyph-name="eth" unicode="&#xf0;" horiz-adv-x="588" 
d="M332 521l-27 46c-1 2 -4 4 -8 2l-63 -33c-3 -2 -6 -1 -7 2l-26 48c-2 3 -1 6 2 7l62 33c2 1 4 4 2 8l-35 65c-2 4 2 5 5 5h88c3 0 5 -1 7 -5l13 -25c2 -4 5 -4 8 -2l57 31c3 2 6 1 8 -1l25 -49c2 -3 0 -5 -2 -7l-57 -30c-2 -1 -3 -4 -2 -6l115 -199
c25 -44 42 -97 42 -158c0 -156 -92 -263 -248 -263c-157 0 -248 107 -248 263c0 157 91 263 248 263c12 0 25 -1 36 -3c6 -1 7 5 5 8zM444 253c0 104 -57 178 -153 178c-95 0 -153 -74 -153 -178s58 -178 153 -178c96 0 153 74 153 178z" />
    <glyph glyph-name="Oslash" unicode="&#xd8;" horiz-adv-x="712" 
d="M664 352c0 -212 -105 -362 -315 -362c-96 0 -168 30 -221 84c-4 4 -8 4 -11 1l-38 -38c-2 -2 -5 -2 -7 0l-39 39c-2 2 -2 5 0 7l46 46c2 2 4 4 2 8c-31 58 -48 132 -48 215c0 212 106 362 316 362c95 0 169 -32 221 -86c3 -3 6 -2 8 0l39 39c2 2 5 2 7 0l39 -39
c2 -2 2 -5 0 -7l-47 -47c-2 -2 -2 -5 -1 -7c33 -59 49 -131 49 -215zM349 75c140 0 216 104 216 277c0 53 -6 98 -20 138c-2 6 -7 6 -10 3l-342 -342c-3 -3 -2 -6 0 -8c37 -45 87 -68 156 -68zM133 352c0 -53 7 -99 20 -138c1 -3 6 -5 9 -2l341 341c3 3 2 7 0 9
c-36 43 -88 67 -154 67c-140 0 -216 -104 -216 -277z" />
    <glyph glyph-name="thorn" unicode="&#xfe;" horiz-adv-x="607" 
d="M153 -198h-85c-3 0 -5 2 -5 5v892c0 3 2 5 5 5h85c3 0 5 -2 5 -5v-228c0 -9 5 -7 10 -3c21 16 63 48 133 48c146 0 248 -107 248 -263s-92 -263 -248 -263c-40 0 -99 16 -133 50c-3 3 -8 6 -10 0v-233c-1 -3 -2 -5 -5 -5zM454 253c0 104 -57 178 -153 178
c-91 0 -143 -74 -143 -178s52 -178 143 -178c96 0 153 74 153 178z" />
    <glyph glyph-name="Thorn" unicode="&#xde;" horiz-adv-x="622" 
d="M78 704h85c3 0 5 -2 5 -5v-143c0 -3 2 -5 5 -5h227c109 0 193 -90 194 -199c-1 -109 -85 -199 -194 -199h-227c-3 0 -5 -2 -5 -5v-143c0 -3 -2 -5 -5 -5h-85c-3 0 -5 2 -5 5v694c0 3 2 5 5 5zM501 352c-1 59 -49 114 -101 114h-227c-3 0 -5 -2 -5 -5v-218c0 -3 2 -5 5 -5
h227c52 0 100 55 101 114z" />
    <glyph glyph-name="yen" unicode="&#xa5;" horiz-adv-x="659" 
d="M378 298v-95c0 -3 2 -5 5 -5h202c3 0 5 -2 5 -5v-80c0 -3 -2 -5 -5 -5h-202c-3 0 -5 -2 -5 -5v-98c0 -3 -2 -5 -5 -5h-85c-3 0 -5 2 -5 5v98c0 3 -2 5 -5 5h-190c-3 0 -5 2 -5 5v80c0 3 2 5 5 5h190c3 0 5 2 5 5v95v-1c0 3 -2 6 -5 6h-190c-3 0 -5 2 -5 5v80c0 3 2 5 5 5
h136c3 0 4 2 2 5l-184 301c-2 3 0 5 3 5h101c3 0 6 -2 8 -5l172 -286c2 -3 6 -3 8 0l173 286c3 4 7 5 10 5h99c3 0 5 -2 3 -5l-186 -301c-2 -3 -1 -5 1 -5h151c3 0 5 -2 5 -5v-80c0 -3 -2 -5 -5 -5h-202c-3 0 -5 -2 -5 -5z" />
    <glyph glyph-name="lslash" unicode="&#x142;" horiz-adv-x="276" 
d="M88 5v220c0 2 -4 5 -8 2l-58 -46c-3 -1 -7 1 -7 5v73c0 3 1 5 3 7l67 53c2 2 3 4 3 7v373c0 3 2 5 5 5h85c3 0 5 -2 5 -5v-294c0 -4 5 -6 8 -4l58 46c3 1 7 -1 7 -5v-74c0 -2 -1 -4 -3 -5l-68 -54c-2 -2 -2 -3 -2 -4v-300c0 -3 -2 -5 -5 -5h-85c-3 0 -5 2 -5 5z" />
    <glyph glyph-name="Lslash" unicode="&#x141;" horiz-adv-x="620" 
d="M145 5v220c0 2 -4 5 -8 2l-58 -46c-3 -1 -7 1 -7 5v73c0 3 1 5 3 7l67 53c2 2 3 4 3 7v373c0 3 2 5 5 5h85c3 0 5 -2 5 -5v-294c0 -4 5 -6 8 -4l58 46c3 1 7 -1 7 -5v-74c0 -2 -1 -4 -3 -5l-68 -54c-2 -2 -2 -3 -2 -4v-215c0 -3 2 -5 5 -5h350c3 0 5 -2 5 -5v-75
c0 -3 -2 -5 -5 -5h-445c-3 0 -5 2 -5 5z" />
    <glyph glyph-name="Aring" unicode="&#xc5;" horiz-adv-x="682" 
d="M281 704h123c3 0 5 -2 6 -5l233 -694c1 -3 -2 -5 -5 -5h-94c-3 0 -4 2 -5 5l-46 143c-1 4 -4 5 -7 5h-290c-3 0 -5 -2 -6 -5l-47 -143c-1 -3 -2 -5 -5 -5h-93c-3 0 -7 1 -6 5l236 694c1 3 3 5 6 5zM223 233h237c3 0 5 2 4 5l-117 366c-2 6 -8 6 -10 0l-118 -366
c-1 -3 1 -5 4 -5zM428 823c0 -48 -40 -87 -88 -87s-87 39 -87 87s39 88 87 88s88 -40 88 -88zM385 823c0 25 -20 45 -45 45s-45 -20 -45 -45s20 -45 45 -45s45 20 45 45z" />
    <glyph glyph-name="egrave" unicode="&#xe8;" horiz-adv-x="549" 
d="M138 219c-3 0 -5 -2 -5 -5c0 -73 53 -139 142 -139c71 0 106 30 127 70c2 4 4 5 7 5h89c3 0 6 -1 5 -5c-26 -98 -115 -155 -228 -155c-150 0 -243 107 -243 263c0 157 88 263 243 263c156 0 244 -107 244 -263c0 -10 -1 -21 -3 -29c-1 -3 -2 -5 -5 -5h-373zM415 299
c0 57 -41 132 -140 132c-97 0 -142 -85 -142 -132c0 -3 3 -5 5 -5h272c3 0 5 2 5 5zM319 589h-57c-5 0 -9 4 -11 7l-72 101c-2 4 1 7 5 7h87c6 0 9 -4 10 -7l43 -101c2 -4 -1 -7 -5 -7z" />
    <glyph glyph-name="eacute" unicode="&#xe9;" horiz-adv-x="549" 
d="M138 219c-3 0 -5 -2 -5 -5c0 -73 53 -139 142 -139c71 0 106 30 127 70c2 4 4 5 7 5h89c3 0 6 -1 5 -5c-26 -98 -115 -155 -228 -155c-150 0 -243 107 -243 263c0 157 88 263 243 263c156 0 244 -107 244 -263c0 -10 -1 -21 -3 -29c-1 -3 -2 -5 -5 -5h-373zM415 299
c0 57 -41 132 -140 132c-97 0 -142 -85 -142 -132c0 -3 3 -5 5 -5h272c3 0 5 2 5 5zM301 589h-57c-4 0 -7 3 -5 7l43 101c1 3 4 7 10 7h87c4 0 7 -3 5 -7l-72 -101c-2 -3 -6 -7 -11 -7z" />
    <glyph glyph-name="ecircumflex" unicode="&#xea;" horiz-adv-x="549" 
d="M138 219c-3 0 -5 -2 -5 -5c0 -73 53 -139 142 -139c71 0 106 30 127 70c2 4 4 5 7 5h89c3 0 6 -1 5 -5c-26 -98 -115 -155 -228 -155c-150 0 -243 107 -243 263c0 157 88 263 243 263c156 0 244 -107 244 -263c0 -10 -1 -21 -3 -29c-1 -3 -2 -5 -5 -5h-373zM415 299
c0 57 -41 132 -140 132c-97 0 -142 -85 -142 -132c0 -3 3 -5 5 -5h272c3 0 5 2 5 5zM382 589h-60c-2 0 -4 1 -6 4l-29 41c-3 5 -8 5 -11 0l-29 -41c-2 -3 -4 -4 -6 -4h-60c-4 0 -7 3 -5 7l44 104c1 3 3 4 5 4h114c2 0 4 -1 5 -4l43 -104c2 -4 -1 -7 -5 -7z" />
    <glyph glyph-name="edieresis" unicode="&#xeb;" horiz-adv-x="549" 
d="M138 219c-3 0 -5 -2 -5 -5c0 -73 53 -139 142 -139c71 0 106 30 127 70c2 4 4 5 7 5h89c3 0 6 -1 5 -5c-26 -98 -115 -155 -228 -155c-150 0 -243 107 -243 263c0 157 88 263 243 263c156 0 244 -107 244 -263c0 -10 -1 -21 -3 -29c-1 -3 -2 -5 -5 -5h-373zM415 299
c0 57 -41 132 -140 132c-97 0 -142 -85 -142 -132c0 -3 3 -5 5 -5h272c3 0 5 2 5 5zM217 699v-104c0 -3 -2 -5 -5 -5h-105c-3 0 -5 2 -5 5v104c0 3 2 5 5 5h105c3 0 5 -2 5 -5zM461 699v-104c0 -3 -2 -5 -5 -5h-105c-3 0 -5 2 -5 5v104c0 3 2 5 5 5h105c3 0 5 -2 5 -5z" />
    <glyph glyph-name="ograve" unicode="&#xf2;" horiz-adv-x="567" 
d="M529 253c0 -156 -92 -263 -248 -263c-157 0 -248 107 -248 263c0 157 91 263 248 263c156 0 248 -107 248 -263zM434 253c0 104 -57 178 -153 178c-95 0 -153 -74 -153 -178s58 -178 153 -178c96 0 153 74 153 178zM328 589h-57c-5 0 -9 4 -11 7l-72 101c-2 4 1 7 5 7h87
c6 0 9 -4 10 -7l43 -101c2 -4 -1 -7 -5 -7z" />
    <glyph glyph-name="oacute" unicode="&#xf3;" horiz-adv-x="567" 
d="M529 253c0 -156 -92 -263 -248 -263c-157 0 -248 107 -248 263c0 157 91 263 248 263c156 0 248 -107 248 -263zM434 253c0 104 -57 178 -153 178c-95 0 -153 -74 -153 -178s58 -178 153 -178c96 0 153 74 153 178zM290 589h-57c-4 0 -7 3 -5 7l43 101c1 3 4 7 10 7h87
c4 0 7 -3 5 -7l-72 -101c-2 -3 -6 -7 -11 -7z" />
    <glyph glyph-name="ocircumflex" unicode="&#xf4;" horiz-adv-x="567" 
d="M529 253c0 -156 -92 -263 -248 -263c-157 0 -248 107 -248 263c0 157 91 263 248 263c156 0 248 -107 248 -263zM434 253c0 104 -57 178 -153 178c-95 0 -153 -74 -153 -178s58 -178 153 -178c96 0 153 74 153 178zM384 589h-60c-2 0 -4 1 -6 4l-29 41c-3 5 -8 5 -11 0
l-29 -41c-2 -3 -4 -4 -6 -4h-60c-4 0 -7 3 -5 7l44 104c1 3 3 4 5 4h114c2 0 4 -1 5 -4l43 -104c2 -4 -1 -7 -5 -7z" />
    <glyph glyph-name="otilde" unicode="&#xf5;" horiz-adv-x="567" 
d="M529 253c0 -156 -92 -263 -248 -263c-157 0 -248 107 -248 263c0 157 91 263 248 263c156 0 248 -107 248 -263zM434 253c0 104 -57 178 -153 178c-95 0 -153 -74 -153 -178s58 -178 153 -178c96 0 153 74 153 178zM125 595v23c0 35 23 86 102 86c58 0 87 -46 107 -46
c9 0 32 -2 32 41c0 3 2 5 5 5h60c3 0 5 -2 5 -5v-24c0 -34 -24 -85 -102 -85c-53 0 -84 46 -107 46c-9 0 -32 2 -32 -41c0 -3 -2 -5 -5 -5h-60c-3 0 -5 2 -5 5z" />
    <glyph glyph-name="odieresis" unicode="&#xf6;" horiz-adv-x="567" 
d="M529 253c0 -156 -92 -263 -248 -263c-157 0 -248 107 -248 263c0 157 91 263 248 263c156 0 248 -107 248 -263zM434 253c0 104 -57 178 -153 178c-95 0 -153 -74 -153 -178s58 -178 153 -178c96 0 153 74 153 178zM216 699v-104c0 -3 -2 -5 -5 -5h-105c-3 0 -5 2 -5 5
v104c0 3 2 5 5 5h105c3 0 5 -2 5 -5zM460 699v-104c0 -3 -2 -5 -5 -5h-105c-3 0 -5 2 -5 5v104c0 3 2 5 5 5h105c3 0 5 -2 5 -5z" />
    <glyph glyph-name="udieresis" unicode="&#xfc;" horiz-adv-x="559" 
d="M498 0h-75c-3 0 -4 2 -5 5l-10 45c-2 6 -9 4 -11 1c-18 -26 -67 -61 -131 -61c-165 0 -218 106 -218 236v275c0 3 2 5 5 5h85c3 0 5 -2 5 -5v-275c0 -76 34 -151 133 -151c84 0 132 73 132 151v275c0 3 2 5 5 5h85c3 0 5 -2 5 -5v-496c0 -3 -2 -5 -5 -5zM212 699v-104
c0 -3 -2 -5 -5 -5h-105c-3 0 -5 2 -5 5v104c0 3 2 5 5 5h105c3 0 5 -2 5 -5zM456 699v-104c0 -3 -2 -5 -5 -5h-105c-3 0 -5 2 -5 5v104c0 3 2 5 5 5h105c3 0 5 -2 5 -5z" />
    <glyph glyph-name="ucircumflex" unicode="&#xfb;" horiz-adv-x="559" 
d="M498 0h-75c-3 0 -4 2 -5 5l-10 45c-2 6 -9 4 -11 1c-18 -26 -67 -61 -131 -61c-165 0 -218 106 -218 236v275c0 3 2 5 5 5h85c3 0 5 -2 5 -5v-275c0 -76 34 -151 133 -151c84 0 132 73 132 151v275c0 3 2 5 5 5h85c3 0 5 -2 5 -5v-496c0 -3 -2 -5 -5 -5zM377 589h-60
c-2 0 -4 1 -6 4l-29 41c-3 5 -8 5 -11 0l-29 -41c-2 -3 -4 -4 -6 -4h-60c-4 0 -7 3 -5 7l44 104c1 3 3 4 5 4h114c2 0 4 -1 5 -4l43 -104c2 -4 -1 -7 -5 -7z" />
    <glyph glyph-name="uacute" unicode="&#xfa;" horiz-adv-x="559" 
d="M498 0h-75c-3 0 -4 2 -5 5l-10 45c-2 6 -9 4 -11 1c-18 -26 -67 -61 -131 -61c-165 0 -218 106 -218 236v275c0 3 2 5 5 5h85c3 0 5 -2 5 -5v-275c0 -76 34 -151 133 -151c84 0 132 73 132 151v275c0 3 2 5 5 5h85c3 0 5 -2 5 -5v-496c0 -3 -2 -5 -5 -5zM276 589h-57
c-4 0 -7 3 -5 7l43 101c1 3 4 7 10 7h87c4 0 7 -3 5 -7l-72 -101c-2 -3 -6 -7 -11 -7z" />
    <glyph glyph-name="ugrave" unicode="&#xf9;" horiz-adv-x="559" 
d="M498 0h-75c-3 0 -4 2 -5 5l-10 45c-2 6 -9 4 -11 1c-18 -26 -67 -61 -131 -61c-165 0 -218 106 -218 236v275c0 3 2 5 5 5h85c3 0 5 -2 5 -5v-275c0 -76 34 -151 133 -151c84 0 132 73 132 151v275c0 3 2 5 5 5h85c3 0 5 -2 5 -5v-496c0 -3 -2 -5 -5 -5zM324 589h-57
c-5 0 -9 4 -11 7l-72 101c-2 4 1 7 5 7h87c6 0 9 -4 10 -7l43 -101c2 -4 -1 -7 -5 -7z" />
    <glyph glyph-name="breve.case" horiz-adv-x="236" 
d="M161 898h63c3 0 5 -2 5 -5c0 -83 -61 -110 -114 -110c-52 0 -114 27 -114 110c0 3 2 5 5 5h62c3 0 5 -2 5 -5c0 -28 24 -38 42 -38c19 0 41 10 41 38c0 3 2 5 5 5z" />
    <glyph glyph-name="caron.case" horiz-adv-x="236" 
d="M155 898h60c4 0 7 -3 5 -7l-43 -104c-1 -3 -3 -4 -5 -4h-114c-2 0 -4 1 -5 4l-44 104c-2 4 1 7 5 7h60c2 0 4 -1 6 -4l30 -41c3 -4 8 -4 11 0l28 41c2 3 4 4 6 4z" />
    <glyph glyph-name="circumflex.case" horiz-adv-x="236" 
d="M216 783h-60c-2 0 -4 1 -6 4l-29 41c-3 5 -8 5 -11 0l-29 -41c-2 -3 -4 -4 -6 -4h-60c-4 0 -7 3 -5 7l44 104c1 3 3 4 5 4h114c2 0 4 -1 5 -4l43 -104c2 -4 -1 -7 -5 -7z" />
    <glyph glyph-name="acute.case" horiz-adv-x="236" 
d="M125 783h-57c-4 0 -7 3 -5 7l43 101c1 3 4 7 10 7h87c4 0 7 -3 5 -7l-72 -101c-2 -3 -6 -7 -11 -7z" />
    <glyph glyph-name="macron.case" horiz-adv-x="236" 
d="M238 783h-246c-2 0 -4 2 -4 5v58c0 3 2 5 4 5h246c3 0 5 -2 5 -5v-58c0 -3 -2 -5 -5 -5z" />
    <glyph glyph-name="dieresis.case" horiz-adv-x="236" 
d="M51 893v-105c0 -3 -2 -5 -5 -5h-105c-3 0 -5 2 -5 5v105c0 3 2 5 5 5h105c3 0 5 -2 5 -5zM295 893v-105c0 -3 -2 -5 -5 -5h-105c-3 0 -5 2 -5 5v105c0 3 2 5 5 5h105c3 0 5 -2 5 -5z" />
    <glyph glyph-name="grave.case" horiz-adv-x="236" 
d="M183 783h-57c-5 0 -9 4 -11 7l-72 101c-2 4 1 7 5 7h87c6 0 9 -4 10 -7l43 -101c2 -4 -1 -7 -5 -7z" />
    <glyph glyph-name="dotaccent.case" horiz-adv-x="236" 
d="M180 783h-129c-3 0 -5 2 -5 5v132c0 3 2 5 5 5h129c3 0 5 -2 5 -5v-132c0 -3 -2 -5 -5 -5z" />
    <glyph glyph-name="ring.case" horiz-adv-x="236" 
d="M203 823c0 -48 -40 -87 -88 -87s-87 39 -87 87s39 88 87 88s88 -40 88 -88zM160 823c0 25 -20 45 -45 45s-45 -20 -45 -45s20 -45 45 -45s45 20 45 45z" />
    <glyph glyph-name="tilde.case" horiz-adv-x="236" 
d="M-39 788v23c0 35 23 86 102 86c58 0 87 -46 107 -46c9 0 32 -2 32 41c0 3 2 5 5 5h60c3 0 5 -2 5 -5v-24c0 -34 -24 -85 -102 -85c-53 0 -84 46 -107 46c-9 0 -32 2 -32 -41c0 -3 -2 -5 -5 -5h-60c-3 0 -5 2 -5 5z" />
    <glyph glyph-name="hungarumlaut.case" horiz-adv-x="236" 
d="M45 760h-109c-3 0 -4 2 -4 5l29 132c0 3 3 5 6 5h109c3 0 4 -2 4 -5l-29 -132c0 -3 -3 -5 -6 -5zM265 760h-109c-3 0 -4 2 -4 5l29 132c0 3 3 5 6 5h109c3 0 4 -2 4 -5l-29 -132c0 -3 -3 -5 -6 -5z" />
    <glyph glyph-name="caron.salt" horiz-adv-x="236" 
d="M156 898h60c4 0 7 -3 5 -7l-43 -104c-1 -3 -3 -4 -5 -4h-114c-2 0 -4 1 -5 4l-44 104c-2 4 1 7 5 7h60c2 0 4 -1 6 -4l30 -41c3 -4 8 -4 11 0l28 41c2 3 4 4 6 4z" />
    <glyph glyph-name="commaaccent.salt" horiz-adv-x="5" 
 />
    <glyph glyph-name="gcircumflex" unicode="&#x11d;" horiz-adv-x="568" 
d="M154 -59c8 -23 44 -64 127 -64c105 0 142 72 142 142v27c0 4 -6 8 -10 2c-11 -14 -73 -58 -143 -58c-136 0 -238 107 -238 263s92 263 238 263c50 0 115 -28 143 -56c3 -3 8 -5 10 1l10 40c1 3 2 5 5 5h75c3 0 5 -2 5 -5v-482c0 -135 -96 -227 -237 -227
c-123 0 -216 69 -224 149c0 3 2 5 5 5h87c3 0 4 -2 5 -5zM127 253c0 -104 57 -178 153 -178c91 0 143 74 143 178s-52 178 -143 178c-96 0 -153 -74 -153 -178zM381 589h-60c-2 0 -4 1 -6 4l-29 41c-3 5 -8 5 -11 0l-29 -41c-2 -3 -4 -4 -6 -4h-60c-4 0 -7 3 -5 7l44 104
c1 3 3 4 5 4h114c2 0 4 -1 5 -4l43 -104c2 -4 -1 -7 -5 -7z" />
    <glyph glyph-name="gbreve" unicode="&#x11f;" horiz-adv-x="568" 
d="M154 -59c8 -23 44 -64 127 -64c105 0 142 72 142 142v27c0 4 -6 8 -10 2c-11 -14 -73 -58 -143 -58c-136 0 -238 107 -238 263s92 263 238 263c50 0 115 -28 143 -56c3 -3 8 -5 10 1l10 40c1 3 2 5 5 5h75c3 0 5 -2 5 -5v-482c0 -135 -96 -227 -237 -227
c-123 0 -216 69 -224 149c0 3 2 5 5 5h87c3 0 4 -2 5 -5zM127 253c0 -104 57 -178 153 -178c91 0 143 74 143 178s-52 178 -143 178c-96 0 -153 -74 -153 -178zM327 704h63c3 0 5 -2 5 -5c0 -83 -61 -110 -114 -110c-52 0 -114 27 -114 110c0 3 2 5 5 5h62c3 0 5 -2 5 -5
c0 -28 24 -38 42 -38c19 0 41 10 41 38c0 3 2 5 5 5z" />
    <glyph glyph-name="commaaccent" unicode="&#xf6c3;" horiz-adv-x="236" 
d="M100 198h-44c-3 0 -5 2 -5 5v122c0 3 2 5 5 5h120c3 0 5 -2 5 -5v-121c0 -76 -51 -129 -125 -129c-3 0 -5 2 -5 5v55c0 3 2 5 5 5c20 0 49 18 49 53c0 3 -2 5 -5 5z" />
    <glyph glyph-name="abreve" unicode="&#x103;" horiz-adv-x="582" 
d="M562 80v-75c0 -3 -2 -5 -5 -5h-29c-57 0 -91 14 -106 46c-2 5 -7 4 -9 2c-24 -25 -86 -58 -178 -58c-134 0 -200 65 -200 160c0 87 73 152 220 152h112c22 0 33 19 33 33c0 41 -10 96 -129 96c-86 0 -125 -40 -125 -91c0 -3 -2 -5 -5 -5h-85c-3 0 -5 2 -5 5
c0 118 107 176 220 176c138 0 224 -59 224 -181v-217c0 -15 12 -33 33 -33h29c3 0 5 -2 5 -5zM400 208v14c0 3 -2 5 -5 5h-140c-106 0 -125 -42 -125 -77c0 -36 25 -75 105 -75c121 0 163 72 165 133zM317 704h63c3 0 5 -2 5 -5c0 -83 -61 -110 -114 -110
c-52 0 -114 27 -114 110c0 3 2 5 5 5h62c3 0 5 -2 5 -5c0 -28 24 -38 42 -38c19 0 41 10 41 38c0 3 2 5 5 5z" />
    <glyph glyph-name="cacute" unicode="&#x107;" horiz-adv-x="547" 
d="M513 335h-89c-3 0 -5 2 -6 5c-22 59 -70 91 -138 91c-95 0 -152 -74 -152 -178s57 -178 152 -178c68 0 116 32 138 91c1 3 3 5 6 5h89c3 0 6 -1 5 -5c-28 -111 -111 -176 -238 -176c-157 0 -247 107 -247 263c0 157 90 263 247 263c127 0 211 -66 238 -176
c1 -4 -2 -5 -5 -5zM290 589h-57c-4 0 -7 3 -5 7l43 101c1 3 4 7 10 7h87c4 0 7 -3 5 -7l-72 -101c-2 -3 -6 -7 -11 -7z" />
    <glyph glyph-name="ccircumflex" unicode="&#x109;" horiz-adv-x="547" 
d="M513 335h-89c-3 0 -5 2 -6 5c-22 59 -70 91 -138 91c-95 0 -152 -74 -152 -178s57 -178 152 -178c68 0 116 32 138 91c1 3 3 5 6 5h89c3 0 6 -1 5 -5c-28 -111 -111 -176 -238 -176c-157 0 -247 107 -247 263c0 157 90 263 247 263c127 0 211 -66 238 -176
c1 -4 -2 -5 -5 -5zM381 589h-60c-2 0 -4 1 -6 4l-29 41c-3 5 -8 5 -11 0l-29 -41c-2 -3 -4 -4 -6 -4h-60c-4 0 -7 3 -5 7l44 104c1 3 3 4 5 4h114c2 0 4 -1 5 -4l43 -104c2 -4 -1 -7 -5 -7z" />
    <glyph glyph-name="Cdotaccent" unicode="&#x10a;" horiz-adv-x="683" 
d="M551 215c1 4 4 5 7 5h88c3 0 5 -1 5 -5c0 -66 -79 -225 -288 -225c-220 0 -316 150 -316 362s116 362 316 362c218 0 288 -170 288 -225c0 -4 -2 -5 -5 -5h-88c-3 0 -6 2 -7 5c-15 43 -56 140 -188 140c-140 0 -216 -104 -216 -277s76 -277 216 -277
c120 0 172 87 188 140zM433 783h-129c-3 0 -5 2 -5 5v132c0 3 2 5 5 5h129c3 0 5 -2 5 -5v-132c0 -3 -2 -5 -5 -5z" />
    <glyph glyph-name="cdotaccent" unicode="&#x10b;" horiz-adv-x="547" 
d="M513 335h-89c-3 0 -5 2 -6 5c-22 59 -70 91 -138 91c-95 0 -152 -74 -152 -178s57 -178 152 -178c68 0 116 32 138 91c1 3 3 5 6 5h89c3 0 6 -1 5 -5c-28 -111 -111 -176 -238 -176c-157 0 -247 107 -247 263c0 157 90 263 247 263c127 0 211 -66 238 -176
c1 -4 -2 -5 -5 -5zM345 562h-129c-3 0 -5 2 -5 5v132c0 3 2 5 5 5h129c3 0 5 -2 5 -5v-132c0 -3 -2 -5 -5 -5z" />
    <glyph glyph-name="ccaron" unicode="&#x10d;" horiz-adv-x="547" 
d="M513 335h-89c-3 0 -5 2 -6 5c-22 59 -70 91 -138 91c-95 0 -152 -74 -152 -178s57 -178 152 -178c68 0 116 32 138 91c1 3 3 5 6 5h89c3 0 6 -1 5 -5c-28 -111 -111 -176 -238 -176c-157 0 -247 107 -247 263c0 157 90 263 247 263c127 0 211 -66 238 -176
c1 -4 -2 -5 -5 -5zM319 704h60c4 0 7 -3 5 -7l-43 -104c-1 -3 -3 -4 -5 -4h-114c-2 0 -4 1 -5 4l-44 104c-2 4 1 7 5 7h60c2 0 4 -1 6 -4l30 -41c3 -4 8 -4 11 0l28 41c2 3 4 4 6 4z" />
    <glyph glyph-name="ebreve" unicode="&#x115;" horiz-adv-x="549" 
d="M138 219c-3 0 -5 -2 -5 -5c0 -73 53 -139 142 -139c71 0 106 30 127 70c2 4 4 5 7 5h89c3 0 6 -1 5 -5c-26 -98 -115 -155 -228 -155c-150 0 -243 107 -243 263c0 157 88 263 243 263c156 0 244 -107 244 -263c0 -10 -1 -21 -3 -29c-1 -3 -2 -5 -5 -5h-373zM415 299
c0 57 -41 132 -140 132c-97 0 -142 -85 -142 -132c0 -3 3 -5 5 -5h272c3 0 5 2 5 5zM318 704h63c3 0 5 -2 5 -5c0 -83 -61 -110 -114 -110c-52 0 -114 27 -114 110c0 3 2 5 5 5h62c3 0 5 -2 5 -5c0 -28 24 -38 42 -38c19 0 41 10 41 38c0 3 2 5 5 5z" />
    <glyph glyph-name="Edotaccent" unicode="&#x116;" horiz-adv-x="612" 
d="M63 699c0 3 2 5 5 5h481c3 0 5 -2 5 -5v-75c0 -3 -2 -5 -5 -5h-386c-3 0 -5 -2 -5 -5v-204c0 -3 2 -5 5 -5h345c3 0 5 -2 5 -5v-75c0 -3 -2 -5 -5 -5h-345c-3 0 -5 -2 -5 -5v-225c0 -3 2 -5 5 -5h386c3 0 5 -2 5 -5v-75c0 -3 -2 -5 -5 -5h-481c-3 0 -5 2 -5 5v694z
M378 783h-129c-3 0 -5 2 -5 5v132c0 3 2 5 5 5h129c3 0 5 -2 5 -5v-132c0 -3 -2 -5 -5 -5z" />
    <glyph glyph-name="edotaccent" unicode="&#x117;" horiz-adv-x="549" 
d="M138 219c-3 0 -5 -2 -5 -5c0 -73 53 -139 142 -139c71 0 106 30 127 70c2 4 4 5 7 5h89c3 0 6 -1 5 -5c-26 -98 -115 -155 -228 -155c-150 0 -243 107 -243 263c0 157 88 263 243 263c156 0 244 -107 244 -263c0 -10 -1 -21 -3 -29c-1 -3 -2 -5 -5 -5h-373zM415 299
c0 57 -41 132 -140 132c-97 0 -142 -85 -142 -132c0 -3 3 -5 5 -5h272c3 0 5 2 5 5zM336 562h-129c-3 0 -5 2 -5 5v132c0 3 2 5 5 5h129c3 0 5 -2 5 -5v-132c0 -3 -2 -5 -5 -5z" />
    <glyph glyph-name="ecaron" unicode="&#x11b;" horiz-adv-x="549" 
d="M138 219c-3 0 -5 -2 -5 -5c0 -73 53 -139 142 -139c71 0 106 30 127 70c2 4 4 5 7 5h89c3 0 6 -1 5 -5c-26 -98 -115 -155 -228 -155c-150 0 -243 107 -243 263c0 157 88 263 243 263c156 0 244 -107 244 -263c0 -10 -1 -21 -3 -29c-1 -3 -2 -5 -5 -5h-373zM415 299
c0 57 -41 132 -140 132c-97 0 -142 -85 -142 -132c0 -3 3 -5 5 -5h272c3 0 5 2 5 5zM320 704h60c4 0 7 -3 5 -7l-43 -104c-1 -3 -3 -4 -5 -4h-114c-2 0 -4 1 -5 4l-44 104c-2 4 1 7 5 7h60c2 0 4 -1 6 -4l30 -41c3 -4 8 -4 11 0l28 41c2 3 4 4 6 4z" />
    <glyph glyph-name="gdotaccent" unicode="&#x121;" horiz-adv-x="568" 
d="M154 -59c8 -23 44 -64 127 -64c105 0 142 72 142 142v27c0 4 -6 8 -10 2c-11 -14 -73 -58 -143 -58c-136 0 -238 107 -238 263s92 263 238 263c50 0 115 -28 143 -56c3 -3 8 -5 10 1l10 40c1 3 2 5 5 5h75c3 0 5 -2 5 -5v-482c0 -135 -96 -227 -237 -227
c-123 0 -216 69 -224 149c0 3 2 5 5 5h87c3 0 4 -2 5 -5zM127 253c0 -104 57 -178 153 -178c91 0 143 74 143 178s-52 178 -143 178c-96 0 -153 -74 -153 -178zM346 562h-129c-3 0 -5 2 -5 5v132c0 3 2 5 5 5h129c3 0 5 -2 5 -5v-132c0 -3 -2 -5 -5 -5z" />
    <glyph glyph-name="uni0122" unicode="&#x122;" horiz-adv-x="723" 
d="M335 -134h-22c-3 0 -5 2 -5 5v69c0 3 2 5 5 5h68c3 0 5 -2 5 -5v-71c0 -45 -29 -77 -73 -77c-3 0 -5 2 -5 5v29c0 3 2 5 5 5c12 0 27 9 27 30c0 3 -2 5 -5 5zM660 5c0 -3 -2 -5 -5 -5h-73c-3 0 -6 1 -7 6l-10 70c0 4 -6 6 -9 2c-31 -42 -115 -88 -207 -88
c-220 0 -316 150 -316 362s116 362 316 362c179 0 257 -101 286 -203c1 -4 -2 -5 -5 -5h-93c-3 0 -5 1 -6 5c-30 78 -98 118 -182 118c-140 0 -216 -104 -216 -277s76 -277 216 -277s216 69 216 230c0 3 -2 5 -5 5h-206c-3 0 -5 2 -5 5v75c0 3 2 5 5 5h301c3 0 5 -2 5 -5
v-385z" />
    <glyph glyph-name="uni0123" unicode="&#x123;" horiz-adv-x="568" 
d="M154 -59c8 -23 44 -64 127 -64c105 0 142 72 142 142v27c0 4 -6 8 -10 2c-11 -14 -73 -58 -143 -58c-136 0 -238 107 -238 263s92 263 238 263c50 0 115 -28 143 -56c3 -3 8 -5 10 1l10 40c1 3 2 5 5 5h75c3 0 5 -2 5 -5v-482c0 -135 -96 -227 -237 -227
c-123 0 -216 69 -224 149c0 3 2 5 5 5h87c3 0 4 -2 5 -5zM127 253c0 -104 57 -178 153 -178c91 0 143 74 143 178s-52 178 -143 178c-96 0 -153 -74 -153 -178zM283 630h22c3 0 5 -2 5 -5v-69c0 -3 -2 -5 -5 -5h-68c-3 0 -5 2 -5 5v71c0 45 29 77 73 77c3 0 5 -2 5 -5v-29
c0 -3 -2 -5 -5 -5c-12 0 -27 -9 -27 -30c0 -3 2 -5 5 -5z" />
    <glyph glyph-name="itilde" unicode="&#x129;" horiz-adv-x="242" 
d="M158 501v-496c0 -3 -2 -5 -5 -5h-85c-3 0 -5 2 -5 5v496c0 3 2 5 5 5h85c3 0 5 -2 5 -5zM-37 595v23c0 35 23 86 102 86c58 0 87 -46 107 -46c9 0 32 -2 32 41c0 3 2 5 5 5h60c3 0 5 -2 5 -5v-24c0 -34 -24 -85 -102 -85c-53 0 -84 46 -107 46c-9 0 -32 2 -32 -41
c0 -3 -2 -5 -5 -5h-60c-3 0 -5 2 -5 5z" />
    <glyph glyph-name="Idotaccent" unicode="&#x130;" horiz-adv-x="236" 
d="M68 704h85c3 0 5 -2 5 -5v-694c0 -3 -2 -5 -5 -5h-85c-3 0 -5 2 -5 5v694c0 3 2 5 5 5zM180 783h-129c-3 0 -5 2 -5 5v132c0 3 2 5 5 5h129c3 0 5 -2 5 -5v-132c0 -3 -2 -5 -5 -5z" />
    <glyph glyph-name="IJ" unicode="&#x132;" 
d="M456 699v-694c0 -3 -2 -5 -5 -5h-411c-3 0 -5 2 -5 5v694c0 3 2 5 5 5h411c3 0 5 -2 5 -5zM246 375l173 306h-346zM73 24h346l-173 305zM259 352l173 -304v608c-57 -99 -118 -205 -173 -304zM60 47l173 305l-173 305v-610z" />
    <glyph glyph-name="ij" unicode="&#x133;" 
d="M456 699v-694c0 -3 -2 -5 -5 -5h-411c-3 0 -5 2 -5 5v694c0 3 2 5 5 5h411c3 0 5 -2 5 -5zM246 375l173 306h-346zM73 24h346l-173 305zM259 352l173 -304v608c-57 -99 -118 -205 -173 -304zM60 47l173 305l-173 305v-610z" />
    <glyph glyph-name="jcircumflex" unicode="&#x135;" horiz-adv-x="300" 
d="M13 -193v75c0 3 2 5 5 5h59c40 0 54 19 54 50v564c0 3 2 5 5 5h85c3 0 5 -2 5 -5v-581c0 -82 -48 -120 -131 -118h-77c-3 0 -5 2 -5 5zM277 589h-60c-2 0 -4 1 -6 4l-29 41c-3 5 -8 5 -11 0l-29 -41c-2 -3 -4 -4 -6 -4h-60c-4 0 -7 3 -5 7l44 104c1 3 3 4 5 4h114
c2 0 4 -1 5 -4l43 -104c2 -4 -1 -7 -5 -7z" />
    <glyph glyph-name="uni0136" unicode="&#x136;" horiz-adv-x="623" 
d="M495 5l-232 353c-2 3 -4 2 -6 0l-90 -89c-3 -3 -4 -5 -4 -8v-256c0 -3 -2 -5 -5 -5h-85c-3 0 -5 2 -5 5v694c0 3 2 5 5 5h85c3 0 5 -2 5 -5v-299c0 -3 2 -4 4 -2l307 301c2 2 5 5 8 5h114c3 0 5 -3 3 -5l-269 -267c-2 -2 -2 -5 0 -8l275 -419c2 -2 0 -5 -3 -5h-99
c-3 0 -6 3 -8 5zM311 -134h-22c-3 0 -5 2 -5 5v69c0 3 2 5 5 5h68c3 0 5 -2 5 -5v-71c0 -45 -29 -77 -73 -77c-3 0 -5 2 -5 5v29c0 3 2 5 5 5c12 0 27 9 27 30c0 3 -2 5 -5 5z" />
    <glyph glyph-name="uni0137" unicode="&#x137;" horiz-adv-x="568" 
d="M541 0h-90c-3 0 -7 2 -9 5l-159 273c-2 3 -4 3 -7 0l-114 -98c-2 -2 -2 -3 -2 -6v-169c0 -3 -2 -5 -5 -5h-85c-3 0 -5 2 -5 5v694c0 3 2 5 5 5h85c3 0 5 -2 5 -5v-392c0 -3 4 -5 7 -2l230 196c6 5 12 5 15 5h123c3 0 5 -3 3 -5l-186 -158c-2 -2 -2 -5 0 -8l193 -330
c1 -2 -1 -5 -4 -5zM281 -134h-22c-3 0 -5 2 -5 5v69c0 3 2 5 5 5h68c3 0 5 -2 5 -5v-71c0 -45 -29 -77 -73 -77c-3 0 -5 2 -5 5v29c0 3 2 5 5 5c12 0 27 9 27 30c0 3 -2 5 -5 5z" />
    <glyph glyph-name="kgreenlandic" unicode="&#x138;" horiz-adv-x="568" 
d="M541 0h-90c-3 0 -7 2 -9 5l-159 273c-2 3 -4 3 -7 0l-114 -98c-2 -2 -2 -3 -2 -6v-169c0 -3 -2 -5 -5 -5h-85c-3 0 -5 2 -5 5v496c0 3 2 5 5 5h85c3 0 5 -2 5 -5v-194c0 -3 4 -5 7 -2l230 196c6 5 12 5 15 5h123c3 0 5 -3 3 -5l-186 -158c-2 -2 -2 -5 0 -8l193 -330
c1 -2 -1 -5 -4 -5z" />
    <glyph glyph-name="uni013B" unicode="&#x13b;" horiz-adv-x="541" 
d="M281 -134h-22c-3 0 -5 2 -5 5v69c0 3 2 5 5 5h68c3 0 5 -2 5 -5v-71c0 -45 -29 -77 -73 -77c-3 0 -5 2 -5 5v29c0 3 2 5 5 5c12 0 27 9 27 30c0 3 -2 5 -5 5zM69 5v694c0 3 2 5 5 5h85c3 0 5 -2 5 -5v-609c0 -3 2 -5 5 -5h350c3 0 5 -2 5 -5v-75c0 -3 -2 -5 -5 -5h-445
c-3 0 -5 2 -5 5z" />
    <glyph glyph-name="uni013C" unicode="&#x13c;" horiz-adv-x="240" 
d="M163 699v-694c0 -3 -2 -5 -5 -5h-85c-3 0 -5 2 -5 5v694c0 3 2 5 5 5h85c3 0 5 -2 5 -5zM104 -134h-22c-3 0 -5 2 -5 5v69c0 3 2 5 5 5h68c3 0 5 -2 5 -5v-71c0 -45 -29 -77 -73 -77c-3 0 -5 2 -5 5v29c0 3 2 5 5 5c12 0 27 9 27 30c0 3 -2 5 -5 5z" />
    <glyph glyph-name="Lcaron" unicode="&#x13d;" horiz-adv-x="541" 
d="M242 625h-22c-3 0 -5 2 -5 5v69c0 3 2 5 5 5h68c3 0 5 -2 5 -5v-71c0 -45 -29 -77 -73 -77c-3 0 -5 2 -5 5v29c0 3 2 5 5 5c12 0 27 9 27 30c0 3 -2 5 -5 5zM69 5v694c0 3 2 5 5 5h85c3 0 5 -2 5 -5v-609c0 -3 2 -5 5 -5h350c3 0 5 -2 5 -5v-75c0 -3 -2 -5 -5 -5h-445
c-3 0 -5 2 -5 5z" />
    <glyph glyph-name="lcaron" unicode="&#x13e;" horiz-adv-x="313" 
d="M242 625h-22c-3 0 -5 2 -5 5v69c0 3 2 5 5 5h68c3 0 5 -2 5 -5v-71c0 -45 -29 -77 -73 -77c-3 0 -5 2 -5 5v29c0 3 2 5 5 5c12 0 27 9 27 30c0 3 -2 5 -5 5zM163 699v-694c0 -3 -2 -5 -5 -5h-85c-3 0 -5 2 -5 5v694c0 3 2 5 5 5h85c3 0 5 -2 5 -5z" />
    <glyph glyph-name="Ldot" unicode="&#x13f;" horiz-adv-x="544" 
d="M69 5v694c0 3 2 5 5 5h85c3 0 5 -2 5 -5v-609c0 -3 2 -5 5 -5h350c3 0 5 -2 5 -5v-75c0 -3 -2 -5 -5 -5h-445c-3 0 -5 2 -5 5zM412 276h-149c-3 0 -5 2 -5 5v151c0 3 2 5 5 5h149c3 0 5 -2 5 -5v-151c0 -3 -2 -5 -5 -5z" />
    <glyph glyph-name="ldot" unicode="&#x140;" horiz-adv-x="390" 
d="M163 699v-694c0 -3 -2 -5 -5 -5h-85c-3 0 -5 2 -5 5v694c0 3 2 5 5 5h85c3 0 5 -2 5 -5zM365 276h-149c-3 0 -5 2 -5 5v151c0 3 2 5 5 5h149c3 0 5 -2 5 -5v-151c0 -3 -2 -5 -5 -5z" />
    <glyph glyph-name="nacute" unicode="&#x144;" horiz-adv-x="563" 
d="M65 506h75c3 0 4 -2 5 -5l10 -45c2 -6 9 -4 11 -1c21 29 64 61 131 61c145 0 218 -106 218 -236v-275c0 -3 -2 -5 -5 -5h-85c-3 0 -5 2 -5 5v275c0 76 -34 151 -133 151c-84 0 -132 -73 -132 -151v-275c0 -3 -2 -5 -5 -5h-85c-3 0 -5 2 -5 5v496c0 3 2 5 5 5zM258 589
h-57c-4 0 -7 3 -5 7l43 101c1 3 4 7 10 7h87c4 0 7 -3 5 -7l-72 -101c-2 -3 -6 -7 -11 -7z" />
    <glyph glyph-name="uni0145" unicode="&#x145;" horiz-adv-x="669" 
d="M321 -134h-22c-3 0 -5 2 -5 5v69c0 3 2 5 5 5h68c3 0 5 -2 5 -5v-71c0 -45 -29 -77 -73 -77c-3 0 -5 2 -5 5v29c0 3 2 5 5 5c12 0 27 9 27 30c0 3 -2 5 -5 5zM541 704h85c3 0 5 -2 5 -5v-694c0 -3 -2 -5 -5 -5h-147c-3 0 -6 2 -8 5l-303 601c-2 4 -10 4 -10 -2v-599
c0 -3 -2 -5 -5 -5h-85c-3 0 -5 2 -5 5v694c0 3 2 5 5 5h148c3 0 5 -1 7 -5l303 -600c3 -6 10 -5 10 1v599c0 3 2 5 5 5z" />
    <glyph glyph-name="uni0146" unicode="&#x146;" horiz-adv-x="563" 
d="M65 506h75c3 0 4 -2 5 -5l10 -45c2 -6 9 -4 11 -1c21 29 64 61 131 61c145 0 218 -106 218 -236v-275c0 -3 -2 -5 -5 -5h-85c-3 0 -5 2 -5 5v275c0 76 -34 151 -133 151c-84 0 -132 -73 -132 -151v-275c0 -3 -2 -5 -5 -5h-85c-3 0 -5 2 -5 5v496c0 3 2 5 5 5zM281 -134
h-22c-3 0 -5 2 -5 5v69c0 3 2 5 5 5h68c3 0 5 -2 5 -5v-71c0 -45 -29 -77 -73 -77c-3 0 -5 2 -5 5v29c0 3 2 5 5 5c12 0 27 9 27 30c0 3 -2 5 -5 5z" />
    <glyph glyph-name="ncaron" unicode="&#x148;" horiz-adv-x="563" 
d="M65 506h75c3 0 4 -2 5 -5l10 -45c2 -6 9 -4 11 -1c21 29 64 61 131 61c145 0 218 -106 218 -236v-275c0 -3 -2 -5 -5 -5h-85c-3 0 -5 2 -5 5v275c0 76 -34 151 -133 151c-84 0 -132 -73 -132 -151v-275c0 -3 -2 -5 -5 -5h-85c-3 0 -5 2 -5 5v496c0 3 2 5 5 5zM327 704h60
c4 0 7 -3 5 -7l-43 -104c-1 -3 -3 -4 -5 -4h-114c-2 0 -4 1 -5 4l-44 104c-2 4 1 7 5 7h60c2 0 4 -1 6 -4l30 -41c3 -4 8 -4 11 0l28 41c2 3 4 4 6 4z" />
    <glyph glyph-name="napostrophe" unicode="&#x149;" horiz-adv-x="563" 
d="M87 625h-22c-3 0 -5 2 -5 5v69c0 3 2 5 5 5h68c3 0 5 -2 5 -5v-71c0 -45 -29 -77 -73 -77c-3 0 -5 2 -5 5v29c0 3 2 5 5 5c12 0 27 9 27 30c0 3 -2 5 -5 5zM65 506h75c3 0 4 -2 5 -5l10 -45c2 -6 9 -4 11 -1c21 29 64 61 131 61c145 0 218 -106 218 -236v-275
c0 -3 -2 -5 -5 -5h-85c-3 0 -5 2 -5 5v275c0 76 -34 151 -133 151c-84 0 -132 -73 -132 -151v-275c0 -3 -2 -5 -5 -5h-85c-3 0 -5 2 -5 5v496c0 3 2 5 5 5z" />
    <glyph glyph-name="omacron" unicode="&#x14d;" horiz-adv-x="567" 
d="M529 253c0 -156 -92 -263 -248 -263c-157 0 -248 107 -248 263c0 157 91 263 248 263c156 0 248 -107 248 -263zM434 253c0 104 -57 178 -153 178c-95 0 -153 -74 -153 -178s58 -178 153 -178c96 0 153 74 153 178zM403 589h-246c-2 0 -4 2 -4 5v58c0 3 2 5 4 5h246
c3 0 5 -2 5 -5v-58c0 -3 -2 -5 -5 -5z" />
    <glyph glyph-name="obreve" unicode="&#x14f;" horiz-adv-x="567" 
d="M529 253c0 -156 -92 -263 -248 -263c-157 0 -248 107 -248 263c0 157 91 263 248 263c156 0 248 -107 248 -263zM434 253c0 104 -57 178 -153 178c-95 0 -153 -74 -153 -178s58 -178 153 -178c96 0 153 74 153 178zM327 704h63c3 0 5 -2 5 -5c0 -83 -61 -110 -114 -110
c-52 0 -114 27 -114 110c0 3 2 5 5 5h62c3 0 5 -2 5 -5c0 -28 24 -38 42 -38c19 0 41 10 41 38c0 3 2 5 5 5z" />
    <glyph glyph-name="Ohungarumlaut" unicode="&#x150;" horiz-adv-x="712" 
d="M664 352c0 -212 -105 -362 -315 -362s-316 150 -316 362s106 362 316 362s315 -150 315 -362zM349 75c140 0 216 104 216 277s-76 277 -216 277s-216 -104 -216 -277s76 -277 216 -277zM282 759h-109c-3 0 -4 2 -4 5l29 132c0 3 3 5 6 5h109c3 0 4 -2 4 -5l-29 -132
c0 -3 -3 -5 -6 -5zM502 759h-109c-3 0 -4 2 -4 5l29 132c0 3 3 5 6 5h109c3 0 4 -2 4 -5l-29 -132c0 -3 -3 -5 -6 -5z" />
    <glyph glyph-name="ohungarumlaut" unicode="&#x151;" horiz-adv-x="567" 
d="M529 253c0 -156 -92 -263 -248 -263c-157 0 -248 107 -248 263c0 157 91 263 248 263c156 0 248 -107 248 -263zM434 253c0 104 -57 178 -153 178c-95 0 -153 -74 -153 -178s58 -178 153 -178c96 0 153 74 153 178zM220 562h-109c-3 0 -4 2 -4 5l29 132c0 3 3 5 6 5h109
c3 0 4 -2 4 -5l-29 -132c0 -3 -3 -5 -6 -5zM440 562h-109c-3 0 -4 2 -4 5l29 132c0 3 3 5 6 5h109c3 0 4 -2 4 -5l-29 -132c0 -3 -3 -5 -6 -5z" />
    <glyph glyph-name="racute" unicode="&#x155;" horiz-adv-x="374" 
d="M341 431h-51c-84 0 -132 -73 -132 -151v-275c0 -3 -2 -5 -5 -5h-85c-3 0 -5 2 -5 5v496c0 3 2 5 5 5h75c3 0 4 -2 5 -5l10 -45c2 -6 8 -4 11 -1c34 34 71 61 121 61h51c3 0 5 -2 5 -5v-75c0 -3 -2 -5 -5 -5zM212 589h-57c-4 0 -7 3 -5 7l43 101c1 3 4 7 10 7h87
c4 0 7 -3 5 -7l-72 -101c-2 -3 -6 -7 -11 -7z" />
    <glyph glyph-name="uni0156" unicode="&#x156;" horiz-adv-x="609" 
d="M73 699c0 3 2 5 5 5h292c110 0 204 -95 204 -214c0 -87 -50 -159 -119 -191c-2 -1 -4 -3 -2 -7l128 -287c2 -5 -2 -5 -5 -5h-83c-3 0 -7 0 -10 5l-120 270c-1 3 -4 5 -7 5h-183c-3 0 -5 -2 -5 -5v-270c0 -3 -2 -5 -5 -5h-85c-3 0 -5 2 -5 5v694zM358 619h-185
c-3 0 -5 -2 -5 -5v-244c0 -3 2 -5 5 -5h189c61 2 117 57 117 125c0 69 -58 129 -121 129zM308 -134h-22c-3 0 -5 2 -5 5v69c0 3 2 5 5 5h68c3 0 5 -2 5 -5v-71c0 -45 -29 -77 -73 -77c-3 0 -5 2 -5 5v29c0 3 2 5 5 5c12 0 27 9 27 30c0 3 -2 5 -5 5z" />
    <glyph glyph-name="uni0157" unicode="&#x157;" horiz-adv-x="374" 
d="M341 431h-51c-84 0 -132 -73 -132 -151v-275c0 -3 -2 -5 -5 -5h-85c-3 0 -5 2 -5 5v496c0 3 2 5 5 5h75c3 0 4 -2 5 -5l10 -45c2 -6 8 -4 11 -1c34 34 71 61 121 61h51c3 0 5 -2 5 -5v-75c0 -3 -2 -5 -5 -5zM99 -134h-22c-3 0 -5 2 -5 5v69c0 3 2 5 5 5h68c3 0 5 -2 5 -5
v-71c0 -45 -29 -77 -73 -77c-3 0 -5 2 -5 5v29c0 3 2 5 5 5c12 0 27 9 27 30c0 3 -2 5 -5 5z" />
    <glyph glyph-name="Rcaron" unicode="&#x158;" horiz-adv-x="639" 
d="M73 699c0 3 2 5 5 5h292c110 0 204 -95 204 -214c0 -87 -50 -159 -119 -191c-2 -1 -4 -3 -2 -7l128 -287c2 -5 -2 -5 -5 -5h-83c-3 0 -7 0 -10 5l-120 270c-1 3 -4 5 -7 5h-183c-3 0 -5 -2 -5 -5v-270c0 -3 -2 -5 -5 -5h-85c-3 0 -5 2 -5 5v694zM358 619h-185
c-3 0 -5 -2 -5 -5v-244c0 -3 2 -5 5 -5h189c61 2 117 57 117 125c0 69 -58 129 -121 129zM340 901h60c4 0 7 -3 5 -7l-43 -104c-1 -3 -3 -4 -5 -4h-114c-2 0 -4 1 -5 4l-44 104c-2 4 1 7 5 7h60c2 0 4 -1 6 -4l30 -41c3 -4 8 -4 11 0l28 41c2 3 4 4 6 4z" />
    <glyph glyph-name="rcaron" unicode="&#x159;" horiz-adv-x="374" 
d="M341 431h-51c-84 0 -132 -73 -132 -151v-275c0 -3 -2 -5 -5 -5h-85c-3 0 -5 2 -5 5v496c0 3 2 5 5 5h75c3 0 4 -2 5 -5l10 -45c2 -6 8 -4 11 -1c34 34 71 61 121 61h51c3 0 5 -2 5 -5v-75c0 -3 -2 -5 -5 -5zM232 704h60c4 0 7 -3 5 -7l-43 -104c-1 -3 -3 -4 -5 -4h-114
c-2 0 -4 1 -5 4l-44 104c-2 4 1 7 5 7h60c2 0 4 -1 6 -4l30 -41c3 -4 8 -4 11 0l28 41c2 3 4 4 6 4z" />
    <glyph glyph-name="sacute" unicode="&#x15b;" horiz-adv-x="518" 
d="M468 335h-86c-3 0 -5 2 -5 5c0 55 -44 91 -125 91c-75 0 -108 -33 -108 -64c0 -57 72 -58 122 -65c100 -13 220 -23 220 -151c0 -114 -95 -161 -220 -161c-152 0 -226 80 -226 176c0 3 2 5 5 5h84c3 0 6 -2 6 -5c0 -50 51 -91 131 -91c51 0 125 11 125 76
c0 57 -83 61 -125 66c-96 11 -217 26 -217 150c0 82 79 149 203 149c123 0 220 -58 220 -176c0 -3 -1 -5 -4 -5zM275 589h-57c-4 0 -7 3 -5 7l43 101c1 3 4 7 10 7h87c4 0 7 -3 5 -7l-72 -101c-2 -3 -6 -7 -11 -7z" />
    <glyph glyph-name="scircumflex" unicode="&#x15d;" horiz-adv-x="518" 
d="M468 335h-86c-3 0 -5 2 -5 5c0 55 -44 91 -125 91c-75 0 -108 -33 -108 -64c0 -57 72 -58 122 -65c100 -13 220 -23 220 -151c0 -114 -95 -161 -220 -161c-152 0 -226 80 -226 176c0 3 2 5 5 5h84c3 0 6 -2 6 -5c0 -50 51 -91 131 -91c51 0 125 11 125 76
c0 57 -83 61 -125 66c-96 11 -217 26 -217 150c0 82 79 149 203 149c123 0 220 -58 220 -176c0 -3 -1 -5 -4 -5zM356 589h-60c-2 0 -4 1 -6 4l-29 41c-3 5 -8 5 -11 0l-29 -41c-2 -3 -4 -4 -6 -4h-60c-4 0 -7 3 -5 7l44 104c1 3 3 4 5 4h114c2 0 4 -1 5 -4l43 -104
c2 -4 -1 -7 -5 -7z" />
    <glyph glyph-name="uni0162" unicode="&#x162;" horiz-adv-x="542" 
d="M251 -134h-22c-3 0 -5 2 -5 5v69c0 3 2 5 5 5h68c3 0 5 -2 5 -5v-71c0 -45 -29 -77 -73 -77c-3 0 -5 2 -5 5v29c0 3 2 5 5 5c12 0 27 9 27 30c0 3 -2 5 -5 5zM216 5v610c-1 2 -3 4 -5 4h-193c-3 0 -5 2 -5 5v75c0 3 2 5 5 5h491c3 0 5 -2 5 -5v-75c0 -3 -2 -5 -5 -5h-193
c-3 0 -5 -2 -5 -5v-609c0 -3 -2 -5 -5 -5h-85c-3 0 -5 2 -5 5z" />
    <glyph glyph-name="uni0163" unicode="&#x163;" horiz-adv-x="355" 
d="M196 -134h-22c-3 0 -5 2 -5 5v69c0 3 2 5 5 5h68c3 0 5 -2 5 -5v-71c0 -45 -29 -77 -73 -77c-3 0 -5 2 -5 5v29c0 3 2 5 5 5c12 0 27 9 27 30c0 3 -2 5 -5 5zM326 80v-75c0 -3 -2 -5 -5 -5h-77c-83 -2 -131 36 -131 118v308c0 3 -2 5 -5 5h-89c-3 0 -5 2 -5 5v65
c0 3 2 5 5 5h89c3 0 5 2 5 5v135c0 3 2 5 5 5h85c3 0 5 -2 5 -5v-135c0 -3 2 -5 5 -5h108c3 0 5 -2 5 -5v-65c0 -3 -2 -5 -5 -5h-108c-3 0 -5 -2 -5 -5v-291c0 -31 14 -50 54 -50h59c3 0 5 -2 5 -5z" />
    <glyph glyph-name="Tcaron" unicode="&#x164;" horiz-adv-x="542" 
d="M216 5v610c-1 2 -3 4 -5 4h-193c-3 0 -5 2 -5 5v75c0 3 2 5 5 5h491c3 0 5 -2 5 -5v-75c0 -3 -2 -5 -5 -5h-193c-3 0 -5 -2 -5 -5v-609c0 -3 -2 -5 -5 -5h-85c-3 0 -5 2 -5 5zM304 901h60c4 0 7 -3 5 -7l-43 -104c-1 -3 -3 -4 -5 -4h-114c-2 0 -4 1 -5 4l-44 104
c-2 4 1 7 5 7h60c2 0 4 -1 6 -4l30 -41c3 -4 8 -4 11 0l28 41c2 3 4 4 6 4z" />
    <glyph glyph-name="tcaron" unicode="&#x165;" horiz-adv-x="355" 
d="M285 625h-22c-3 0 -5 2 -5 5v69c0 3 2 5 5 5h68c3 0 5 -2 5 -5v-71c0 -45 -29 -77 -73 -77c-3 0 -5 2 -5 5v29c0 3 2 5 5 5c12 0 27 9 27 30c0 3 -2 5 -5 5zM326 80v-75c0 -3 -2 -5 -5 -5h-77c-83 -2 -131 36 -131 118v308c0 3 -2 5 -5 5h-89c-3 0 -5 2 -5 5v65
c0 3 2 5 5 5h89c3 0 5 2 5 5v135c0 3 2 5 5 5h85c3 0 5 -2 5 -5v-135c0 -3 2 -5 5 -5h108c3 0 5 -2 5 -5v-65c0 -3 -2 -5 -5 -5h-108c-3 0 -5 -2 -5 -5v-291c0 -31 14 -50 54 -50h59c3 0 5 -2 5 -5z" />
    <glyph glyph-name="Tbar" unicode="&#x166;" horiz-adv-x="542" 
d="M216 511v104c-1 2 -3 4 -5 4h-193c-3 0 -5 2 -5 5v75c0 3 2 5 5 5h491c3 0 5 -2 5 -5v-75c0 -3 -2 -5 -5 -5h-193c-3 0 -5 -2 -5 -5v-103c0 -3 2 -5 5 -5h156c3 0 5 -2 5 -5v-55c0 -3 -2 -5 -5 -5h-156c-3 0 -5 -2 -5 -5v-431c0 -3 -2 -5 -5 -5h-85c-3 0 -5 2 -5 5v431
c0 3 -2 5 -5 5h-156c-3 0 -5 2 -5 5v55c0 3 2 5 5 5h156c3 0 5 2 5 5z" />
    <glyph glyph-name="tbar" unicode="&#x167;" horiz-adv-x="355" 
d="M208 247v-112c0 -31 14 -50 54 -50h59c3 0 5 -2 5 -5v-75c0 -3 -2 -5 -5 -5h-77c-83 -2 -131 36 -131 118v129c0 3 -2 5 -5 5h-89c-3 0 -5 2 -5 5v65c0 3 2 5 5 5h89c3 0 5 2 5 5v94c0 3 -2 5 -5 5h-89c-3 0 -5 2 -5 5v65c0 3 2 5 5 5h89c3 0 5 2 5 5v135c0 3 2 5 5 5h85
c3 0 5 -2 5 -5v-135c0 -3 2 -5 5 -5h108c3 0 5 -2 5 -5v-65c0 -3 -2 -5 -5 -5h-108c-3 0 -5 -2 -5 -5v-94c0 -3 2 -5 5 -5h108c3 0 5 -2 5 -5v-65c0 -3 -2 -5 -5 -5h-108c-3 0 -5 -2 -5 -5z" />
    <glyph glyph-name="utilde" unicode="&#x169;" horiz-adv-x="559" 
d="M498 0h-75c-3 0 -4 2 -5 5l-10 45c-2 6 -9 4 -11 1c-18 -26 -67 -61 -131 -61c-165 0 -218 106 -218 236v275c0 3 2 5 5 5h85c3 0 5 -2 5 -5v-275c0 -76 34 -151 133 -151c84 0 132 73 132 151v275c0 3 2 5 5 5h85c3 0 5 -2 5 -5v-496c0 -3 -2 -5 -5 -5zM121 595v23
c0 35 23 86 102 86c58 0 87 -46 107 -46c9 0 32 -2 32 41c0 3 2 5 5 5h60c3 0 5 -2 5 -5v-24c0 -34 -24 -85 -102 -85c-53 0 -84 46 -107 46c-9 0 -32 2 -32 -41c0 -3 -2 -5 -5 -5h-60c-3 0 -5 2 -5 5z" />
    <glyph glyph-name="umacron" unicode="&#x16b;" horiz-adv-x="559" 
d="M498 0h-75c-3 0 -4 2 -5 5l-10 45c-2 6 -9 4 -11 1c-18 -26 -67 -61 -131 -61c-165 0 -218 106 -218 236v275c0 3 2 5 5 5h85c3 0 5 -2 5 -5v-275c0 -76 34 -151 133 -151c84 0 132 73 132 151v275c0 3 2 5 5 5h85c3 0 5 -2 5 -5v-496c0 -3 -2 -5 -5 -5zM399 589h-246
c-2 0 -4 2 -4 5v58c0 3 2 5 4 5h246c3 0 5 -2 5 -5v-58c0 -3 -2 -5 -5 -5z" />
    <glyph glyph-name="ubreve" unicode="&#x16d;" horiz-adv-x="559" 
d="M498 0h-75c-3 0 -4 2 -5 5l-10 45c-2 6 -9 4 -11 1c-18 -26 -67 -61 -131 -61c-165 0 -218 106 -218 236v275c0 3 2 5 5 5h85c3 0 5 -2 5 -5v-275c0 -76 34 -151 133 -151c84 0 132 73 132 151v275c0 3 2 5 5 5h85c3 0 5 -2 5 -5v-496c0 -3 -2 -5 -5 -5zM323 704h63
c3 0 5 -2 5 -5c0 -83 -61 -110 -114 -110c-52 0 -114 27 -114 110c0 3 2 5 5 5h62c3 0 5 -2 5 -5c0 -28 24 -38 42 -38c19 0 41 10 41 38c0 3 2 5 5 5z" />
    <glyph glyph-name="Uring" unicode="&#x16e;" horiz-adv-x="621" 
d="M148 699v-460c0 -85 70 -164 156 -164c85 0 154 79 154 164v460c0 3 2 5 5 5h85c3 0 5 -2 5 -5v-460c0 -139 -110 -249 -249 -249s-251 110 -251 249v460c0 3 2 5 5 5h85c3 0 5 -2 5 -5zM395 824c0 -48 -40 -87 -88 -87s-87 39 -87 87s39 88 87 88s88 -40 88 -88z
M352 824c0 25 -20 45 -45 45s-45 -20 -45 -45s20 -45 45 -45s45 20 45 45z" />
    <glyph glyph-name="uring" unicode="&#x16f;" horiz-adv-x="559" 
d="M498 0h-75c-3 0 -4 2 -5 5l-10 45c-2 6 -9 4 -11 1c-18 -26 -67 -61 -131 -61c-165 0 -218 106 -218 236v275c0 3 2 5 5 5h85c3 0 5 -2 5 -5v-275c0 -76 34 -151 133 -151c84 0 132 73 132 151v275c0 3 2 5 5 5h85c3 0 5 -2 5 -5v-496c0 -3 -2 -5 -5 -5zM364 625
c0 -48 -40 -87 -88 -87s-87 39 -87 87s39 88 87 88s88 -40 88 -88zM321 625c0 25 -20 45 -45 45s-45 -20 -45 -45s20 -45 45 -45s45 20 45 45z" />
    <glyph glyph-name="Uhungarumlaut" unicode="&#x170;" horiz-adv-x="621" 
d="M148 699v-460c0 -85 70 -164 156 -164c85 0 154 79 154 164v460c0 3 2 5 5 5h85c3 0 5 -2 5 -5v-460c0 -139 -110 -249 -249 -249s-251 110 -251 249v460c0 3 2 5 5 5h85c3 0 5 -2 5 -5zM237 759h-109c-3 0 -4 2 -4 5l29 132c0 3 3 5 6 5h109c3 0 4 -2 4 -5l-29 -132
c0 -3 -3 -5 -6 -5zM457 759h-109c-3 0 -4 2 -4 5l29 132c0 3 3 5 6 5h109c3 0 4 -2 4 -5l-29 -132c0 -3 -3 -5 -6 -5z" />
    <glyph glyph-name="uhungarumlaut" unicode="&#x171;" horiz-adv-x="559" 
d="M498 0h-75c-3 0 -4 2 -5 5l-10 45c-2 6 -9 4 -11 1c-18 -26 -67 -61 -131 -61c-165 0 -218 106 -218 236v275c0 3 2 5 5 5h85c3 0 5 -2 5 -5v-275c0 -76 34 -151 133 -151c84 0 132 73 132 151v275c0 3 2 5 5 5h85c3 0 5 -2 5 -5v-496c0 -3 -2 -5 -5 -5zM206 562h-109
c-3 0 -4 2 -4 5l29 132c0 3 3 5 6 5h109c3 0 4 -2 4 -5l-29 -132c0 -3 -3 -5 -6 -5zM426 562h-109c-3 0 -4 2 -4 5l29 132c0 3 3 5 6 5h109c3 0 4 -2 4 -5l-29 -132c0 -3 -3 -5 -6 -5z" />
    <glyph glyph-name="wcircumflex" unicode="&#x175;" horiz-adv-x="810" 
d="M645 0h-127c-3 0 -4 2 -5 5l-97 399c-1 5 -9 5 -10 0l-96 -399c-1 -3 -2 -5 -5 -5h-127c-3 0 -5 2 -6 5l-119 496c-1 4 3 5 6 5h85c3 0 4 -2 5 -5l87 -402c1 -5 9 -5 10 0l99 402c1 3 2 5 5 5h123c3 0 4 -2 5 -5l99 -402c1 -5 9 -5 10 0l87 402c1 3 2 5 5 5h85
c3 0 7 -1 6 -5l-119 -496c-1 -3 -3 -5 -6 -5zM512 589h-60c-2 0 -4 1 -6 4l-29 41c-3 5 -8 5 -11 0l-29 -41c-2 -3 -4 -4 -6 -4h-60c-4 0 -7 3 -5 7l44 104c1 3 3 4 5 4h114c2 0 4 -1 5 -4l43 -104c2 -4 -1 -7 -5 -7z" />
    <glyph glyph-name="ycircumflex" unicode="&#x177;" horiz-adv-x="541" 
d="M37 -118c0 3 2 5 5 5h113c59 0 77 38 59 91l-9 27l-169 496c-1 4 3 5 6 5h91c3 0 4 -2 5 -5l131 -402c2 -5 8 -5 10 0l132 402c1 3 2 5 5 5h91c3 0 6 -2 5 -5l-171 -501l-29 -87c-29 -81 -59 -111 -140 -111h-130c-3 0 -5 2 -5 5v75zM368 589h-60c-2 0 -4 1 -6 4l-29 41
c-3 5 -8 5 -11 0l-29 -41c-2 -3 -4 -4 -6 -4h-60c-4 0 -7 3 -5 7l44 104c1 3 3 4 5 4h114c2 0 4 -1 5 -4l43 -104c2 -4 -1 -7 -5 -7z" />
    <glyph glyph-name="zacute" unicode="&#x17a;" horiz-adv-x="468" 
d="M25 5v75c0 3 2 7 4 10l268 323c2 2 1 8 -4 8h-252c-3 0 -5 2 -5 5v75c0 3 2 5 5 5h369c3 0 5 -2 5 -5v-75c0 -3 -1 -6 -4 -10l-266 -323c-3 -3 0 -8 4 -8h274c3 0 5 -2 5 -5v-75c0 -3 -2 -5 -5 -5h-393c-3 0 -5 2 -5 5zM231 589h-57c-4 0 -7 3 -5 7l43 101c1 3 4 7 10 7
h87c4 0 7 -3 5 -7l-72 -101c-2 -3 -6 -7 -11 -7z" />
    <glyph glyph-name="Zdotaccent" unicode="&#x17b;" horiz-adv-x="565" 
d="M25 5v70c0 10 1 10 3 13l381 525c2 3 1 6 -2 6h-377c-3 0 -5 2 -5 5v75c0 3 2 5 5 5h490c3 0 5 -2 5 -5v-70c0 -10 0 -10 -2 -13l-383 -526c-2 -3 -1 -5 2 -5h378c3 0 5 -2 5 -5v-75c0 -3 -2 -5 -5 -5h-490c-3 0 -5 2 -5 5zM330 802h-129c-3 0 -5 2 -5 5v132c0 3 2 5 5 5
h129c3 0 5 -2 5 -5v-132c0 -3 -2 -5 -5 -5z" />
    <glyph glyph-name="zdotaccent" unicode="&#x17c;" horiz-adv-x="468" 
d="M25 5v75c0 3 2 7 4 10l268 323c2 2 1 8 -4 8h-252c-3 0 -5 2 -5 5v75c0 3 2 5 5 5h369c3 0 5 -2 5 -5v-75c0 -3 -1 -6 -4 -10l-266 -323c-3 -3 0 -8 4 -8h274c3 0 5 -2 5 -5v-75c0 -3 -2 -5 -5 -5h-393c-3 0 -5 2 -5 5zM297 562h-129c-3 0 -5 2 -5 5v132c0 3 2 5 5 5h129
c3 0 5 -2 5 -5v-132c0 -3 -2 -5 -5 -5z" />
    <glyph glyph-name="wgrave" unicode="&#x1e81;" horiz-adv-x="810" 
d="M645 0h-127c-3 0 -4 2 -5 5l-97 399c-1 5 -9 5 -10 0l-96 -399c-1 -3 -2 -5 -5 -5h-127c-3 0 -5 2 -6 5l-119 496c-1 4 3 5 6 5h85c3 0 4 -2 5 -5l87 -402c1 -5 9 -5 10 0l99 402c1 3 2 5 5 5h123c3 0 4 -2 5 -5l99 -402c1 -5 9 -5 10 0l87 402c1 3 2 5 5 5h85
c3 0 7 -1 6 -5l-119 -496c-1 -3 -3 -5 -6 -5zM439 589h-57c-5 0 -9 4 -11 7l-72 101c-2 4 1 7 5 7h87c6 0 9 -4 10 -7l43 -101c2 -4 -1 -7 -5 -7z" />
    <glyph glyph-name="wacute" unicode="&#x1e83;" horiz-adv-x="810" 
d="M645 0h-127c-3 0 -4 2 -5 5l-97 399c-1 5 -9 5 -10 0l-96 -399c-1 -3 -2 -5 -5 -5h-127c-3 0 -5 2 -6 5l-119 496c-1 4 3 5 6 5h85c3 0 4 -2 5 -5l87 -402c1 -5 9 -5 10 0l99 402c1 3 2 5 5 5h123c3 0 4 -2 5 -5l99 -402c1 -5 9 -5 10 0l87 402c1 3 2 5 5 5h85
c3 0 7 -1 6 -5l-119 -496c-1 -3 -3 -5 -6 -5zM441 589h-57c-4 0 -7 3 -5 7l43 101c1 3 4 7 10 7h87c4 0 7 -3 5 -7l-72 -101c-2 -3 -6 -7 -11 -7z" />
    <glyph glyph-name="Wdieresis" unicode="&#x1e84;" horiz-adv-x="948" 
d="M563 699l124 -599c1 -6 9 -6 10 0l110 599c1 3 2 5 5 5h91c3 0 7 -1 6 -5l-138 -694c-1 -3 -3 -5 -6 -5h-152c-3 0 -4 2 -5 5l-129 598c-1 5 -9 5 -10 0l-129 -598c-1 -3 -2 -5 -5 -5h-152c-3 0 -5 2 -6 5l-138 694c-1 4 3 5 6 5h91c3 0 4 -2 5 -5l110 -599
c1 -6 9 -6 10 0l124 599c1 3 2 5 5 5h168c3 0 4 -2 5 -5zM407 939v-105c0 -3 -2 -5 -5 -5h-105c-3 0 -5 2 -5 5v105c0 3 2 5 5 5h105c3 0 5 -2 5 -5zM651 939v-105c0 -3 -2 -5 -5 -5h-105c-3 0 -5 2 -5 5v105c0 3 2 5 5 5h105c3 0 5 -2 5 -5z" />
    <glyph glyph-name="wdieresis" unicode="&#x1e85;" horiz-adv-x="810" 
d="M645 0h-127c-3 0 -4 2 -5 5l-97 399c-1 5 -9 5 -10 0l-96 -399c-1 -3 -2 -5 -5 -5h-127c-3 0 -5 2 -6 5l-119 496c-1 4 3 5 6 5h85c3 0 4 -2 5 -5l87 -402c1 -5 9 -5 10 0l99 402c1 3 2 5 5 5h123c3 0 4 -2 5 -5l99 -402c1 -5 9 -5 10 0l87 402c1 3 2 5 5 5h85
c3 0 7 -1 6 -5l-119 -496c-1 -3 -3 -5 -6 -5zM348 699v-104c0 -3 -2 -5 -5 -5h-105c-3 0 -5 2 -5 5v104c0 3 2 5 5 5h105c3 0 5 -2 5 -5zM592 699v-104c0 -3 -2 -5 -5 -5h-105c-3 0 -5 2 -5 5v104c0 3 2 5 5 5h105c3 0 5 -2 5 -5z" />
    <glyph glyph-name="f_f" unicode="&#xfb00;" horiz-adv-x="685" 
d="M326 699v-75c0 -3 -2 -5 -5 -5h-66c-30 0 -47 -19 -47 -50v-58c0 -3 2 -5 5 -5h108c3 0 5 -2 5 -5v-65c0 -3 -2 -5 -5 -5h-108c-3 0 -5 -2 -5 -5v-421c0 -3 -2 -5 -5 -5h-85c-3 0 -5 2 -5 5v421c0 3 -2 5 -5 5h-89c-3 0 -5 2 -5 5v65c0 3 2 5 5 5h89c3 0 5 2 5 5v75
c0 82 48 120 141 118h67c3 0 5 -2 5 -5zM666 699v-75c0 -3 -2 -5 -5 -5h-66c-30 0 -47 -19 -47 -50v-58c0 -3 2 -5 5 -5h108c3 0 5 -2 5 -5v-65c0 -3 -2 -5 -5 -5h-108c-3 0 -5 -2 -5 -5v-421c0 -3 -2 -5 -5 -5h-85c-3 0 -5 2 -5 5v421c0 3 -2 5 -5 5h-89c-3 0 -5 2 -5 5v65
c0 3 2 5 5 5h89c3 0 5 2 5 5v75c0 82 48 120 141 118h67c3 0 5 -2 5 -5z" />
    <glyph glyph-name="f_f_i" unicode="&#xfb03;" horiz-adv-x="926" 
d="M326 699v-75c0 -3 -2 -5 -5 -5h-66c-30 0 -47 -19 -47 -50v-58c0 -3 2 -5 5 -5h108c3 0 5 -2 5 -5v-65c0 -3 -2 -5 -5 -5h-108c-3 0 -5 -2 -5 -5v-421c0 -3 -2 -5 -5 -5h-85c-3 0 -5 2 -5 5v421c0 3 -2 5 -5 5h-89c-3 0 -5 2 -5 5v65c0 3 2 5 5 5h89c3 0 5 2 5 5v75
c0 82 48 120 141 118h67c3 0 5 -2 5 -5zM666 699v-75c0 -3 -2 -5 -5 -5h-66c-30 0 -47 -19 -47 -50v-58c0 -3 2 -5 5 -5h108c3 0 5 -2 5 -5v-65c0 -3 -2 -5 -5 -5h-108c-3 0 -5 -2 -5 -5v-421c0 -3 -2 -5 -5 -5h-85c-3 0 -5 2 -5 5v421c0 3 -2 5 -5 5h-89c-3 0 -5 2 -5 5v65
c0 3 2 5 5 5h89c3 0 5 2 5 5v75c0 82 48 120 141 118h67c3 0 5 -2 5 -5zM848 501v-496c0 -3 -2 -5 -5 -5h-85c-3 0 -5 2 -5 5v496c0 3 2 5 5 5h85c3 0 5 -2 5 -5zM858 699v-105c0 -3 -2 -5 -5 -5h-105c-3 0 -5 2 -5 5v105c0 3 2 5 5 5h105c3 0 5 -2 5 -5z" />
    <glyph glyph-name="f_f_l" unicode="&#xfb04;" horiz-adv-x="920" 
d="M326 699v-75c0 -3 -2 -5 -5 -5h-66c-30 0 -47 -19 -47 -50v-58c0 -3 2 -5 5 -5h108c3 0 5 -2 5 -5v-65c0 -3 -2 -5 -5 -5h-108c-3 0 -5 -2 -5 -5v-421c0 -3 -2 -5 -5 -5h-85c-3 0 -5 2 -5 5v421c0 3 -2 5 -5 5h-89c-3 0 -5 2 -5 5v65c0 3 2 5 5 5h89c3 0 5 2 5 5v75
c0 82 48 120 141 118h67c3 0 5 -2 5 -5zM666 699v-75c0 -3 -2 -5 -5 -5h-66c-30 0 -47 -19 -47 -50v-58c0 -3 2 -5 5 -5h108c3 0 5 -2 5 -5v-65c0 -3 -2 -5 -5 -5h-108c-3 0 -5 -2 -5 -5v-421c0 -3 -2 -5 -5 -5h-85c-3 0 -5 2 -5 5v421c0 3 -2 5 -5 5h-89c-3 0 -5 2 -5 5v65
c0 3 2 5 5 5h89c3 0 5 2 5 5v75c0 82 48 120 141 118h67c3 0 5 -2 5 -5zM843 699v-694c0 -3 -2 -5 -5 -5h-85c-3 0 -5 2 -5 5v694c0 3 2 5 5 5h85c3 0 5 -2 5 -5z" />
    <glyph glyph-name="amacron" unicode="&#x101;" horiz-adv-x="582" 
d="M562 80v-75c0 -3 -2 -5 -5 -5h-29c-57 0 -91 14 -106 46c-2 5 -7 4 -9 2c-24 -25 -86 -58 -178 -58c-134 0 -200 65 -200 160c0 87 73 152 220 152h112c22 0 33 19 33 33c0 41 -10 96 -129 96c-86 0 -125 -40 -125 -91c0 -3 -2 -5 -5 -5h-85c-3 0 -5 2 -5 5
c0 118 107 176 220 176c138 0 224 -59 224 -181v-217c0 -15 12 -33 33 -33h29c3 0 5 -2 5 -5zM400 208v14c0 3 -2 5 -5 5h-140c-106 0 -125 -42 -125 -77c0 -36 25 -75 105 -75c121 0 163 72 165 133zM404 589h-246c-2 0 -4 2 -4 5v58c0 3 2 5 4 5h246c3 0 5 -2 5 -5v-58
c0 -3 -2 -5 -5 -5z" />
    <glyph glyph-name="Imacron" unicode="&#x12a;" horiz-adv-x="236" 
d="M68 704h85c3 0 5 -2 5 -5v-694c0 -3 -2 -5 -5 -5h-85c-3 0 -5 2 -5 5v694c0 3 2 5 5 5zM238 788h-246c-2 0 -4 2 -4 5v58c0 3 2 5 4 5h246c3 0 5 -2 5 -5v-58c0 -3 -2 -5 -5 -5z" />
    <glyph glyph-name="imacron" unicode="&#x12b;" horiz-adv-x="242" 
d="M158 501v-496c0 -3 -2 -5 -5 -5h-85c-3 0 -5 2 -5 5v496c0 3 2 5 5 5h85c3 0 5 -2 5 -5zM241 589h-246c-2 0 -4 2 -4 5v58c0 3 2 5 4 5h246c3 0 5 -2 5 -5v-58c0 -3 -2 -5 -5 -5z" />
    <glyph glyph-name="emacron" unicode="&#x113;" horiz-adv-x="549" 
d="M138 219c-3 0 -5 -2 -5 -5c0 -73 53 -139 142 -139c71 0 106 30 127 70c2 4 4 5 7 5h89c3 0 6 -1 5 -5c-26 -98 -115 -155 -228 -155c-150 0 -243 107 -243 263c0 157 88 263 243 263c156 0 244 -107 244 -263c0 -10 -1 -21 -3 -29c-1 -3 -2 -5 -5 -5h-373zM415 299
c0 57 -41 132 -140 132c-97 0 -142 -85 -142 -132c0 -3 3 -5 5 -5h272c3 0 5 2 5 5zM404 589h-246c-2 0 -4 2 -4 5v58c0 3 2 5 4 5h246c3 0 5 -2 5 -5v-58c0 -3 -2 -5 -5 -5z" />
    <glyph glyph-name="uni2215" unicode="&#x2215;" horiz-adv-x="622" 
d="M33 8l424 694c1 1 3 2 4 2h54c4 0 6 -4 4 -8l-426 -694c-1 -1 -3 -2 -4 -2h-52c-4 0 -6 4 -4 8z" />
    <glyph glyph-name="HT" unicode="&#x9;" horiz-adv-x="265" 
 />
    <glyph glyph-name="_0127" 
d="M456 699v-694c0 -3 -2 -5 -5 -5h-411c-3 0 -5 2 -5 5v694c0 3 2 5 5 5h411c3 0 5 -2 5 -5zM246 375l173 306h-346zM73 24h346l-173 305zM259 352l173 -304v608c-57 -99 -118 -205 -173 -304zM60 47l173 305l-173 305v-610z" />
    <glyph glyph-name="Dcroat" unicode="&#x110;" horiz-adv-x="701" 
d="M77 5v291c0 3 -2 5 -5 5h-54c-3 0 -5 2 -5 5v75c0 3 2 5 5 5h54c3 0 5 2 5 5v308c0 3 2 5 5 5h258c210 -1 313 -149 313 -359c0 -212 -103 -345 -313 -345h-258c-3 0 -5 2 -5 5zM331 301h-154c-3 0 -5 -2 -5 -5v-206c0 -3 2 -5 5 -5h163c134 0 213 90 213 260
c0 167 -79 274 -213 274h-163c-3 0 -5 -2 -5 -5v-223c0 -3 2 -5 5 -5h154c3 0 5 -2 5 -5v-75c0 -3 -2 -5 -5 -5z" />
    <glyph glyph-name="dcroat" unicode="&#x111;" horiz-adv-x="597" 
d="M514 0h-75c-3 0 -4 2 -5 5l-10 41c-2 6 -8 4 -10 1c-26 -29 -93 -57 -143 -57c-146 0 -238 107 -238 263s92 263 238 263c70 0 131 -43 143 -57c5 -6 10 -2 10 2v94c0 3 -2 5 -5 5h-144c-3 0 -5 2 -5 5v55c0 3 2 5 5 5h144c3 0 5 2 5 5v69c0 3 2 5 5 5h85c3 0 5 -2 5 -5
v-69c0 -3 2 -5 5 -5h54c3 0 5 -2 5 -5v-55c0 -3 -2 -5 -5 -5h-54c-3 0 -5 -2 -5 -5v-550c0 -3 -2 -5 -5 -5zM128 253c0 -104 57 -178 153 -178c91 0 143 74 143 178s-52 178 -143 178c-96 0 -153 -74 -153 -178z" />
    <glyph glyph-name="dcaron" unicode="&#x10f;" horiz-adv-x="667" 
d="M596 625h-22c-3 0 -5 2 -5 5v69c0 3 2 5 5 5h68c3 0 5 -2 5 -5v-71c0 -45 -29 -77 -73 -77c-3 0 -5 2 -5 5v29c0 3 2 5 5 5c12 0 27 9 27 30c0 3 -2 5 -5 5zM514 0h-75c-3 0 -4 2 -5 5l-10 40c-2 6 -7 5 -10 2c-27 -27 -93 -57 -143 -57c-146 0 -238 107 -238 263
s92 263 238 263c70 0 131 -43 143 -57c5 -6 10 -2 10 2v238c0 3 2 5 5 5h85c3 0 5 -2 5 -5v-694c0 -3 -2 -5 -5 -5zM128 253c0 -104 57 -178 153 -178c91 0 143 74 143 178s-52 178 -143 178c-96 0 -153 -74 -153 -178z" />
    <glyph glyph-name="uni0218" unicode="&#x218;" horiz-adv-x="610" 
d="M441 511c0 67 -62 118 -151 118c-79 0 -144 -49 -144 -116c0 -82 86 -95 155 -103c131 -15 267 -46 267 -212c0 -100 -73 -208 -267 -208c-173 0 -267 95 -267 203c0 3 2 5 5 5h89c3 0 6 -3 6 -6c0 -50 54 -117 167 -117c106 0 167 57 167 123c0 90 -80 108 -167 117
c-112 12 -255 43 -255 198c0 128 122 201 244 201c127 0 245 -66 251 -203c0 -3 -2 -5 -5 -5h-90c-3 0 -5 2 -5 5zM291 -134h-22c-3 0 -5 2 -5 5v69c0 3 2 5 5 5h68c3 0 5 -2 5 -5v-71c0 -45 -29 -77 -73 -77c-3 0 -5 2 -5 5v29c0 3 2 5 5 5c12 0 27 9 27 30c0 3 -2 5 -5 5z
" />
    <glyph glyph-name="uni0219" unicode="&#x219;" horiz-adv-x="518" 
d="M468 335h-86c-3 0 -5 2 -5 5c0 55 -44 91 -125 91c-75 0 -108 -33 -108 -64c0 -57 72 -58 122 -65c100 -13 220 -23 220 -151c0 -114 -95 -161 -220 -161c-152 0 -226 80 -226 176c0 3 2 5 5 5h84c3 0 6 -2 6 -5c0 -50 51 -91 131 -91c51 0 125 11 125 76
c0 57 -83 61 -125 66c-96 11 -217 26 -217 150c0 82 79 149 203 149c123 0 220 -58 220 -176c0 -3 -1 -5 -4 -5zM251 -134h-22c-3 0 -5 2 -5 5v69c0 3 2 5 5 5h68c3 0 5 -2 5 -5v-71c0 -45 -29 -77 -73 -77c-3 0 -5 2 -5 5v29c0 3 2 5 5 5c12 0 27 9 27 30c0 3 -2 5 -5 5z
" />
    <glyph glyph-name="agrave" unicode="&#xe0;" horiz-adv-x="582" 
d="M562 80v-75c0 -3 -2 -5 -5 -5h-29c-57 0 -91 14 -106 46c-2 5 -7 4 -9 2c-24 -25 -86 -58 -178 -58c-134 0 -200 65 -200 160c0 87 73 152 220 152h112c22 0 33 19 33 33c0 41 -10 96 -129 96c-86 0 -125 -40 -125 -91c0 -3 -2 -5 -5 -5h-85c-3 0 -5 2 -5 5
c0 118 107 176 220 176c138 0 224 -59 224 -181v-217c0 -15 12 -33 33 -33h29c3 0 5 -2 5 -5zM400 208v14c0 3 -2 5 -5 5h-140c-106 0 -125 -42 -125 -77c0 -36 25 -75 105 -75c121 0 163 72 165 133zM326 589h-57c-5 0 -9 4 -11 7l-72 101c-2 4 1 7 5 7h87c6 0 9 -4 10 -7
l43 -101c2 -4 -1 -7 -5 -7z" />
    <glyph glyph-name="aacute" unicode="&#xe1;" horiz-adv-x="582" 
d="M562 80v-75c0 -3 -2 -5 -5 -5h-29c-57 0 -91 14 -106 46c-2 5 -7 4 -9 2c-24 -25 -86 -58 -178 -58c-134 0 -200 65 -200 160c0 87 73 152 220 152h112c22 0 33 19 33 33c0 41 -10 96 -129 96c-86 0 -125 -40 -125 -91c0 -3 -2 -5 -5 -5h-85c-3 0 -5 2 -5 5
c0 118 107 176 220 176c138 0 224 -59 224 -181v-217c0 -15 12 -33 33 -33h29c3 0 5 -2 5 -5zM400 208v14c0 3 -2 5 -5 5h-140c-106 0 -125 -42 -125 -77c0 -36 25 -75 105 -75c121 0 163 72 165 133zM298 589h-57c-4 0 -7 3 -5 7l43 101c1 3 4 7 10 7h87c4 0 7 -3 5 -7
l-72 -101c-2 -3 -6 -7 -11 -7z" />
    <glyph glyph-name="acircumflex" unicode="&#xe2;" horiz-adv-x="582" 
d="M562 80v-75c0 -3 -2 -5 -5 -5h-29c-57 0 -91 14 -106 46c-2 5 -7 4 -9 2c-24 -25 -86 -58 -178 -58c-134 0 -200 65 -200 160c0 87 73 152 220 152h112c22 0 33 19 33 33c0 41 -10 96 -129 96c-86 0 -125 -40 -125 -91c0 -3 -2 -5 -5 -5h-85c-3 0 -5 2 -5 5
c0 118 107 176 220 176c138 0 224 -59 224 -181v-217c0 -15 12 -33 33 -33h29c3 0 5 -2 5 -5zM400 208v14c0 3 -2 5 -5 5h-140c-106 0 -125 -42 -125 -77c0 -36 25 -75 105 -75c121 0 163 72 165 133zM379 589h-60c-2 0 -4 1 -6 4l-29 41c-3 5 -8 5 -11 0l-29 -41
c-2 -3 -4 -4 -6 -4h-60c-4 0 -7 3 -5 7l44 104c1 3 3 4 5 4h114c2 0 4 -1 5 -4l43 -104c2 -4 -1 -7 -5 -7z" />
    <glyph glyph-name="atilde" unicode="&#xe3;" horiz-adv-x="582" 
d="M562 80v-75c0 -3 -2 -5 -5 -5h-29c-57 0 -91 14 -106 46c-2 5 -7 4 -9 2c-24 -25 -86 -58 -178 -58c-134 0 -200 65 -200 160c0 87 73 152 220 152h112c22 0 33 19 33 33c0 41 -10 96 -129 96c-86 0 -125 -40 -125 -91c0 -3 -2 -5 -5 -5h-85c-3 0 -5 2 -5 5
c0 118 107 176 220 176c138 0 224 -59 224 -181v-217c0 -15 12 -33 33 -33h29c3 0 5 -2 5 -5zM400 208v14c0 3 -2 5 -5 5h-140c-106 0 -125 -42 -125 -77c0 -36 25 -75 105 -75c121 0 163 72 165 133zM133 595v23c0 35 23 86 102 86c58 0 87 -46 107 -46c9 0 32 -2 32 41
c0 3 2 5 5 5h60c3 0 5 -2 5 -5v-24c0 -34 -24 -85 -102 -85c-53 0 -84 46 -107 46c-9 0 -32 2 -32 -41c0 -3 -2 -5 -5 -5h-60c-3 0 -5 2 -5 5z" />
    <glyph glyph-name="adieresis" unicode="&#xe4;" horiz-adv-x="582" 
d="M562 80v-75c0 -3 -2 -5 -5 -5h-29c-57 0 -91 14 -106 46c-2 5 -7 4 -9 2c-24 -25 -86 -58 -178 -58c-134 0 -200 65 -200 160c0 87 73 152 220 152h112c22 0 33 19 33 33c0 41 -10 96 -129 96c-86 0 -125 -40 -125 -91c0 -3 -2 -5 -5 -5h-85c-3 0 -5 2 -5 5
c0 118 107 176 220 176c138 0 224 -59 224 -181v-217c0 -15 12 -33 33 -33h29c3 0 5 -2 5 -5zM400 208v14c0 3 -2 5 -5 5h-140c-106 0 -125 -42 -125 -77c0 -36 25 -75 105 -75c121 0 163 72 165 133zM224 699v-104c0 -3 -2 -5 -5 -5h-105c-3 0 -5 2 -5 5v104c0 3 2 5 5 5
h105c3 0 5 -2 5 -5zM468 699v-104c0 -3 -2 -5 -5 -5h-105c-3 0 -5 2 -5 5v104c0 3 2 5 5 5h105c3 0 5 -2 5 -5z" />
    <glyph glyph-name="Hbar" unicode="&#x126;" horiz-adv-x="668" 
d="M73 5v550c0 3 -2 5 -5 5h-54c-2 0 -4 2 -4 5v55c0 3 2 5 4 5h54c3 0 5 2 5 5v69c0 3 2 5 5 5h85c3 0 5 -2 5 -5v-69c0 -3 2 -5 5 -5h317c3 0 5 2 5 5v69c0 3 2 5 5 5h85c3 0 5 -2 5 -5v-69c0 -3 2 -5 5 -5h53c3 0 5 -2 5 -5v-55c0 -3 -2 -5 -5 -5h-53c-3 0 -5 -2 -5 -5
v-550c0 -3 -2 -5 -5 -5h-85c-3 0 -5 2 -5 5v310c0 3 -2 5 -5 5h-317c-3 0 -5 -2 -5 -4v-311c0 -3 -2 -5 -5 -5h-85c-3 0 -5 2 -5 5zM495 410v145c0 3 -2 5 -5 5h-317c-3 0 -5 -2 -5 -5v-145c0 -3 2 -5 5 -5h317c3 0 5 2 5 5z" />
    <glyph glyph-name="hbar" unicode="&#x127;" horiz-adv-x="572" 
d="M64 5v550c0 3 -2 5 -5 5h-55c-2 0 -4 2 -4 5v55c0 3 2 5 4 5h55c3 0 5 2 5 5v69c0 3 2 5 5 5h85c3 0 5 -2 5 -5v-69c0 -3 2 -5 5 -5h144c3 0 5 -2 5 -5v-55c0 -3 -2 -5 -5 -5h-144c-3 0 -5 -2 -5 -5v-98c0 -5 7 -7 11 -2c30 38 79 61 131 61c155 0 218 -106 218 -236
v-275c0 -3 -2 -5 -5 -5h-85c-3 0 -5 2 -5 5v275c0 76 -34 151 -133 151c-84 0 -132 -73 -132 -151v-275c0 -3 -2 -5 -5 -5h-85c-3 0 -5 2 -5 5z" />
    <glyph glyph-name="uni021A" unicode="&#x21a;" horiz-adv-x="542" 
d="M251 -134h-22c-3 0 -5 2 -5 5v69c0 3 2 5 5 5h68c3 0 5 -2 5 -5v-71c0 -45 -29 -77 -73 -77c-3 0 -5 2 -5 5v29c0 3 2 5 5 5c12 0 27 9 27 30c0 3 -2 5 -5 5zM216 5v610c-1 2 -3 4 -5 4h-193c-3 0 -5 2 -5 5v75c0 3 2 5 5 5h491c3 0 5 -2 5 -5v-75c0 -3 -2 -5 -5 -5h-193
c-3 0 -5 -2 -5 -5v-609c0 -3 -2 -5 -5 -5h-85c-3 0 -5 2 -5 5z" />
    <glyph glyph-name="uni021B" unicode="&#x21b;" horiz-adv-x="355" 
d="M196 -134h-22c-3 0 -5 2 -5 5v69c0 3 2 5 5 5h68c3 0 5 -2 5 -5v-71c0 -45 -29 -77 -73 -77c-3 0 -5 2 -5 5v29c0 3 2 5 5 5c12 0 27 9 27 30c0 3 -2 5 -5 5zM326 80v-75c0 -3 -2 -5 -5 -5h-77c-83 -2 -131 36 -131 118v308c0 3 -2 5 -5 5h-89c-3 0 -5 2 -5 5v65
c0 3 2 5 5 5h89c3 0 5 2 5 5v135c0 3 2 5 5 5h85c3 0 5 -2 5 -5v-135c0 -3 2 -5 5 -5h108c3 0 5 -2 5 -5v-65c0 -3 -2 -5 -5 -5h-108c-3 0 -5 -2 -5 -5v-291c0 -31 14 -50 54 -50h59c3 0 5 -2 5 -5z" />
    <glyph glyph-name="uni2113" unicode="&#x2113;" horiz-adv-x="495" 
d="M375 212h87c3 0 5 -2 5 -5v-43c0 -91 -74 -164 -164 -164c-80 0 -147 56 -161 133l-110 -110c-4 -4 -9 -2 -9 2v122c0 3 0 4 2 6l114 114v260c0 91 74 164 164 164c42 0 84 -17 116 -48c32 -32 48 -74 48 -116s-16 -84 -48 -116l-184 -185v-62c0 -38 31 -69 68 -69
s67 31 67 69v43c0 3 2 5 5 5zM351 575c-14 14 -31 21 -48 21c-37 0 -68 -31 -68 -69v-153c0 -3 5 -5 8 -3l108 108c14 14 20 32 20 48c0 17 -6 34 -20 48z" />
    <glyph glyph-name="estimated" unicode="&#x212e;" horiz-adv-x="503" 
d="M442 130l6 -2c2 -1 3 -4 2 -6c-38 -76 -114 -122 -197 -122c-121 0 -220 99 -220 220v51c0 121 99 221 220 221c120 0 220 -100 220 -221v-28c0 -3 -2 -5 -5 -5h-364c-3 0 -5 -2 -5 -5v-146c37 -44 92 -71 154 -71c75 0 146 44 183 111c1 2 3 4 6 3zM253 476
c-62 0 -117 -28 -154 -71v-145c0 -3 2 -5 5 -5h297c3 0 5 2 5 5v146c-38 43 -92 70 -153 70z" />
    <glyph glyph-name="franc" unicode="&#x20a3;" 
d="M456 699v-694c0 -3 -2 -5 -5 -5h-411c-3 0 -5 2 -5 5v694c0 3 2 5 5 5h411c3 0 5 -2 5 -5zM246 375l173 306h-346zM73 24h346l-173 305zM259 352l173 -304v608c-57 -99 -118 -205 -173 -304zM60 47l173 305l-173 305v-610z" />
    <glyph glyph-name="lira" unicode="&#x20a4;" 
d="M456 699v-694c0 -3 -2 -5 -5 -5h-411c-3 0 -5 2 -5 5v694c0 3 2 5 5 5h411c3 0 5 -2 5 -5zM246 375l173 306h-346zM73 24h346l-173 305zM259 352l173 -304v608c-57 -99 -118 -205 -173 -304zM60 47l173 305l-173 305v-610z" />
    <glyph glyph-name="peseta" unicode="&#x20a7;" 
d="M456 699v-694c0 -3 -2 -5 -5 -5h-411c-3 0 -5 2 -5 5v694c0 3 2 5 5 5h411c3 0 5 -2 5 -5zM246 375l173 306h-346zM73 24h346l-173 305zM259 352l173 -304v608c-57 -99 -118 -205 -173 -304zM60 47l173 305l-173 305v-610z" />
    <glyph glyph-name="uni2219" unicode="&#x2219;" horiz-adv-x="230" 
d="M187 276h-149c-3 0 -5 2 -5 5v151c0 3 2 5 5 5h149c3 0 5 -2 5 -5v-151c0 -3 -2 -5 -5 -5z" />
    <glyph glyph-name="longs_t" unicode="&#xfb05;" 
d="M456 699v-694c0 -3 -2 -5 -5 -5h-411c-3 0 -5 2 -5 5v694c0 3 2 5 5 5h411c3 0 5 -2 5 -5zM246 375l173 306h-346zM73 24h346l-173 305zM259 352l173 -304v608c-57 -99 -118 -205 -173 -304zM60 47l173 305l-173 305v-610z" />
    <glyph glyph-name="longs" unicode="&#x17f;" horiz-adv-x="345" 
d="M326 699v-75c0 -3 -2 -5 -5 -5h-66c-30 0 -47 -19 -47 -50v-564c0 -3 -2 -5 -5 -5h-85c-3 0 -5 2 -5 5v421c0 3 -2 5 -5 5h-89c-3 0 -5 2 -5 5v65c0 3 2 5 5 5h89c3 0 5 2 5 5v75c0 82 48 120 141 118h67c3 0 5 -2 5 -5z" />
    <glyph glyph-name="Aacute" unicode="&#xc1;" horiz-adv-x="682" 
d="M281 704h123c3 0 5 -2 6 -5l233 -694c1 -3 -2 -5 -5 -5h-94c-3 0 -4 2 -5 5l-46 143c-1 4 -4 5 -7 5h-290c-3 0 -5 -2 -6 -5l-47 -143c-1 -3 -2 -5 -5 -5h-93c-3 0 -7 1 -6 5l236 694c1 3 3 5 6 5zM223 233h237c3 0 5 2 4 5l-117 366c-2 6 -8 6 -10 0l-118 -366
c-1 -3 1 -5 4 -5zM378 783h-57c-4 0 -7 3 -5 7l43 101c1 3 4 7 10 7h87c4 0 7 -3 5 -7l-72 -101c-2 -3 -6 -7 -11 -7z" />
    <glyph glyph-name="Agrave" unicode="&#xc0;" horiz-adv-x="682" 
d="M281 704h123c3 0 5 -2 6 -5l233 -694c1 -3 -2 -5 -5 -5h-94c-3 0 -4 2 -5 5l-46 143c-1 4 -4 5 -7 5h-290c-3 0 -5 -2 -6 -5l-47 -143c-1 -3 -2 -5 -5 -5h-93c-3 0 -7 1 -6 5l236 694c1 3 3 5 6 5zM223 233h237c3 0 5 2 4 5l-117 366c-2 6 -8 6 -10 0l-118 -366
c-1 -3 1 -5 4 -5zM366 783h-57c-5 0 -9 4 -11 7l-72 101c-2 4 1 7 5 7h87c6 0 9 -4 10 -7l43 -101c2 -4 -1 -7 -5 -7z" />
    <glyph glyph-name="Acircumflex" unicode="&#xc2;" horiz-adv-x="682" 
d="M281 704h123c3 0 5 -2 6 -5l233 -694c1 -3 -2 -5 -5 -5h-94c-3 0 -4 2 -5 5l-46 143c-1 4 -4 5 -7 5h-290c-3 0 -5 -2 -6 -5l-47 -143c-1 -3 -2 -5 -5 -5h-93c-3 0 -7 1 -6 5l236 694c1 3 3 5 6 5zM223 233h237c3 0 5 2 4 5l-117 366c-2 6 -8 6 -10 0l-118 -366
c-1 -3 1 -5 4 -5zM439 783h-60c-2 0 -4 1 -6 4l-29 41c-3 5 -8 5 -11 0l-29 -41c-2 -3 -4 -4 -6 -4h-60c-4 0 -7 3 -5 7l44 104c1 3 3 4 5 4h114c2 0 4 -1 5 -4l43 -104c2 -4 -1 -7 -5 -7z" />
    <glyph glyph-name="Atilde" unicode="&#xc3;" horiz-adv-x="682" 
d="M281 704h123c3 0 5 -2 6 -5l233 -694c1 -3 -2 -5 -5 -5h-94c-3 0 -4 2 -5 5l-46 143c-1 4 -4 5 -7 5h-290c-3 0 -5 -2 -6 -5l-47 -143c-1 -3 -2 -5 -5 -5h-93c-3 0 -7 1 -6 5l236 694c1 3 3 5 6 5zM223 233h237c3 0 5 2 4 5l-117 366c-2 6 -8 6 -10 0l-118 -366
c-1 -3 1 -5 4 -5zM193 788v23c0 35 23 86 102 86c58 0 87 -46 107 -46c9 0 32 -2 32 41c0 3 2 5 5 5h60c3 0 5 -2 5 -5v-24c0 -34 -24 -85 -102 -85c-53 0 -84 46 -107 46c-9 0 -32 2 -32 -41c0 -3 -2 -5 -5 -5h-60c-3 0 -5 2 -5 5z" />
    <glyph glyph-name="Adieresis" unicode="&#xc4;" horiz-adv-x="682" 
d="M281 704h123c3 0 5 -2 6 -5l233 -694c1 -3 -2 -5 -5 -5h-94c-3 0 -4 2 -5 5l-46 143c-1 4 -4 5 -7 5h-290c-3 0 -5 -2 -6 -5l-47 -143c-1 -3 -2 -5 -5 -5h-93c-3 0 -7 1 -6 5l236 694c1 3 3 5 6 5zM223 233h237c3 0 5 2 4 5l-117 366c-2 6 -8 6 -10 0l-118 -366
c-1 -3 1 -5 4 -5zM274 893v-105c0 -3 -2 -5 -5 -5h-105c-3 0 -5 2 -5 5v105c0 3 2 5 5 5h105c3 0 5 -2 5 -5zM518 893v-105c0 -3 -2 -5 -5 -5h-105c-3 0 -5 2 -5 5v105c0 3 2 5 5 5h105c3 0 5 -2 5 -5z" />
    <glyph glyph-name="Egrave" unicode="&#xc8;" horiz-adv-x="612" 
d="M63 699c0 3 2 5 5 5h481c3 0 5 -2 5 -5v-75c0 -3 -2 -5 -5 -5h-386c-3 0 -5 -2 -5 -5v-204c0 -3 2 -5 5 -5h345c3 0 5 -2 5 -5v-75c0 -3 -2 -5 -5 -5h-345c-3 0 -5 -2 -5 -5v-225c0 -3 2 -5 5 -5h386c3 0 5 -2 5 -5v-75c0 -3 -2 -5 -5 -5h-481c-3 0 -5 2 -5 5v694z
M371 783h-57c-5 0 -9 4 -11 7l-72 101c-2 4 1 7 5 7h87c6 0 9 -4 10 -7l43 -101c2 -4 -1 -7 -5 -7z" />
    <glyph glyph-name="Eacute" unicode="&#xc9;" horiz-adv-x="612" 
d="M63 699c0 3 2 5 5 5h481c3 0 5 -2 5 -5v-75c0 -3 -2 -5 -5 -5h-386c-3 0 -5 -2 -5 -5v-204c0 -3 2 -5 5 -5h345c3 0 5 -2 5 -5v-75c0 -3 -2 -5 -5 -5h-345c-3 0 -5 -2 -5 -5v-225c0 -3 2 -5 5 -5h386c3 0 5 -2 5 -5v-75c0 -3 -2 -5 -5 -5h-481c-3 0 -5 2 -5 5v694z
M313 783h-57c-4 0 -7 3 -5 7l43 101c1 3 4 7 10 7h87c4 0 7 -3 5 -7l-72 -101c-2 -3 -6 -7 -11 -7z" />
    <glyph glyph-name="Ecircumflex" unicode="&#xca;" horiz-adv-x="612" 
d="M63 699c0 3 2 5 5 5h481c3 0 5 -2 5 -5v-75c0 -3 -2 -5 -5 -5h-386c-3 0 -5 -2 -5 -5v-204c0 -3 2 -5 5 -5h345c3 0 5 -2 5 -5v-75c0 -3 -2 -5 -5 -5h-345c-3 0 -5 -2 -5 -5v-225c0 -3 2 -5 5 -5h386c3 0 5 -2 5 -5v-75c0 -3 -2 -5 -5 -5h-481c-3 0 -5 2 -5 5v694z
M414 783h-60c-2 0 -4 1 -6 4l-29 41c-3 5 -8 5 -11 0l-29 -41c-2 -3 -4 -4 -6 -4h-60c-4 0 -7 3 -5 7l44 104c1 3 3 4 5 4h114c2 0 4 -1 5 -4l43 -104c2 -4 -1 -7 -5 -7z" />
    <glyph glyph-name="Edieresis" unicode="&#xcb;" horiz-adv-x="612" 
d="M63 699c0 3 2 5 5 5h481c3 0 5 -2 5 -5v-75c0 -3 -2 -5 -5 -5h-386c-3 0 -5 -2 -5 -5v-204c0 -3 2 -5 5 -5h345c3 0 5 -2 5 -5v-75c0 -3 -2 -5 -5 -5h-345c-3 0 -5 -2 -5 -5v-225c0 -3 2 -5 5 -5h386c3 0 5 -2 5 -5v-75c0 -3 -2 -5 -5 -5h-481c-3 0 -5 2 -5 5v694z
M239 893v-105c0 -3 -2 -5 -5 -5h-105c-3 0 -5 2 -5 5v105c0 3 2 5 5 5h105c3 0 5 -2 5 -5zM483 893v-105c0 -3 -2 -5 -5 -5h-105c-3 0 -5 2 -5 5v105c0 3 2 5 5 5h105c3 0 5 -2 5 -5z" />
    <glyph glyph-name="Igrave" unicode="&#xcc;" horiz-adv-x="236" 
d="M68 704h85c3 0 5 -2 5 -5v-694c0 -3 -2 -5 -5 -5h-85c-3 0 -5 2 -5 5v694c0 3 2 5 5 5zM143 783h-57c-5 0 -9 4 -11 7l-72 101c-2 4 1 7 5 7h87c6 0 9 -4 10 -7l43 -101c2 -4 -1 -7 -5 -7z" />
    <glyph glyph-name="Iacute" unicode="&#xcd;" horiz-adv-x="236" 
d="M68 704h85c3 0 5 -2 5 -5v-694c0 -3 -2 -5 -5 -5h-85c-3 0 -5 2 -5 5v694c0 3 2 5 5 5zM141 783h-57c-4 0 -7 3 -5 7l43 101c1 3 4 7 10 7h87c4 0 7 -3 5 -7l-72 -101c-2 -3 -6 -7 -11 -7z" />
    <glyph glyph-name="Icircumflex" unicode="&#xce;" horiz-adv-x="236" 
d="M68 704h85c3 0 5 -2 5 -5v-694c0 -3 -2 -5 -5 -5h-85c-3 0 -5 2 -5 5v694c0 3 2 5 5 5zM216 783h-60c-2 0 -4 1 -6 4l-29 41c-3 5 -8 5 -11 0l-29 -41c-2 -3 -4 -4 -6 -4h-60c-4 0 -7 3 -5 7l44 104c1 3 3 4 5 4h114c2 0 4 -1 5 -4l43 -104c2 -4 -1 -7 -5 -7z" />
    <glyph glyph-name="Idieresis" unicode="&#xcf;" horiz-adv-x="236" 
d="M68 704h85c3 0 5 -2 5 -5v-694c0 -3 -2 -5 -5 -5h-85c-3 0 -5 2 -5 5v694c0 3 2 5 5 5zM51 893v-105c0 -3 -2 -5 -5 -5h-105c-3 0 -5 2 -5 5v105c0 3 2 5 5 5h105c3 0 5 -2 5 -5zM295 893v-105c0 -3 -2 -5 -5 -5h-105c-3 0 -5 2 -5 5v105c0 3 2 5 5 5h105c3 0 5 -2 5 -5z
" />
    <glyph glyph-name="Odieresis" unicode="&#xd6;" horiz-adv-x="712" 
d="M664 352c0 -212 -105 -362 -315 -362s-316 150 -316 362s106 362 316 362s315 -150 315 -362zM349 75c140 0 216 104 216 277s-76 277 -216 277s-216 -104 -216 -277s76 -277 216 -277zM289 893v-105c0 -3 -2 -5 -5 -5h-105c-3 0 -5 2 -5 5v105c0 3 2 5 5 5h105
c3 0 5 -2 5 -5zM533 893v-105c0 -3 -2 -5 -5 -5h-105c-3 0 -5 2 -5 5v105c0 3 2 5 5 5h105c3 0 5 -2 5 -5z" />
    <glyph glyph-name="Otilde" unicode="&#xd5;" horiz-adv-x="712" 
d="M664 352c0 -212 -105 -362 -315 -362s-316 150 -316 362s106 362 316 362s315 -150 315 -362zM349 75c140 0 216 104 216 277s-76 277 -216 277s-216 -104 -216 -277s76 -277 216 -277zM198 788v23c0 35 23 86 102 86c58 0 87 -46 107 -46c9 0 32 -2 32 41c0 3 2 5 5 5
h60c3 0 5 -2 5 -5v-24c0 -34 -24 -85 -102 -85c-53 0 -84 46 -107 46c-9 0 -32 2 -32 -41c0 -3 -2 -5 -5 -5h-60c-3 0 -5 2 -5 5z" />
    <glyph glyph-name="Ocircumflex" unicode="&#xd4;" horiz-adv-x="712" 
d="M664 352c0 -212 -105 -362 -315 -362s-316 150 -316 362s106 362 316 362s315 -150 315 -362zM349 75c140 0 216 104 216 277s-76 277 -216 277s-216 -104 -216 -277s76 -277 216 -277zM454 783h-60c-2 0 -4 1 -6 4l-29 41c-3 5 -8 5 -11 0l-29 -41c-2 -3 -4 -4 -6 -4
h-60c-4 0 -7 3 -5 7l44 104c1 3 3 4 5 4h114c2 0 4 -1 5 -4l43 -104c2 -4 -1 -7 -5 -7z" />
    <glyph glyph-name="Oacute" unicode="&#xd3;" horiz-adv-x="712" 
d="M664 352c0 -212 -105 -362 -315 -362s-316 150 -316 362s106 362 316 362s315 -150 315 -362zM349 75c140 0 216 104 216 277s-76 277 -216 277s-216 -104 -216 -277s76 -277 216 -277zM383 783h-57c-4 0 -7 3 -5 7l43 101c1 3 4 7 10 7h87c4 0 7 -3 5 -7l-72 -101
c-2 -3 -6 -7 -11 -7z" />
    <glyph glyph-name="Ograve" unicode="&#xd2;" horiz-adv-x="712" 
d="M664 352c0 -212 -105 -362 -315 -362s-316 150 -316 362s106 362 316 362s315 -150 315 -362zM349 75c140 0 216 104 216 277s-76 277 -216 277s-216 -104 -216 -277s76 -277 216 -277zM401 783h-57c-5 0 -9 4 -11 7l-72 101c-2 4 1 7 5 7h87c6 0 9 -4 10 -7l43 -101
c2 -4 -1 -7 -5 -7z" />
    <glyph glyph-name="Yacute" unicode="&#xdd;" horiz-adv-x="659" 
d="M619 699l-238 -386c-3 -5 -3 -7 -3 -10v-298c0 -3 -2 -5 -5 -5h-85c-3 0 -5 2 -5 5v298c0 3 -2 5 -5 10l-236 386c-2 3 0 5 3 5h101c3 0 6 -2 8 -5l171 -285c3 -4 7 -4 10 0l172 285c3 4 7 5 10 5h99c3 0 5 -2 3 -5zM336 783h-57c-4 0 -7 3 -5 7l43 101c1 3 4 7 10 7h87
c4 0 7 -3 5 -7l-72 -101c-2 -3 -6 -7 -11 -7z" />
    <glyph glyph-name="Udieresis" unicode="&#xdc;" horiz-adv-x="621" 
d="M148 699v-460c0 -85 70 -164 156 -164c85 0 154 79 154 164v460c0 3 2 5 5 5h85c3 0 5 -2 5 -5v-460c0 -139 -110 -249 -249 -249s-251 110 -251 249v460c0 3 2 5 5 5h85c3 0 5 -2 5 -5zM243 893v-105c0 -3 -2 -5 -5 -5h-105c-3 0 -5 2 -5 5v105c0 3 2 5 5 5h105
c3 0 5 -2 5 -5zM487 893v-105c0 -3 -2 -5 -5 -5h-105c-3 0 -5 2 -5 5v105c0 3 2 5 5 5h105c3 0 5 -2 5 -5z" />
    <glyph glyph-name="Ucircumflex" unicode="&#xdb;" horiz-adv-x="621" 
d="M148 699v-460c0 -85 70 -164 156 -164c85 0 154 79 154 164v460c0 3 2 5 5 5h85c3 0 5 -2 5 -5v-460c0 -139 -110 -249 -249 -249s-251 110 -251 249v460c0 3 2 5 5 5h85c3 0 5 -2 5 -5zM408 783h-60c-2 0 -4 1 -6 4l-29 41c-3 5 -8 5 -11 0l-29 -41c-2 -3 -4 -4 -6 -4
h-60c-4 0 -7 3 -5 7l44 104c1 3 3 4 5 4h114c2 0 4 -1 5 -4l43 -104c2 -4 -1 -7 -5 -7z" />
    <glyph glyph-name="Uacute" unicode="&#xda;" horiz-adv-x="621" 
d="M148 699v-460c0 -85 70 -164 156 -164c85 0 154 79 154 164v460c0 3 2 5 5 5h85c3 0 5 -2 5 -5v-460c0 -139 -110 -249 -249 -249s-251 110 -251 249v460c0 3 2 5 5 5h85c3 0 5 -2 5 -5zM317 783h-57c-4 0 -7 3 -5 7l43 101c1 3 4 7 10 7h87c4 0 7 -3 5 -7l-72 -101
c-2 -3 -6 -7 -11 -7z" />
    <glyph glyph-name="Ugrave" unicode="&#xd9;" horiz-adv-x="621" 
d="M148 699v-460c0 -85 70 -164 156 -164c85 0 154 79 154 164v460c0 3 2 5 5 5h85c3 0 5 -2 5 -5v-460c0 -139 -110 -249 -249 -249s-251 110 -251 249v460c0 3 2 5 5 5h85c3 0 5 -2 5 -5zM355 783h-57c-5 0 -9 4 -11 7l-72 101c-2 4 1 7 5 7h87c6 0 9 -4 10 -7l43 -101
c2 -4 -1 -7 -5 -7z" />
    <glyph glyph-name="scaron" unicode="&#x161;" horiz-adv-x="524" 
d="M468 335h-86c-3 0 -5 2 -5 5c0 55 -44 91 -125 91c-75 0 -108 -33 -108 -64c0 -57 72 -58 122 -65c100 -13 220 -23 220 -151c0 -114 -95 -161 -220 -161c-152 0 -226 80 -226 176c0 3 2 5 5 5h84c3 0 6 -2 6 -5c0 -50 51 -91 131 -91c51 0 125 11 125 76
c0 57 -83 61 -125 66c-96 11 -217 26 -217 150c0 82 79 149 203 149c123 0 220 -58 220 -176c0 -3 -1 -5 -4 -5zM300 704h60c4 0 7 -3 5 -7l-43 -104c-1 -3 -3 -4 -5 -4h-114c-2 0 -4 1 -5 4l-44 104c-2 4 1 7 5 7h60c2 0 4 -1 6 -4l30 -41c3 -4 8 -4 11 0l28 41
c2 3 4 4 6 4z" />
    <glyph glyph-name="Scaron" unicode="&#x160;" horiz-adv-x="610" 
d="M441 511c0 67 -62 118 -151 118c-79 0 -144 -49 -144 -116c0 -82 86 -95 155 -103c131 -15 267 -46 267 -212c0 -100 -73 -208 -267 -208c-173 0 -267 95 -267 203c0 3 2 5 5 5h89c3 0 6 -3 6 -6c0 -50 54 -117 167 -117c106 0 167 57 167 123c0 90 -80 108 -167 117
c-112 12 -255 43 -255 198c0 128 122 201 244 201c127 0 245 -66 251 -203c0 -3 -2 -5 -5 -5h-90c-3 0 -5 2 -5 5zM333 902h60c4 0 7 -3 5 -7l-43 -104c-1 -3 -3 -4 -5 -4h-114c-2 0 -4 1 -5 4l-44 104c-2 4 1 7 5 7h60c2 0 4 -1 6 -4l30 -41c3 -4 8 -4 11 0l28 41
c2 3 4 4 6 4z" />
    <glyph glyph-name="Scircumflex" unicode="&#x15c;" horiz-adv-x="610" 
d="M441 511c0 67 -62 118 -151 118c-79 0 -144 -49 -144 -116c0 -82 86 -95 155 -103c131 -15 267 -46 267 -212c0 -100 -73 -208 -267 -208c-173 0 -267 95 -267 203c0 3 2 5 5 5h89c3 0 6 -3 6 -6c0 -50 54 -117 167 -117c106 0 167 57 167 123c0 90 -80 108 -167 117
c-112 12 -255 43 -255 198c0 128 122 201 244 201c127 0 245 -66 251 -203c0 -3 -2 -5 -5 -5h-90c-3 0 -5 2 -5 5zM403 783h-60c-2 0 -4 1 -6 4l-29 41c-3 5 -8 5 -11 0l-29 -41c-2 -3 -4 -4 -6 -4h-60c-4 0 -7 3 -5 7l44 104c1 3 3 4 5 4h114c2 0 4 -1 5 -4l43 -104
c2 -4 -1 -7 -5 -7z" />
    <glyph glyph-name="Sacute" unicode="&#x15a;" horiz-adv-x="610" 
d="M441 511c0 67 -62 118 -151 118c-79 0 -144 -49 -144 -116c0 -82 86 -95 155 -103c131 -15 267 -46 267 -212c0 -100 -73 -208 -267 -208c-173 0 -267 95 -267 203c0 3 2 5 5 5h89c3 0 6 -3 6 -6c0 -50 54 -117 167 -117c106 0 167 57 167 123c0 90 -80 108 -167 117
c-112 12 -255 43 -255 198c0 128 122 201 244 201c127 0 245 -66 251 -203c0 -3 -2 -5 -5 -5h-90c-3 0 -5 2 -5 5zM312 783h-57c-4 0 -7 3 -5 7l43 101c1 3 4 7 10 7h87c4 0 7 -3 5 -7l-72 -101c-2 -3 -6 -7 -11 -7z" />
    <glyph glyph-name="Racute" unicode="&#x154;" horiz-adv-x="609" 
d="M73 699c0 3 2 5 5 5h292c110 0 204 -95 204 -214c0 -87 -50 -159 -119 -191c-2 -1 -4 -3 -2 -7l128 -287c2 -5 -2 -5 -5 -5h-83c-3 0 -7 0 -10 5l-120 270c-1 3 -4 5 -7 5h-183c-3 0 -5 -2 -5 -5v-270c0 -3 -2 -5 -5 -5h-85c-3 0 -5 2 -5 5v694zM358 619h-185
c-3 0 -5 -2 -5 -5v-244c0 -3 2 -5 5 -5h189c61 2 117 57 117 125c0 69 -58 129 -121 129zM291 783h-57c-4 0 -7 3 -5 7l43 101c1 3 4 7 10 7h87c4 0 7 -3 5 -7l-72 -101c-2 -3 -6 -7 -11 -7z" />
    <glyph glyph-name="Obreve" unicode="&#x14e;" horiz-adv-x="712" 
d="M664 352c0 -212 -105 -362 -315 -362s-316 150 -316 362s106 362 316 362s315 -150 315 -362zM349 75c140 0 216 104 216 277s-76 277 -216 277s-216 -104 -216 -277s76 -277 216 -277zM399 898h63c3 0 5 -2 5 -5c0 -83 -61 -110 -114 -110c-52 0 -114 27 -114 110
c0 3 2 5 5 5h62c3 0 5 -2 5 -5c0 -28 24 -38 42 -38c19 0 41 10 41 38c0 3 2 5 5 5z" />
    <glyph glyph-name="Omacron" unicode="&#x14c;" horiz-adv-x="712" 
d="M664 352c0 -212 -105 -362 -315 -362s-316 150 -316 362s106 362 316 362s315 -150 315 -362zM349 75c140 0 216 104 216 277s-76 277 -216 277s-216 -104 -216 -277s76 -277 216 -277zM476 783h-246c-2 0 -4 2 -4 5v58c0 3 2 5 4 5h246c3 0 5 -2 5 -5v-58
c0 -3 -2 -5 -5 -5z" />
    <glyph glyph-name="Ncaron" unicode="&#x147;" horiz-adv-x="709" 
d="M541 704h85c3 0 5 -2 5 -5v-694c0 -3 -2 -5 -5 -5h-147c-3 0 -6 2 -8 5l-303 601c-2 4 -10 4 -10 -2v-599c0 -3 -2 -5 -5 -5h-85c-3 0 -5 2 -5 5v694c0 3 2 5 5 5h148c3 0 5 -1 7 -5l303 -600c3 -6 10 -5 10 1v599c0 3 2 5 5 5zM392 902h60c4 0 7 -3 5 -7l-43 -104
c-1 -3 -3 -4 -5 -4h-114c-2 0 -4 1 -5 4l-44 104c-2 4 1 7 5 7h60c2 0 4 -1 6 -4l30 -41c3 -4 8 -4 11 0l28 41c2 3 4 4 6 4z" />
    <glyph glyph-name="Nacute" unicode="&#x143;" horiz-adv-x="709" 
d="M541 704h85c3 0 5 -2 5 -5v-694c0 -3 -2 -5 -5 -5h-147c-3 0 -6 2 -8 5l-303 601c-2 4 -10 4 -10 -2v-599c0 -3 -2 -5 -5 -5h-85c-3 0 -5 2 -5 5v694c0 3 2 5 5 5h148c3 0 5 -1 7 -5l303 -600c3 -6 10 -5 10 1v599c0 3 2 5 5 5zM341 783h-57c-4 0 -7 3 -5 7l43 101
c1 3 4 7 10 7h87c4 0 7 -3 5 -7l-72 -101c-2 -3 -6 -7 -11 -7z" />
    <glyph glyph-name="Gdotaccent" unicode="&#x120;" horiz-adv-x="723" 
d="M660 5c0 -3 -2 -5 -5 -5h-73c-3 0 -6 1 -7 6l-10 70c0 4 -6 6 -9 2c-31 -42 -115 -88 -207 -88c-220 0 -316 150 -316 362s116 362 316 362c179 0 257 -101 286 -203c1 -4 -2 -5 -5 -5h-93c-3 0 -5 1 -6 5c-30 78 -98 118 -182 118c-140 0 -216 -104 -216 -277
s76 -277 216 -277s216 69 216 230c0 3 -2 5 -5 5h-206c-3 0 -5 2 -5 5v75c0 3 2 5 5 5h301c3 0 5 -2 5 -5v-385zM423 783h-129c-3 0 -5 2 -5 5v132c0 3 2 5 5 5h129c3 0 5 -2 5 -5v-132c0 -3 -2 -5 -5 -5z" />
    <glyph glyph-name="Amacron" unicode="&#x100;" horiz-adv-x="682" 
d="M281 704h123c3 0 5 -2 6 -5l233 -694c1 -3 -2 -5 -5 -5h-94c-3 0 -4 2 -5 5l-46 143c-1 4 -4 5 -7 5h-290c-3 0 -5 -2 -6 -5l-47 -143c-1 -3 -2 -5 -5 -5h-93c-3 0 -7 1 -6 5l236 694c1 3 3 5 6 5zM223 233h237c3 0 5 2 4 5l-117 366c-2 6 -8 6 -10 0l-118 -366
c-1 -3 1 -5 4 -5zM461 783h-246c-2 0 -4 2 -4 5v58c0 3 2 5 4 5h246c3 0 5 -2 5 -5v-58c0 -3 -2 -5 -5 -5z" />
    <glyph glyph-name="Cacute" unicode="&#x106;" horiz-adv-x="683" 
d="M551 215c1 4 4 5 7 5h88c3 0 5 -1 5 -5c0 -66 -79 -225 -288 -225c-220 0 -316 150 -316 362s116 362 316 362c218 0 288 -170 288 -225c0 -4 -2 -5 -5 -5h-88c-3 0 -6 2 -7 5c-15 43 -56 140 -188 140c-140 0 -216 -104 -216 -277s76 -277 216 -277
c120 0 172 87 188 140zM378 783h-57c-4 0 -7 3 -5 7l43 101c1 3 4 7 10 7h87c4 0 7 -3 5 -7l-72 -101c-2 -3 -6 -7 -11 -7z" />
    <glyph glyph-name="Ccaron" unicode="&#x10c;" horiz-adv-x="683" 
d="M551 215c1 4 4 5 7 5h88c3 0 5 -1 5 -5c0 -66 -79 -225 -288 -225c-220 0 -316 150 -316 362s116 362 316 362c218 0 288 -170 288 -225c0 -4 -2 -5 -5 -5h-88c-3 0 -6 2 -7 5c-15 43 -56 140 -188 140c-140 0 -216 -104 -216 -277s76 -277 216 -277
c120 0 172 87 188 140zM409 902h60c4 0 7 -3 5 -7l-43 -104c-1 -3 -3 -4 -5 -4h-114c-2 0 -4 1 -5 4l-44 104c-2 4 1 7 5 7h60c2 0 4 -1 6 -4l30 -41c3 -4 8 -4 11 0l28 41c2 3 4 4 6 4z" />
    <glyph glyph-name="Dcaron" unicode="&#x10e;" horiz-adv-x="688" 
d="M64 699c0 3 2 5 5 5h258c210 -1 313 -149 313 -359c0 -212 -103 -345 -313 -345h-258c-3 0 -5 2 -5 5v694zM327 619h-163c-3 0 -5 -2 -5 -5v-524c0 -3 2 -5 5 -5h163c134 0 213 90 213 260c0 167 -79 274 -213 274zM352 902h60c4 0 7 -3 5 -7l-43 -104c-1 -3 -3 -4 -5 -4
h-114c-2 0 -4 1 -5 4l-44 104c-2 4 1 7 5 7h60c2 0 4 -1 6 -4l30 -41c3 -4 8 -4 11 0l28 41c2 3 4 4 6 4z" />
    <glyph glyph-name="Emacron" unicode="&#x112;" horiz-adv-x="612" 
d="M63 699c0 3 2 5 5 5h481c3 0 5 -2 5 -5v-75c0 -3 -2 -5 -5 -5h-386c-3 0 -5 -2 -5 -5v-204c0 -3 2 -5 5 -5h345c3 0 5 -2 5 -5v-75c0 -3 -2 -5 -5 -5h-345c-3 0 -5 -2 -5 -5v-225c0 -3 2 -5 5 -5h386c3 0 5 -2 5 -5v-75c0 -3 -2 -5 -5 -5h-481c-3 0 -5 2 -5 5v694z
M426 783h-246c-2 0 -4 2 -4 5v58c0 3 2 5 4 5h246c3 0 5 -2 5 -5v-58c0 -3 -2 -5 -5 -5z" />
    <glyph glyph-name="Ebreve" unicode="&#x114;" horiz-adv-x="612" 
d="M63 699c0 3 2 5 5 5h481c3 0 5 -2 5 -5v-75c0 -3 -2 -5 -5 -5h-386c-3 0 -5 -2 -5 -5v-204c0 -3 2 -5 5 -5h345c3 0 5 -2 5 -5v-75c0 -3 -2 -5 -5 -5h-345c-3 0 -5 -2 -5 -5v-225c0 -3 2 -5 5 -5h386c3 0 5 -2 5 -5v-75c0 -3 -2 -5 -5 -5h-481c-3 0 -5 2 -5 5v694z
M369 898h63c3 0 5 -2 5 -5c0 -83 -61 -110 -114 -110c-52 0 -114 27 -114 110c0 3 2 5 5 5h62c3 0 5 -2 5 -5c0 -28 24 -38 42 -38c19 0 41 10 41 38c0 3 2 5 5 5z" />
    <glyph glyph-name="Ecaron" unicode="&#x11a;" horiz-adv-x="612" 
d="M63 699c0 3 2 5 5 5h481c3 0 5 -2 5 -5v-75c0 -3 -2 -5 -5 -5h-386c-3 0 -5 -2 -5 -5v-204c0 -3 2 -5 5 -5h345c3 0 5 -2 5 -5v-75c0 -3 -2 -5 -5 -5h-345c-3 0 -5 -2 -5 -5v-225c0 -3 2 -5 5 -5h386c3 0 5 -2 5 -5v-75c0 -3 -2 -5 -5 -5h-481c-3 0 -5 2 -5 5v694z
M364 902h60c4 0 7 -3 5 -7l-43 -104c-1 -3 -3 -4 -5 -4h-114c-2 0 -4 1 -5 4l-44 104c-2 4 1 7 5 7h60c2 0 4 -1 6 -4l30 -41c3 -4 8 -4 11 0l28 41c2 3 4 4 6 4z" />
    <glyph glyph-name="Gbreve" unicode="&#x11e;" horiz-adv-x="723" 
d="M660 5c0 -3 -2 -5 -5 -5h-73c-3 0 -6 1 -7 6l-10 70c0 4 -6 6 -9 2c-31 -42 -115 -88 -207 -88c-220 0 -316 150 -316 362s116 362 316 362c179 0 257 -101 286 -203c1 -4 -2 -5 -5 -5h-93c-3 0 -5 1 -6 5c-30 78 -98 118 -182 118c-140 0 -216 -104 -216 -277
s76 -277 216 -277s216 69 216 230c0 3 -2 5 -5 5h-206c-3 0 -5 2 -5 5v75c0 3 2 5 5 5h301c3 0 5 -2 5 -5v-385zM405 898h63c3 0 5 -2 5 -5c0 -83 -61 -110 -114 -110c-52 0 -114 27 -114 110c0 3 2 5 5 5h62c3 0 5 -2 5 -5c0 -28 24 -38 42 -38c19 0 41 10 41 38
c0 3 2 5 5 5z" />
    <glyph glyph-name="Abreve" unicode="&#x102;" horiz-adv-x="682" 
d="M281 704h123c3 0 5 -2 6 -5l233 -694c1 -3 -2 -5 -5 -5h-94c-3 0 -4 2 -5 5l-46 143c-1 4 -4 5 -7 5h-290c-3 0 -5 -2 -6 -5l-47 -143c-1 -3 -2 -5 -5 -5h-93c-3 0 -7 1 -6 5l236 694c1 3 3 5 6 5zM223 233h237c3 0 5 2 4 5l-117 366c-2 6 -8 6 -10 0l-118 -366
c-1 -3 1 -5 4 -5zM389 898h63c3 0 5 -2 5 -5c0 -83 -61 -110 -114 -110c-52 0 -114 27 -114 110c0 3 2 5 5 5h62c3 0 5 -2 5 -5c0 -28 24 -38 42 -38c19 0 41 10 41 38c0 3 2 5 5 5z" />
    <glyph glyph-name="Ccircumflex" unicode="&#x108;" horiz-adv-x="683" 
d="M551 215c1 4 4 5 7 5h88c3 0 5 -1 5 -5c0 -66 -79 -225 -288 -225c-220 0 -316 150 -316 362s116 362 316 362c218 0 288 -170 288 -225c0 -4 -2 -5 -5 -5h-88c-3 0 -6 2 -7 5c-15 43 -56 140 -188 140c-140 0 -216 -104 -216 -277s76 -277 216 -277
c120 0 172 87 188 140zM469 783h-60c-2 0 -4 1 -6 4l-29 41c-3 5 -8 5 -11 0l-29 -41c-2 -3 -4 -4 -6 -4h-60c-4 0 -7 3 -5 7l44 104c1 3 3 4 5 4h114c2 0 4 -1 5 -4l43 -104c2 -4 -1 -7 -5 -7z" />
    <glyph glyph-name="Gcircumflex" unicode="&#x11c;" horiz-adv-x="723" 
d="M660 5c0 -3 -2 -5 -5 -5h-73c-3 0 -6 1 -7 6l-10 70c0 4 -6 6 -9 2c-31 -42 -115 -88 -207 -88c-220 0 -316 150 -316 362s116 362 316 362c179 0 257 -101 286 -203c1 -4 -2 -5 -5 -5h-93c-3 0 -5 1 -6 5c-30 78 -98 118 -182 118c-140 0 -216 -104 -216 -277
s76 -277 216 -277s216 69 216 230c0 3 -2 5 -5 5h-206c-3 0 -5 2 -5 5v75c0 3 2 5 5 5h301c3 0 5 -2 5 -5v-385zM459 783h-60c-2 0 -4 1 -6 4l-29 41c-3 5 -8 5 -11 0l-29 -41c-2 -3 -4 -4 -6 -4h-60c-4 0 -7 3 -5 7l44 104c1 3 3 4 5 4h114c2 0 4 -1 5 -4l43 -104
c2 -4 -1 -7 -5 -7z" />
    <glyph glyph-name="Itilde" unicode="&#x128;" horiz-adv-x="236" 
d="M68 704h85c3 0 5 -2 5 -5v-694c0 -3 -2 -5 -5 -5h-85c-3 0 -5 2 -5 5v694c0 3 2 5 5 5zM-40 788v23c0 35 23 86 102 86c58 0 87 -46 107 -46c9 0 32 -2 32 41c0 3 2 5 5 5h60c3 0 5 -2 5 -5v-24c0 -34 -24 -85 -102 -85c-53 0 -84 46 -107 46c-9 0 -32 2 -32 -41
c0 -3 -2 -5 -5 -5h-60c-3 0 -5 2 -5 5z" />
    <glyph glyph-name="Jcircumflex" unicode="&#x134;" horiz-adv-x="462" 
d="M7 220h85c3 0 5 -2 5 -5v-17c0 -56 9 -123 104 -123c94 0 104 67 104 123v501c0 3 2 5 5 5h85c3 0 5 -2 5 -5v-501c0 -115 -41 -208 -200 -208c-147 0 -198 93 -198 208v17c0 3 2 5 5 5zM454 783h-60c-2 0 -4 1 -6 4l-29 41c-3 5 -8 5 -11 0l-29 -41c-2 -3 -4 -4 -6 -4
h-60c-4 0 -7 3 -5 7l44 104c1 3 3 4 5 4h114c2 0 4 -1 5 -4l43 -104c2 -4 -1 -7 -5 -7z" />
    <glyph glyph-name="lacute" unicode="&#x13a;" horiz-adv-x="240" 
d="M163 699v-694c0 -3 -2 -5 -5 -5h-85c-3 0 -5 2 -5 5v694c0 3 2 5 5 5h85c3 0 5 -2 5 -5zM137 783h-57c-4 0 -7 3 -5 7l43 101c1 3 4 7 10 7h87c4 0 7 -3 5 -7l-72 -101c-2 -3 -6 -7 -11 -7z" />
    <glyph glyph-name="Utilde" unicode="&#x168;" horiz-adv-x="621" 
d="M148 699v-460c0 -85 70 -164 156 -164c85 0 154 79 154 164v460c0 3 2 5 5 5h85c3 0 5 -2 5 -5v-460c0 -139 -110 -249 -249 -249s-251 110 -251 249v460c0 3 2 5 5 5h85c3 0 5 -2 5 -5zM152 788v23c0 35 23 86 102 86c58 0 87 -46 107 -46c9 0 32 -2 32 41c0 3 2 5 5 5
h60c3 0 5 -2 5 -5v-24c0 -34 -24 -85 -102 -85c-53 0 -84 46 -107 46c-9 0 -32 2 -32 -41c0 -3 -2 -5 -5 -5h-60c-3 0 -5 2 -5 5z" />
    <glyph glyph-name="Umacron" unicode="&#x16a;" horiz-adv-x="621" 
d="M148 699v-460c0 -85 70 -164 156 -164c85 0 154 79 154 164v460c0 3 2 5 5 5h85c3 0 5 -2 5 -5v-460c0 -139 -110 -249 -249 -249s-251 110 -251 249v460c0 3 2 5 5 5h85c3 0 5 -2 5 -5zM430 783h-246c-2 0 -4 2 -4 5v58c0 3 2 5 4 5h246c3 0 5 -2 5 -5v-58
c0 -3 -2 -5 -5 -5z" />
    <glyph glyph-name="Ubreve" unicode="&#x16c;" horiz-adv-x="621" 
d="M148 699v-460c0 -85 70 -164 156 -164c85 0 154 79 154 164v460c0 3 2 5 5 5h85c3 0 5 -2 5 -5v-460c0 -139 -110 -249 -249 -249s-251 110 -251 249v460c0 3 2 5 5 5h85c3 0 5 -2 5 -5zM354 898h63c3 0 5 -2 5 -5c0 -83 -61 -110 -114 -110c-52 0 -114 27 -114 110
c0 3 2 5 5 5h62c3 0 5 -2 5 -5c0 -28 24 -38 42 -38c19 0 41 10 41 38c0 3 2 5 5 5z" />
    <glyph glyph-name="Wcircumflex" unicode="&#x174;" horiz-adv-x="948" 
d="M563 699l124 -599c1 -6 9 -6 10 0l110 599c1 3 2 5 5 5h91c3 0 7 -1 6 -5l-138 -694c-1 -3 -3 -5 -6 -5h-152c-3 0 -4 2 -5 5l-129 598c-1 5 -9 5 -10 0l-129 -598c-1 -3 -2 -5 -5 -5h-152c-3 0 -5 2 -6 5l-138 694c-1 4 3 5 6 5h91c3 0 4 -2 5 -5l110 -599
c1 -6 9 -6 10 0l124 599c1 3 2 5 5 5h168c3 0 4 -2 5 -5zM572 783h-60c-2 0 -4 1 -6 4l-29 41c-3 5 -8 5 -11 0l-29 -41c-2 -3 -4 -4 -6 -4h-60c-4 0 -7 3 -5 7l44 104c1 3 3 4 5 4h114c2 0 4 -1 5 -4l43 -104c2 -4 -1 -7 -5 -7z" />
    <glyph glyph-name="Ycircumflex" unicode="&#x176;" horiz-adv-x="659" 
d="M619 699l-238 -386c-3 -5 -3 -7 -3 -10v-298c0 -3 -2 -5 -5 -5h-85c-3 0 -5 2 -5 5v298c0 3 -2 5 -5 10l-236 386c-2 3 0 5 3 5h101c3 0 6 -2 8 -5l171 -285c3 -4 7 -4 10 0l172 285c3 4 7 5 10 5h99c3 0 5 -2 3 -5zM427 783h-60c-2 0 -4 1 -6 4l-29 41c-3 5 -8 5 -11 0
l-29 -41c-2 -3 -4 -4 -6 -4h-60c-4 0 -7 3 -5 7l44 104c1 3 3 4 5 4h114c2 0 4 -1 5 -4l43 -104c2 -4 -1 -7 -5 -7z" />
    <glyph glyph-name="Zacute" unicode="&#x179;" horiz-adv-x="565" 
d="M25 5v70c0 10 1 10 3 13l381 525c2 3 1 6 -2 6h-377c-3 0 -5 2 -5 5v75c0 3 2 5 5 5h490c3 0 5 -2 5 -5v-70c0 -10 0 -10 -2 -13l-383 -526c-2 -3 -1 -5 2 -5h378c3 0 5 -2 5 -5v-75c0 -3 -2 -5 -5 -5h-490c-3 0 -5 2 -5 5zM269 783h-57c-4 0 -7 3 -5 7l43 101
c1 3 4 7 10 7h87c4 0 7 -3 5 -7l-72 -101c-2 -3 -6 -7 -11 -7z" />
    <glyph glyph-name="Hcircumflex" unicode="&#x124;" horiz-adv-x="658" 
d="M490 704h85c3 0 5 -2 5 -5v-694c0 -3 -2 -5 -5 -5h-85c-3 0 -5 2 -5 5v310c0 3 -2 5 -5 5h-317c-3 0 -5 -2 -5 -4v-311c0 -3 -2 -5 -5 -5h-85c-3 0 -5 2 -5 5v694c0 3 2 5 5 5h85c3 0 5 -2 5 -5v-289c0 -3 2 -5 5 -5h317c3 0 5 2 5 5v289c0 3 2 5 5 5zM427 783h-60
c-2 0 -4 1 -6 4l-29 41c-3 5 -8 5 -11 0l-29 -41c-2 -3 -4 -4 -6 -4h-60c-4 0 -7 3 -5 7l44 104c1 3 3 4 5 4h114c2 0 4 -1 5 -4l43 -104c2 -4 -1 -7 -5 -7z" />
    <glyph glyph-name="hcircumflex" unicode="&#x125;" horiz-adv-x="568" 
d="M65 704h85c3 0 5 -2 5 -5v-242c0 -5 7 -7 11 -2c30 38 79 61 131 61c155 0 218 -106 218 -236v-275c0 -3 -2 -5 -5 -5h-85c-3 0 -5 2 -5 5v275c0 76 -34 151 -133 151c-84 0 -132 -73 -132 -151v-275c0 -3 -2 -5 -5 -5h-85c-3 0 -5 2 -5 5v694c0 3 2 5 5 5zM207 783h-60
c-2 0 -4 1 -6 4l-29 41c-3 5 -8 5 -11 0l-29 -41c-2 -3 -4 -4 -6 -4h-60c-4 0 -7 3 -5 7l44 104c1 3 3 4 5 4h114c2 0 4 -1 5 -4l43 -104c2 -4 -1 -7 -5 -7z" />
    <glyph glyph-name="Lacute" unicode="&#x139;" horiz-adv-x="541" 
d="M69 5v694c0 3 2 5 5 5h85c3 0 5 -2 5 -5v-609c0 -3 2 -5 5 -5h350c3 0 5 -2 5 -5v-75c0 -3 -2 -5 -5 -5h-445c-3 0 -5 2 -5 5zM137 783h-57c-4 0 -7 3 -5 7l43 101c1 3 4 7 10 7h87c4 0 7 -3 5 -7l-72 -101c-2 -3 -6 -7 -11 -7z" />
    <glyph glyph-name="Wgrave" unicode="&#x1e80;" horiz-adv-x="948" 
d="M563 699l124 -599c1 -6 9 -6 10 0l110 599c1 3 2 5 5 5h91c3 0 7 -1 6 -5l-138 -694c-1 -3 -3 -5 -6 -5h-152c-3 0 -4 2 -5 5l-129 598c-1 5 -9 5 -10 0l-129 -598c-1 -3 -2 -5 -5 -5h-152c-3 0 -5 2 -6 5l-138 694c-1 4 3 5 6 5h91c3 0 4 -2 5 -5l110 -599
c1 -6 9 -6 10 0l124 599c1 3 2 5 5 5h168c3 0 4 -2 5 -5zM509 783h-57c-5 0 -9 4 -11 7l-72 101c-2 4 1 7 5 7h87c6 0 9 -4 10 -7l43 -101c2 -4 -1 -7 -5 -7z" />
    <glyph glyph-name="Wacute" unicode="&#x1e82;" horiz-adv-x="948" 
d="M563 699l124 -599c1 -6 9 -6 10 0l110 599c1 3 2 5 5 5h91c3 0 7 -1 6 -5l-138 -694c-1 -3 -3 -5 -6 -5h-152c-3 0 -4 2 -5 5l-129 598c-1 5 -9 5 -10 0l-129 -598c-1 -3 -2 -5 -5 -5h-152c-3 0 -5 2 -6 5l-138 694c-1 4 3 5 6 5h91c3 0 4 -2 5 -5l110 -599
c1 -6 9 -6 10 0l124 599c1 3 2 5 5 5h168c3 0 4 -2 5 -5zM491 783h-57c-4 0 -7 3 -5 7l43 101c1 3 4 7 10 7h87c4 0 7 -3 5 -7l-72 -101c-2 -3 -6 -7 -11 -7z" />
    <glyph glyph-name="uni0394" unicode="&#x394;" horiz-adv-x="690" 
d="M616 0h-547c-3 0 -5 2 -5 5v73c0 3 2 7 3 9l208 612c1 3 3 5 6 5h127c3 0 4 -2 5 -5l205 -611c1 -3 3 -6 3 -10v-73c0 -3 -2 -5 -5 -5zM339 605l-168 -514c-1 -3 2 -6 5 -6h333c4 0 6 4 5 7l-165 513c-2 5 -8 5 -10 0z" />
    <glyph glyph-name="uni02C9" unicode="&#x2c9;" horiz-adv-x="366" 
d="M303 589h-246c-2 0 -4 2 -4 5v58c0 3 2 5 4 5h246c3 0 5 -2 5 -5v-58c0 -3 -2 -5 -5 -5z" />
    <glyph glyph-name="uni03BC" unicode="&#x3bc;" 
d="M456 699v-694c0 -3 -2 -5 -5 -5h-411c-3 0 -5 2 -5 5v694c0 3 2 5 5 5h411c3 0 5 -2 5 -5zM246 375l173 306h-346zM73 24h346l-173 305zM259 352l173 -304v608c-57 -99 -118 -205 -173 -304zM60 47l173 305l-173 305v-610z" />
    <glyph glyph-name="uni03A9" unicode="&#x3a9;" 
d="M456 699v-694c0 -3 -2 -5 -5 -5h-411c-3 0 -5 2 -5 5v694c0 3 2 5 5 5h411c3 0 5 -2 5 -5zM246 375l173 306h-346zM73 24h346l-173 305zM259 352l173 -304v608c-57 -99 -118 -205 -173 -304zM60 47l173 305l-173 305v-610z" />
    <glyph glyph-name="uni00AD" unicode="&#xad;" 
d="M456 699v-694c0 -3 -2 -5 -5 -5h-411c-3 0 -5 2 -5 5v694c0 3 2 5 5 5h411c3 0 5 -2 5 -5zM246 375l173 306h-346zM73 24h346l-173 305zM259 352l173 -304v608c-57 -99 -118 -205 -173 -304zM60 47l173 305l-173 305v-610z" />
    <glyph glyph-name="Iogonek" unicode="&#x12e;" horiz-adv-x="236" 
d="M68 704h85c3 0 5 -2 5 -5v-694c0 -3 -2 -5 -5 -5h-85c-3 0 -5 2 -5 5v694c0 3 2 5 5 5zM70 -35h57c5 0 9 -4 11 -7l93 -149c2 -4 -1 -7 -5 -7h-87c-6 0 -9 4 -10 7l-64 149c-2 4 1 7 5 7z" />
    <glyph glyph-name="iogonek" unicode="&#x12f;" horiz-adv-x="246" 
d="M168 501v-496c0 -3 -2 -5 -5 -5h-85c-3 0 -5 2 -5 5v496c0 3 2 5 5 5h85c3 0 5 -2 5 -5zM178 699v-105c0 -3 -2 -5 -5 -5h-105c-3 0 -5 2 -5 5v105c0 3 2 5 5 5h105c3 0 5 -2 5 -5zM79 -35h57c5 0 9 -4 11 -7l93 -149c2 -4 -1 -7 -5 -7h-87c-6 0 -9 4 -10 7l-64 149
c-2 4 1 7 5 7z" />
    <glyph glyph-name="Ccedilla" unicode="&#xc7;" horiz-adv-x="683" 
d="M551 215c1 4 4 5 7 5h88c3 0 5 -1 5 -5c0 -66 -79 -225 -288 -225c-220 0 -316 150 -316 362s116 362 316 362c218 0 288 -170 288 -225c0 -4 -2 -5 -5 -5h-88c-3 0 -6 2 -7 5c-15 43 -56 140 -188 140c-140 0 -216 -104 -216 -277s76 -277 216 -277
c120 0 172 87 188 140zM352 -35h57c4 0 7 -3 5 -7l-64 -149c-1 -3 -4 -7 -10 -7h-87c-4 0 -7 3 -5 7l93 149c2 3 6 7 11 7z" />
    <glyph glyph-name="aogonek" unicode="&#x105;" horiz-adv-x="601" 
d="M571 80v-75c0 -3 -2 -5 -5 -5h-29c-57 0 -91 14 -106 46c-2 5 -7 4 -9 2c-24 -25 -86 -58 -178 -58c-134 0 -200 65 -200 160c0 87 73 152 220 152h112c22 0 33 19 33 33c0 41 -10 96 -129 96c-86 0 -125 -40 -125 -91c0 -3 -2 -5 -5 -5h-85c-3 0 -5 2 -5 5
c0 118 107 176 220 176c138 0 224 -59 224 -181v-217c0 -15 12 -33 33 -33h29c3 0 5 -2 5 -5zM409 208v14c0 3 -2 5 -5 5h-140c-106 0 -125 -42 -125 -77c0 -36 25 -75 105 -75c121 0 163 72 165 133zM407 -35h57c5 0 9 -4 11 -7l93 -149c2 -4 -1 -7 -5 -7h-87
c-6 0 -9 4 -10 7l-64 149c-2 4 1 7 5 7z" />
    <glyph glyph-name="Aogonek" unicode="&#x104;" horiz-adv-x="682" 
d="M281 704h123c3 0 5 -2 6 -5l233 -694c1 -3 -2 -5 -5 -5h-94c-3 0 -4 2 -5 5l-46 143c-1 4 -4 5 -7 5h-290c-3 0 -5 -2 -6 -5l-47 -143c-1 -3 -2 -5 -5 -5h-93c-3 0 -7 1 -6 5l236 694c1 3 3 5 6 5zM223 233h237c3 0 5 2 4 5l-117 366c-2 6 -8 6 -10 0l-118 -366
c-1 -3 1 -5 4 -5zM481 -35h57c5 0 9 -4 11 -7l93 -149c2 -4 -1 -7 -5 -7h-87c-6 0 -9 4 -10 7l-64 149c-2 4 1 7 5 7z" />
    <glyph glyph-name="ccedilla" unicode="&#xe7;" horiz-adv-x="568" 
d="M524 335h-89c-3 0 -5 2 -6 5c-22 59 -70 91 -138 91c-95 0 -152 -74 -152 -178s57 -178 152 -178c68 0 116 32 138 91c1 3 3 5 6 5h89c3 0 6 -1 5 -5c-28 -111 -111 -176 -238 -176c-157 0 -247 107 -247 263c0 157 90 263 247 263c127 0 211 -66 238 -176
c1 -4 -2 -5 -5 -5zM305 -35h57c4 0 7 -3 5 -7l-64 -149c-1 -3 -4 -7 -10 -7h-87c-4 0 -7 3 -5 7l93 149c2 3 6 7 11 7z" />
    <glyph glyph-name="Uogonek" unicode="&#x172;" horiz-adv-x="621" 
d="M148 699v-460c0 -85 70 -164 156 -164c85 0 154 79 154 164v460c0 3 2 5 5 5h85c3 0 5 -2 5 -5v-460c0 -139 -110 -249 -249 -249s-251 110 -251 249v460c0 3 2 5 5 5h85c3 0 5 -2 5 -5zM280 -35h57c5 0 9 -4 11 -7l93 -149c2 -4 -1 -7 -5 -7h-87c-6 0 -9 4 -10 7
l-64 149c-2 4 1 7 5 7z" />
    <glyph glyph-name="uogonek" unicode="&#x173;" horiz-adv-x="559" 
d="M498 0h-75c-3 0 -4 2 -5 5l-10 45c-2 6 -9 4 -11 1c-18 -26 -67 -61 -131 -61c-165 0 -218 106 -218 236v275c0 3 2 5 5 5h85c3 0 5 -2 5 -5v-275c0 -76 34 -151 133 -151c84 0 132 73 132 151v275c0 3 2 5 5 5h85c3 0 5 -2 5 -5v-496c0 -3 -2 -5 -5 -5zM341 -35h57
c5 0 9 -4 11 -7l93 -149c2 -4 -1 -7 -5 -7h-87c-6 0 -9 4 -10 7l-64 149c-2 4 1 7 5 7z" />
    <glyph glyph-name="Scedilla" unicode="&#x15e;" horiz-adv-x="610" 
d="M441 511c0 67 -62 118 -151 118c-79 0 -144 -49 -144 -116c0 -82 86 -95 155 -103c131 -15 267 -46 267 -212c0 -100 -73 -208 -267 -208c-173 0 -267 95 -267 203c0 3 2 5 5 5h89c3 0 6 -3 6 -6c0 -50 54 -117 167 -117c106 0 167 57 167 123c0 90 -80 108 -167 117
c-112 12 -255 43 -255 198c0 128 122 201 244 201c127 0 245 -66 251 -203c0 -3 -2 -5 -5 -5h-90c-3 0 -5 2 -5 5zM306 -35h57c4 0 7 -3 5 -7l-64 -149c-1 -3 -4 -7 -10 -7h-87c-4 0 -7 3 -5 7l93 149c2 3 6 7 11 7z" />
    <glyph glyph-name="scedilla" unicode="&#x15f;" horiz-adv-x="536" 
d="M468 335h-86c-3 0 -5 2 -5 5c0 55 -44 91 -125 91c-75 0 -108 -33 -108 -64c0 -57 72 -58 122 -65c100 -13 220 -23 220 -151c0 -114 -95 -161 -220 -161c-152 0 -226 80 -226 176c0 3 2 5 5 5h84c3 0 6 -2 6 -5c0 -50 51 -91 131 -91c51 0 125 11 125 76
c0 57 -83 61 -125 66c-96 11 -217 26 -217 150c0 82 79 149 203 149c123 0 220 -58 220 -176c0 -3 -1 -5 -4 -5zM269 -35h57c4 0 7 -3 5 -7l-64 -149c-1 -3 -4 -7 -10 -7h-87c-4 0 -7 3 -5 7l93 149c2 3 6 7 11 7z" />
    <glyph glyph-name="Eogonek" unicode="&#x118;" horiz-adv-x="612" 
d="M63 699c0 3 2 5 5 5h481c3 0 5 -2 5 -5v-75c0 -3 -2 -5 -5 -5h-386c-3 0 -5 -2 -5 -5v-204c0 -3 2 -5 5 -5h345c3 0 5 -2 5 -5v-75c0 -3 -2 -5 -5 -5h-345c-3 0 -5 -2 -5 -5v-225c0 -3 2 -5 5 -5h386c3 0 5 -2 5 -5v-75c0 -3 -2 -5 -5 -5h-481c-3 0 -5 2 -5 5v694z
M391 -35h57c5 0 9 -4 11 -7l93 -149c2 -4 -1 -7 -5 -7h-87c-6 0 -9 4 -10 7l-64 149c-2 4 1 7 5 7z" />
    <glyph glyph-name="eogonek" unicode="&#x119;" horiz-adv-x="580" 
d="M150 219c-3 0 -5 -2 -5 -5c0 -73 53 -139 142 -139c71 0 106 30 127 70c2 4 4 5 7 5h89c3 0 6 -1 5 -5c-26 -98 -115 -155 -228 -155c-150 0 -243 107 -243 263c0 157 88 263 243 263c156 0 244 -107 244 -263c0 -10 -1 -21 -3 -29c-1 -3 -2 -5 -5 -5h-373zM427 299
c0 57 -41 132 -140 132c-97 0 -142 -85 -142 -132c0 -3 3 -5 5 -5h272c3 0 5 2 5 5zM257 -35h57c5 0 9 -4 11 -7l93 -149c2 -4 -1 -7 -5 -7h-87c-6 0 -9 4 -10 7l-64 149c-2 4 1 7 5 7z" />
    </font>
</defs>
</svg>
