<?xml version="1.0" encoding="utf-8"?>
<!-- Generator: Adobe Illustrator 23.0.3, SVG Export Plug-In . SVG Version: 6.00 Build 0)  -->
<svg version="1.1" id="Layer_1" xmlns="http://www.w3.org/2000/svg" xmlns:xlink="http://www.w3.org/1999/xlink" x="0px" y="0px"
	 viewBox="0 0 630 159.5" style="enable-background:new 0 0 630 159.5;" xml:space="preserve">
<style type="text/css">
	.st0{fill:#FCF2F2;}
</style>
<g>
	<path class="st0" d="M332.4,4.8v149.7h-37.2V4.8H332.4z"/>
	<path class="st0" d="M425,0c44.5,0,80.4,34.5,80.4,79.3c0,45-36.1,80.2-80.8,80.2s-80.8-34.7-80.8-79.6C343.8,35.1,380.4,0,425,0z
		 M424.7,123c23.6,0,41-20.4,41-43.4s-17.4-43.2-41-43.2c-23.6,0-41.1,20.2-41.1,43.2S401.1,123,424.7,123z"/>
	<path class="st0" d="M509.6,109.2l34.1-8.1c2.4,18,15.5,24.5,29.3,24.5c13.7,0,18.6-8.1,18.6-14.4c0-5.1-2.9-10.1-12.9-12.1
		l-20.8-4c-24.9-4.8-42.5-20.4-42.5-44.4c0-28.6,26.1-48.8,55.6-48.8c38,0,53.6,23.7,56.3,43.6l-33.4,9.4
		c-1.8-12.2-9.3-21.1-23.1-21.1c-11.9,0-17.5,7.9-17.5,13.9c0,5,2.4,10.7,11.2,12.4l21.7,4.1c28.3,5.5,43.9,22.8,43.9,45.3
		c0,24.5-21.1,48-57.3,48C534.9,157.6,514.6,137.7,509.6,109.2z"/>
	<polygon class="st0" points="236.4,77.9 285.9,154.5 244.8,154.5 213.9,107 182.6,154.5 132.4,154.5 86.1,50.1 40,154.5 0,154.5 
		66.1,4.8 106.2,4.8 159.5,125.6 192,77.9 141.7,4.7 187.7,4.7 213.9,49 240.7,4.7 286.1,4.7 	"/>
</g>
</svg>
