<?xml version="1.0" encoding="utf-8"?>
<!-- Generator: Adobe Illustrator 23.0.1, SVG Export Plug-In . SVG Version: 6.00 Build 0)  -->
<svg version="1.1" id="Layer_1" xmlns="http://www.w3.org/2000/svg" xmlns:xlink="http://www.w3.org/1999/xlink" x="0px" y="0px"
	 viewBox="0 0 559.8 438.2" style="enable-background:new 0 0 559.8 438.2;" xml:space="preserve">
<style type="text/css">
	.st0{fill:#1B3D51;}
</style>
<g id="Isolation_Mode">
	<g>
		<g>
			<g>
				<path class="st0" d="M452.6,100.9c-2.8-13.2-13.4-20-28.5-20h-30.7l8.4,40.3h31.3c15,0,22-8,19.5-19.8V100.9z"/>
			</g>
			<g>
				<path class="st0" d="M509.5,20.5L89.1,19L9.8,146.4l41.3,206.7h419.2l78.9-128L509.5,20.5z M221.4,195.4
					c-21.3,0-43.1-7-63.1-22.1l14.2-21.1c14.8,10.4,27.7,15.9,43.8,15.9c12.6,0,19.2-5,17.5-13.2l-0.1-0.4
					c-1.6-7.8-7.3-11.8-32-17.8c-29.8-7.2-49.7-15-55.5-42.9l-0.1-0.4c-5.3-25.5,11.6-42.3,40.3-42.3c20.4,0,44.2,7.7,60.9,19.2
					l-15,22.3c-14.2-8.6-28.7-14.2-40.5-14.2s-16.9,5.4-15.5,12.2l0.1,0.4c1.9,9.2,8.6,12.2,34.1,18.4c30,7.4,48.2,17.6,53.3,42.1
					l0.1,0.4C269.6,179.7,251.6,195.4,221.4,195.4z M357.4,182.3c-6.8,8.6-18.5,13-33.8,13c-21.9,0-42-12.6-54-24l14.9-22.2
					c9.9,8.8,22.5,17.5,32.3,17.5c11.6,0,17.4-7,14-23.3l-18.9-90.4h31.7l19.2,91.8C366.2,161.5,364,173.9,357.4,182.3z
					 M471.3,193.4l-39.4-45h-0.4h-23.9l9.4,44.9h-30.9L356.7,53h64.2c17.8,0,32.7,5,43.9,14.2c9.5,7.8,16,18.8,18.7,32.1l0.1,0.4
					c4.7,22.7-4.5,36.9-21,43.5l44.8,50.1h-36.1V193.4z"/>
			</g>
		</g>
		<g>
			<g>
				<path class="st0" d="M71.2,383.7h7l10.1,34.4h-5.9l-2.1-7.4H68.9l-2.2,7.4h-5.9L71.2,383.7z M70.3,406h8.6l-4.3-14.8L70.3,406z"
					/>
			</g>
			<g>
				<path class="st0" d="M113.4,383.7l6.8,26.2l6.6-23.9h3.8l7,24l7.2-26.3h6.3l-10.6,34.4h-5.9l-5.8-19.4l-5.7,19.4h-5.9
					l-10.1-34.4H113.4z"/>
			</g>
			<g>
				<path class="st0" d="M177.7,386.6c1.9,1.9,2.9,4.6,2.9,8.1s-1,6.2-2.9,8.1c-1.9,1.9-4.7,2.8-8.1,2.8h-5.2v12.5h-5.7v-34.4h10.9
					C173,383.7,175.8,384.7,177.7,386.6z M169.6,400.2c1.7,0,3.1-0.5,3.9-1.5c0.9-1,1.3-2.3,1.3-4s-0.4-2.9-1.3-4
					c-0.9-1-2.2-1.6-3.9-1.6h-5.2v11L169.6,400.2L169.6,400.2z"/>
			</g>
			<g>
				<path class="st0" d="M207.7,386.6c1.9,1.9,2.9,4.6,2.9,8.1s-1,6.2-2.9,8.1c-1.9,1.9-4.7,2.8-8.1,2.8h-5.2v12.5h-5.7v-34.4h10.9
					C203,383.7,205.7,384.7,207.7,386.6z M199.5,400.2c1.7,0,3.1-0.5,3.9-1.5c0.9-1,1.3-2.3,1.3-4s-0.4-2.9-1.3-4
					c-0.9-1-2.2-1.6-3.9-1.6h-5.2v11L199.5,400.2L199.5,400.2z"/>
			</g>
			<g>
				<path class="st0" d="M244.2,383.1c1.9,0,3.5,0.3,4.9,0.8s2.6,1.2,3.6,2.1c2,1.8,3.3,4.3,3.9,7.6l-6,1.2
					c-0.5-1.8-1.3-3.3-2.4-4.4c-1.1-1.1-2.4-1.7-4-1.7c-2.2,0-3.9,1-5.2,3c-1.4,2.2-2.1,5.2-2.1,9.1c0,3.9,0.6,6.9,1.9,9.1
					c1.3,2.2,3,3.3,5.2,3.3s3.8-0.6,4.9-1.8c1.1-1.2,1.7-2.7,1.7-4.6h6c0,3.9-1.1,6.8-3.3,8.9c-2.2,2.1-5.2,3.2-9,3.2
					c-4.1,0-7.3-1.6-9.7-4.8c-2.4-3.3-3.7-7.7-3.7-13.3c0-5.7,1.3-10.1,3.8-13.3C237.1,384.6,240.3,383.1,244.2,383.1z"/>
			</g>
			<g>
				<path class="st0" d="M277.5,383.1c2.1,0,3.9,0.4,5.7,1.1c1.7,0.8,3.2,1.9,4.4,3.4c2.6,3.1,3.9,7.6,3.9,13.4
					c0,5.8-1.3,10.3-3.9,13.5c-2.5,3-5.8,4.5-10.1,4.5c-4.2,0-7.6-1.5-10.1-4.6c-2.6-3.1-3.9-7.6-3.9-13.4c0-5.9,1.3-10.4,3.9-13.5
					C269.8,384.5,273.2,383.1,277.5,383.1z M285.6,401c0-3.9-0.7-7-2.2-9.1s-3.5-3.2-6-3.2s-4.5,1.1-6,3.2s-2.2,5.2-2.2,9.1
					s0.7,7,2.2,9.1s3.5,3.2,6,3.2s4.5-1.1,6-3.2C284.9,408,285.6,405,285.6,401z"/>
			</g>
			<g>
				<path class="st0" d="M308.5,383.7l8.5,20.5l8.5-20.5h7.7v34.4h-5.7v-26.2l-8.7,22.4h-3.7l-9-23.1v26.9h-5.6v-34.4L308.5,383.7
					L308.5,383.7z"/>
			</g>
			<g>
				<path class="st0" d="M363.2,386.6c1.9,1.9,2.9,4.6,2.9,8.1s-1,6.2-2.9,8.1c-1.9,1.9-4.7,2.8-8.1,2.8h-5.2v12.5h-5.7v-34.4h10.9
					C358.6,383.7,361.3,384.7,363.2,386.6z M355.1,400.2c1.7,0,3.1-0.5,3.9-1.5c0.9-1,1.3-2.3,1.3-4s-0.4-2.9-1.3-4
					c-0.9-1-2.2-1.6-3.9-1.6h-5.2v11L355.1,400.2L355.1,400.2z"/>
			</g>
			<g>
				<path class="st0" d="M379.5,383.7h7l10.1,34.4h-5.9l-2.1-7.4h-11.4l-2.2,7.4h-5.9L379.5,383.7z M378.5,406h8.6l-4.3-14.8
					L378.5,406z"/>
			</g>
			<g>
				<path class="st0" d="M410.5,383.7l13.6,24.4v-24.4h5.6v34.4H424l-14-25.3v25.3h-5.6v-34.4H410.5z"/>
			</g>
			<g>
				<path class="st0" d="M443.9,383.7l6.8,13.7l7.1-13.7h6.6l-11,20.2v14.2h-5.6v-14.2l-10.6-20.2H443.9z"/>
			</g>
		</g>
	</g>
</g>
</svg>
